<?xml version="1.0" standalone="no"?>
<!DOCTYPE svg PUBLIC "-//W3C//DTD SVG 1.1//EN" "http://www.w3.org/Graphics/SVG/1.1/DTD/svg11.dtd" >
<svg xmlns="http://www.w3.org/2000/svg">
<metadata></metadata>
<defs>
<font id="ddc_uchenregular" horiz-adv-x="660" >
<font-face units-per-em="1024" ascent="819" descent="-205" />
<missing-glyph horiz-adv-x="624" />
<glyph unicode="&#xf68;&#xf7c;&#xf7e;" horiz-adv-x="730" d="M414 1049q0 -17 -8.5 -32t-22.5 -26t-33.5 -18t-40.5 -7q-16 0 -28.5 6.5t-21.5 16.5t-14 22t-5 24q0 13 7 28t19.5 28t30 22t37.5 9q22 0 37.5 -8.5t25 -20t13.5 -24t4 -20.5zM370 1027q0 7 -4 16.5t-11.5 18t-18.5 14.5t-24 6q-8 0 -16 -8t-8 -16q0 -28 19 -42t40 -14 q7 0 15 7t8 18zM352 827q9 25 17 49.5t18 47t24.5 41t37 32.5t55 21.5t79.5 7.5q34 0 56.5 1t41 7t39 18t52.5 34q13 0 13 -6q0 -20 -23.5 -44t-58 -45t-74 -35t-72.5 -14q-38 0 -70.5 -15t-56.5 -38t-38 -50.5t-14 -52.5q0 -8 -9.5 -13t-14.5 -5q-10 0 -21 22 q-17 33 -45.5 55t-62 35.5t-69 19.5t-66.5 6q-4 0 -11 0.5t-7 4.5t5 18t14 29t22.5 26.5t30.5 11.5q18 0 46.5 -11.5t58.5 -34t57.5 -55.5t42.5 -76zM471 744l-25 -72q-4 -11 -7 -17.5t-18 -6.5h-26q16 -21 29.5 -38.5t27 -36t27.5 -41t30 -53.5q10 -20 22.5 -48t26 -58 t26.5 -59t25 -53l-27 267q-4 35 -9 58t-11 37t-13 19.5t-15 5.5h-6l42 96h114q-3 -17 -9 -39t-11.5 -44.5t-9.5 -42.5t-4 -33v-394q0 -6 -4.5 -14t-12.5 -8q-7 0 -15 8.5t-13 13.5q-35 45 -66.5 92.5t-64.5 98t-70 104t-82 110.5q-6 -2 -15.5 -12.5t-18.5 -23t-16 -25 t-7 -17.5q5 2 10.5 2.5t10.5 0.5q16 0 30 -13t23.5 -33t15 -43.5t5.5 -44.5q0 -20 -12 -46.5t-33 -50.5t-48.5 -41t-58.5 -17q-25 0 -54.5 10t-55 34t-42.5 64t-17 100q0 54 12.5 108t23.5 100h-11q-18 0 -23 3t-5 15q0 4 4.5 15t10.5 23t12 23.5t9 16.5h140l-27 -72 l-3.5 -10.5t-4.5 -7.5t-9 -4.5t-17 -1.5q-8 -10 -17.5 -28.5t-17 -40t-12.5 -45t-5 -44.5q0 -27 5 -57.5t18.5 -56.5t38.5 -43t66 -17q74 0 74 62q0 9 -3 19.5t-9 19.5t-16 15t-23 6q-28 0 -41 -6t-17 -6q-5 0 -6 4.5t-1 7.5q0 9 12.5 39t29.5 65t36 65.5t32 40.5h-27 q-18 0 -23 3t-5 15q0 4 5 15t11 23t12 23.5t9 16.5h194z" />
<glyph unicode="&#xf68;&#xf72;" horiz-adv-x="730" d="M471 744l-25 -72q-4 -11 -7 -17.5t-18 -6.5h-26q16 -21 29.5 -38.5t27 -36t27.5 -41t30 -53.5q10 -20 22.5 -48t26 -58t26.5 -59t25 -53l-27 267q-4 35 -9 58t-11 37t-13 19.5t-15 5.5h-6l42 96h114q-3 -17 -9 -39t-11.5 -44.5t-9.5 -42.5t-4 -33v-394q0 -6 -4.5 -14 t-12.5 -8q-7 0 -15 8.5t-13 13.5q-35 45 -66.5 92.5t-64.5 98t-70 104t-82 110.5q-6 -2 -15.5 -12.5t-18.5 -23t-16 -25t-7 -17.5q5 2 10.5 2.5t10.5 0.5q16 0 30 -13t23.5 -33t15 -43.5t5.5 -44.5q0 -20 -12 -46.5t-33 -50.5t-48.5 -41t-58.5 -17q-25 0 -54.5 10t-55 34 t-42.5 64t-17 100q0 54 12.5 108t23.5 100h-11q-18 0 -23 3t-5 15q0 4 4.5 15t10.5 23t12 23.5t9 16.5h140l-27 -72l-3.5 -10.5t-4.5 -7.5t-9 -4.5t-17 -1.5q-8 -10 -17.5 -28.5t-17 -40t-12.5 -45t-5 -44.5q0 -27 5 -57.5t18.5 -56.5t38.5 -43t66 -17q74 0 74 62 q0 9 -3 19.5t-9 19.5t-16 15t-23 6q-28 0 -41 -6t-17 -6q-5 0 -6 4.5t-1 7.5q0 9 12.5 39t29.5 65t36 65.5t32 40.5h-27q-18 0 -23 3t-5 15q0 4 5 15t11 23t12 23.5t9 16.5h194zM260 1166q41 0 87 -38t93.5 -95t93.5 -122.5t88 -120.5q0 -7 -6.5 -9.5t-11.5 -2.5 q-11 0 -34 21.5t-54.5 54t-69 70.5t-79 70.5t-84 54t-83.5 21.5q-10 0 -22.5 -4t-23 -11.5t-18 -18t-7.5 -23.5q0 -11 3.5 -23t12 -22.5t22.5 -17.5t35 -7q19 0 33 6t23.5 12.5t15.5 12.5t9 6q4 0 5.5 -3.5t1.5 -5.5q0 -27 -10.5 -49t-27.5 -38t-38.5 -25t-42.5 -9 q-20 0 -39.5 9t-34.5 23.5t-24.5 33.5t-9.5 39q0 52 24 92t56.5 66t65.5 39.5t51 13.5z" />
<glyph unicode="&#xf68;&#xf80;" horiz-adv-x="730" d="M471 744l-25 -72q-4 -11 -7 -17.5t-18 -6.5h-26q16 -21 29.5 -38.5t27 -36t27.5 -41t30 -53.5q10 -20 22.5 -48t26 -58t26.5 -59t25 -53l-27 267q-4 35 -9 58t-11 37t-13 19.5t-15 5.5h-6l42 96h114q-3 -17 -9 -39t-11.5 -44.5t-9.5 -42.5t-4 -33v-394q0 -6 -4.5 -14 t-12.5 -8q-7 0 -15 8.5t-13 13.5q-35 45 -66.5 92.5t-64.5 98t-70 104t-82 110.5q-6 -2 -15.5 -12.5t-18.5 -23t-16 -25t-7 -17.5q5 2 10.5 2.5t10.5 0.5q16 0 30 -13t23.5 -33t15 -43.5t5.5 -44.5q0 -20 -12 -46.5t-33 -50.5t-48.5 -41t-58.5 -17q-25 0 -54.5 10t-55 34 t-42.5 64t-17 100q0 54 12.5 108t23.5 100h-11q-18 0 -23 3t-5 15q0 4 4.5 15t10.5 23t12 23.5t9 16.5h140l-27 -72l-3.5 -10.5t-4.5 -7.5t-9 -4.5t-17 -1.5q-8 -10 -17.5 -28.5t-17 -40t-12.5 -45t-5 -44.5q0 -27 5 -57.5t18.5 -56.5t38.5 -43t66 -17q74 0 74 62 q0 9 -3 19.5t-9 19.5t-16 15t-23 6q-28 0 -41 -6t-17 -6q-5 0 -6 4.5t-1 7.5q0 9 12.5 39t29.5 65t36 65.5t32 40.5h-27q-18 0 -23 3t-5 15q0 4 5 15t11 23t12 23.5t9 16.5h194zM127 802q44 53 84.5 112.5t78.5 109t73 82t67 32.5q12 0 33.5 -3t46 -11.5t50.5 -23.5 t46.5 -38.5t34 -58t13.5 -80.5q0 -20 -8.5 -38.5t-22 -32t-30.5 -21.5t-34 -8q-21 0 -42 7.5t-37 22t-26 35.5t-10 48q0 2 1.5 6.5t5.5 4.5t11 -5t17 -10.5t22 -10.5t27 -5q17 0 28.5 6t18.5 15.5t10 21t3 22.5q0 13 -9.5 25t-24.5 21t-33.5 14.5t-35.5 5.5q-31 0 -65 -19 t-68.5 -48t-67 -62t-60 -62t-48.5 -48t-32 -19q-5 0 -11 3t-6 10z" />
<glyph unicode="&#xf68;&#xf74;" horiz-adv-x="730" d="M751 -16q0 -39 -16.5 -72.5t-42.5 -58.5t-58.5 -39t-65.5 -14q-39 0 -74 16.5t-69.5 44.5t-70 64t-76.5 74t-88 76t-105 70q-8 5 -14 11t-6 14q0 5 4.5 8t8.5 3q16 0 34 -7q43 -19 89.5 -47.5t94 -60t94 -63t90 -56.5t82 -41t70.5 -16q29 0 50 14t21 52q0 17 -10.5 32 t-27 26t-37 17.5t-40.5 6.5q-21 0 -39 -8q-3 -1 -9 -5t-12.5 -8t-13 -7.5t-9.5 -3.5q-5 0 -5.5 11.5t-0.5 20.5q0 12 6.5 29.5t20.5 33.5t35.5 27.5t50.5 11.5q31 0 56.5 -12.5t44 -34t28.5 -50t10 -59.5zM471 744l-25 -72q-4 -11 -7 -17.5t-18 -6.5h-26q16 -21 29.5 -38.5 t27 -36t27.5 -41t30 -53.5q10 -20 22.5 -48t26 -58t26.5 -59t25 -53l-27 267q-4 35 -9 58t-11 37t-13 19.5t-15 5.5h-6l42 96h114q-3 -17 -9 -39t-11.5 -44.5t-9.5 -42.5t-4 -33v-394q0 -6 -4.5 -14t-12.5 -8q-7 0 -15 8.5t-13 13.5q-35 45 -66.5 92.5t-64.5 98t-70 104 t-82 110.5q-6 -2 -15.5 -12.5t-18.5 -23t-16 -25t-7 -17.5q5 2 10.5 2.5t10.5 0.5q16 0 30 -13t23.5 -33t15 -43.5t5.5 -44.5q0 -20 -12 -46.5t-33 -50.5t-48.5 -41t-58.5 -17q-25 0 -54.5 10t-55 34t-42.5 64t-17 100q0 54 12.5 108t23.5 100h-11q-18 0 -23 3t-5 15 q0 4 4.5 15t10.5 23t12 23.5t9 16.5h140l-27 -72l-3.5 -10.5t-4.5 -7.5t-9 -4.5t-17 -1.5q-8 -10 -17.5 -28.5t-17 -40t-12.5 -45t-5 -44.5q0 -27 5 -57.5t18.5 -56.5t38.5 -43t66 -17q74 0 74 62q0 9 -3 19.5t-9 19.5t-16 15t-23 6q-28 0 -41 -6t-17 -6q-5 0 -6 4.5t-1 7.5 q0 9 12.5 39t29.5 65t36 65.5t32 40.5h-27q-18 0 -23 3t-5 15q0 4 5 15t11 23t12 23.5t9 16.5h194z" />
<glyph unicode="&#xf68;&#xf7a;" horiz-adv-x="730" d="M471 744l-25 -72q-4 -11 -7 -17.5t-18 -6.5h-26q16 -21 29.5 -38.5t27 -36t27.5 -41t30 -53.5q10 -20 22.5 -48t26 -58t26.5 -59t25 -53l-27 267q-4 35 -9 58t-11 37t-13 19.5t-15 5.5h-6l42 96h114q-3 -17 -9 -39t-11.5 -44.5t-9.5 -42.5t-4 -33v-394q0 -6 -4.5 -14 t-12.5 -8q-7 0 -15 8.5t-13 13.5q-35 45 -66.5 92.5t-64.5 98t-70 104t-82 110.5q-6 -2 -15.5 -12.5t-18.5 -23t-16 -25t-7 -17.5q5 2 10.5 2.5t10.5 0.5q16 0 30 -13t23.5 -33t15 -43.5t5.5 -44.5q0 -20 -12 -46.5t-33 -50.5t-48.5 -41t-58.5 -17q-25 0 -54.5 10t-55 34 t-42.5 64t-17 100q0 54 12.5 108t23.5 100h-11q-18 0 -23 3t-5 15q0 4 4.5 15t10.5 23t12 23.5t9 16.5h140l-27 -72l-3.5 -10.5t-4.5 -7.5t-9 -4.5t-17 -1.5q-8 -10 -17.5 -28.5t-17 -40t-12.5 -45t-5 -44.5q0 -27 5 -57.5t18.5 -56.5t38.5 -43t66 -17q74 0 74 62 q0 9 -3 19.5t-9 19.5t-16 15t-23 6q-28 0 -41 -6t-17 -6q-5 0 -6 4.5t-1 7.5q0 9 12.5 39t29.5 65t36 65.5t32 40.5h-27q-18 0 -23 3t-5 15q0 4 5 15t11 23t12 23.5t9 16.5h194zM638 793q0 -13 -11 -13t-33 13.5t-52 34t-66.5 45t-75.5 47.5q-30 18 -68 36.5t-75.5 33.5 t-71.5 24.5t-56 9.5h-17t-20 -2q0 13 7.5 30t18 32t22 25.5t19.5 10.5q40 0 83 -14.5t86 -38t84.5 -54t79 -63t69 -64.5t54.5 -59l18 -21q5 -5 5 -13z" />
<glyph unicode="&#xf68;&#xf7c;" horiz-adv-x="730" d="M471 744l-25 -72q-4 -11 -7 -17.5t-18 -6.5h-26q16 -21 29.5 -38.5t27 -36t27.5 -41t30 -53.5q10 -20 22.5 -48t26 -58t26.5 -59t25 -53l-27 267q-4 35 -9 58t-11 37t-13 19.5t-15 5.5h-6l42 96h114q-3 -17 -9 -39t-11.5 -44.5t-9.5 -42.5t-4 -33v-394q0 -6 -4.5 -14 t-12.5 -8q-7 0 -15 8.5t-13 13.5q-35 45 -66.5 92.5t-64.5 98t-70 104t-82 110.5q-6 -2 -15.5 -12.5t-18.5 -23t-16 -25t-7 -17.5q5 2 10.5 2.5t10.5 0.5q16 0 30 -13t23.5 -33t15 -43.5t5.5 -44.5q0 -20 -12 -46.5t-33 -50.5t-48.5 -41t-58.5 -17q-25 0 -54.5 10t-55 34 t-42.5 64t-17 100q0 54 12.5 108t23.5 100h-11q-18 0 -23 3t-5 15q0 4 4.5 15t10.5 23t12 23.5t9 16.5h140l-27 -72l-3.5 -10.5t-4.5 -7.5t-9 -4.5t-17 -1.5q-8 -10 -17.5 -28.5t-17 -40t-12.5 -45t-5 -44.5q0 -27 5 -57.5t18.5 -56.5t38.5 -43t66 -17q74 0 74 62 q0 9 -3 19.5t-9 19.5t-16 15t-23 6q-28 0 -41 -6t-17 -6q-5 0 -6 4.5t-1 7.5q0 9 12.5 39t29.5 65t36 65.5t32 40.5h-27q-18 0 -23 3t-5 15q0 4 5 15t11 23t12 23.5t9 16.5h194zM30 947h-17t-20 -2q0 13 7 30t17 32t21 25.5t19 10.5q33 0 77.5 -17t87.5 -46.5t78 -68 t49 -81.5l3 8q9 39 20 76t34.5 65.5t65 46t111.5 17.5q34 0 59 1t46 6t42.5 16t48.5 31q13 0 13 -6q0 -20 -24.5 -45t-60.5 -47t-76.5 -36.5t-73.5 -14.5q-38 0 -70.5 -14t-56.5 -36t-38 -49t-14 -52q0 -8 -9.5 -13t-14.5 -5q-10 0 -21 22q-16 33 -51 59.5t-78 46t-89 30 t-85 10.5z" />
<glyph unicode="&#xf40;&#xf71;" horiz-adv-x="680" d="M636 744l-11 -44t-11.5 -47.5t-9.5 -44t-4 -33.5v-575h30v-17q0 -11 -5 -24t-12 -14q5 -8 11 -22t6 -25q0 -21 -10.5 -44.5t-31.5 -39.5q18 0 37.5 -12.5t38 -34t34 -51t26.5 -62.5q0 -5 -3.5 -9.5t-9.5 -4.5t-17 14q-16 20 -30 34t-31 23t-39 13t-55 4q-13 0 -32.5 -3.5 t-43.5 -8.5q0 6 1 22.5t8.5 33t23 29.5t44.5 13q15 10 25.5 22.5t10.5 24.5q0 21 -18.5 32t-61.5 11h-31q-32 0 -56 -11t-24 -32q0 -16 4 -28t8.5 -21l8.5 -17t4 -16q0 -12 -5 -28.5t-12 -32.5t-15.5 -27t-15.5 -11q-6 0 -8 3t-2 5t1 4t1 4q0 20 -6 38t-13 34t-13 29t-6 24 q0 36 14.5 68.5t36.5 57t47.5 39t46.5 14.5h93l-43 564q-1 16 -3.5 31t-6.5 27t-9 19t-11 7h-94q-2 -35 -2.5 -55.5t-1 -35t-1 -26t-1.5 -27.5q-4 -38 -5 -90.5t-3.5 -100t-8.5 -80.5t-19 -33q-5 0 -9.5 31t-9.5 76t-9 96.5t-7 92.5q-1 15 -4 40.5t-7 50.5t-9 43t-10 18h-53 q-12 0 -18 -13.5t-8 -23.5q-11 -40 -28.5 -83.5t-41 -80t-52 -60t-61.5 -23.5q-12 0 -12 11q0 2 4 5.5t8 5.5q17 9 37 42.5t37 75t28.5 81.5t11.5 63h-43q-18 0 -23 3t-5 15q0 4 4.5 15t10.5 23t12 23.5t9 16.5h539z" />
<glyph unicode="&#xf40;&#xf72;" horiz-adv-x="680" d="M636 744l-11 -44t-11.5 -47.5t-9.5 -44t-4 -33.5v-918q0 -9 -6 -13t-15 -4q-5 0 -11.5 4t-7.5 13l-49 907q-1 16 -3.5 31t-6.5 27t-9 19t-11 7h-94q-2 -35 -2.5 -55.5t-1 -35t-1 -26t-1.5 -27.5q-4 -38 -5 -90.5t-3.5 -100t-8.5 -80.5t-19 -33q-5 0 -9.5 31t-9.5 76 t-9 96.5t-7 92.5q-1 15 -4 40.5t-7 50.5t-9 43t-10 18h-46q-12 0 -18 -13.5t-8 -23.5q-11 -40 -29.5 -83.5t-43.5 -80t-54.5 -60t-62.5 -23.5q-12 0 -12 11q0 2 4 5.5t8 5.5q17 9 37 42.5t37 75t28.5 81.5t11.5 63h-43q-18 0 -23 3t-5 15q0 4 4.5 15t10.5 23t12 23.5t9 16.5 h539zM257 1166q41 0 87 -38t93.5 -95t93.5 -122.5t88 -120.5q0 -7 -6.5 -9.5t-11.5 -2.5q-11 0 -34 21.5t-54.5 54t-69 70.5t-79 70.5t-84 54t-83.5 21.5q-10 0 -22.5 -4t-23 -11.5t-18 -18t-7.5 -23.5q0 -11 3.5 -23t12 -22.5t22.5 -17.5t35 -7q19 0 33 6t23.5 12.5 t15.5 12.5t9 6q4 0 5.5 -3.5t1.5 -5.5q0 -27 -10.5 -49t-27.5 -38t-38.5 -25t-42.5 -9q-20 0 -39.5 9t-34.5 23.5t-24.5 33.5t-9.5 39q0 52 24 92t56.5 66t65.5 39.5t51 13.5z" />
<glyph unicode="&#xf40;&#xf80;" horiz-adv-x="680" d="M636 744l-11 -44t-11.5 -47.5t-9.5 -44t-4 -33.5v-918q0 -9 -6 -13t-15 -4q-5 0 -11.5 4t-7.5 13l-49 907q-1 16 -3.5 31t-6.5 27t-9 19t-11 7h-94q-2 -35 -2.5 -55.5t-1 -35t-1 -26t-1.5 -27.5q-4 -38 -5 -90.5t-3.5 -100t-8.5 -80.5t-19 -33q-5 0 -9.5 31t-9.5 76 t-9 96.5t-7 92.5q-1 15 -4 40.5t-7 50.5t-9 43t-10 18h-46q-12 0 -18 -13.5t-8 -23.5q-11 -40 -29.5 -83.5t-43.5 -80t-54.5 -60t-62.5 -23.5q-12 0 -12 11q0 2 4 5.5t8 5.5q17 9 37 42.5t37 75t28.5 81.5t11.5 63h-43q-18 0 -23 3t-5 15q0 4 4.5 15t10.5 23t12 23.5t9 16.5 h539zM105 802q44 53 84.5 112.5t78.5 109t73 82t67 32.5q12 0 33.5 -3t46 -11.5t50.5 -23.5t46.5 -38.5t34 -58t13.5 -80.5q0 -20 -8.5 -38.5t-22 -32t-30.5 -21.5t-34 -8q-21 0 -42 7.5t-37 22t-26 35.5t-10 48q0 2 1.5 6.5t5.5 4.5t11 -5t17 -10.5t22 -10.5t27 -5 q17 0 28.5 6t18.5 15.5t10 21t3 22.5q0 13 -9.5 25t-24.5 21t-33.5 14.5t-35.5 5.5q-31 0 -65 -19t-68.5 -48t-67 -62t-60 -62t-48.5 -48t-32 -19q-5 0 -11 3t-6 10z" />
<glyph unicode="&#xf40;&#xf74;" horiz-adv-x="680" d="M635 744l-11 -44t-11.5 -47.5t-9 -44t-3.5 -33.5v-629q16 -5 31 -18.5t26 -31t18 -36.5t7 -34q0 -34 -14 -68t-39 -61t-59.5 -43.5t-74.5 -16.5q-37 0 -78.5 32t-86.5 83.5t-92 116.5t-93 132q-6 9 -24 35.5t-36.5 55t-33 51.5t-14.5 25t4 8t10 6q11 0 31.5 -21t47.5 -57 q26 -34 58.5 -75t68 -82t73 -79.5t73.5 -68t69.5 -47t61.5 -17.5q6 0 20 2.5t27.5 8t24 14.5t10.5 23q0 15 -7.5 28.5t-20.5 24t-30 17t-36 6.5q-13 0 -31 -10t-36 -10q-6 0 -6 13q0 11 6 28.5t19 34t31.5 29t44.5 12.5l-39 608q-1 16 -3.5 31t-6.5 27t-9 19t-11 7h-94 q-3 -66 -4.5 -128t-2.5 -124v-18.5t-1 -37.5t-3.5 -46t-6.5 -45t-10 -34.5t-15 -13.5q-3 0 -6.5 17t-7.5 45t-7.5 63.5t-7 72.5t-6.5 72.5t-5 62.5q-1 15 -3.5 34t-6.5 36.5t-8.5 29.5t-8.5 14h-70q0 -41 -14 -85.5t-39 -81.5t-59.5 -61t-76.5 -24q-6 0 -9 0.5t-3 5.5 q0 2 4 4l8 4q17 9 37 39t37 66.5t28.5 73t11.5 59.5h-43q-20 0 -24 3t-4 15q0 4 4.5 15t10.5 23t12 23.5t9 16.5h538z" />
<glyph unicode="&#xf40;&#xf7a;" horiz-adv-x="680" d="M636 744l-11 -44t-11.5 -47.5t-9.5 -44t-4 -33.5v-918q0 -9 -6 -13t-15 -4q-5 0 -11.5 4t-7.5 13l-49 907q-1 16 -3.5 31t-6.5 27t-9 19t-11 7h-94q-2 -35 -2.5 -55.5t-1 -35t-1 -26t-1.5 -27.5q-4 -38 -5 -90.5t-3.5 -100t-8.5 -80.5t-19 -33q-5 0 -9.5 31t-9.5 76 t-9 96.5t-7 92.5q-1 15 -4 40.5t-7 50.5t-9 43t-10 18h-46q-12 0 -18 -13.5t-8 -23.5q-11 -40 -29.5 -83.5t-43.5 -80t-54.5 -60t-62.5 -23.5q-12 0 -12 11q0 2 4 5.5t8 5.5q17 9 37 42.5t37 75t28.5 81.5t11.5 63h-43q-18 0 -23 3t-5 15q0 4 4.5 15t10.5 23t12 23.5t9 16.5 h539zM613 793q0 -13 -11 -13t-33 13.5t-52 34t-66.5 45t-75.5 47.5q-30 18 -68 36.5t-75.5 33.5t-71.5 24.5t-56 9.5h-17t-20 -2q0 13 7.5 30t18 32t22 25.5t19.5 10.5q40 0 83 -14.5t86 -38t84.5 -54t79 -63t69 -64.5t54.5 -59l18 -21q5 -5 5 -13z" />
<glyph unicode="&#xf40;&#xf7c;" horiz-adv-x="680" d="M636 744l-11 -44t-11.5 -47.5t-9.5 -44t-4 -33.5v-918q0 -9 -6 -13t-15 -4q-5 0 -11.5 4t-7.5 13l-49 907q-1 16 -3.5 31t-6.5 27t-9 19t-11 7h-94q-2 -35 -2.5 -55.5t-1 -35t-1 -26t-1.5 -27.5q-4 -38 -5 -90.5t-3.5 -100t-8.5 -80.5t-19 -33q-5 0 -9.5 31t-9.5 76 t-9 96.5t-7 92.5q-1 15 -4 40.5t-7 50.5t-9 43t-10 18h-46q-12 0 -18 -13.5t-8 -23.5q-11 -40 -29.5 -83.5t-43.5 -80t-54.5 -60t-62.5 -23.5q-12 0 -12 11q0 2 4 5.5t8 5.5q17 9 37 42.5t37 75t28.5 81.5t11.5 63h-43q-18 0 -23 3t-5 15q0 4 4.5 15t10.5 23t12 23.5t9 16.5 h539zM-9 947h-17t-20 -2q0 13 7 30t17 32t21 25.5t19 10.5q33 0 77.5 -17t87.5 -46.5t78 -68t49 -81.5l3 8q9 39 20 76t34.5 65.5t65 46t111.5 17.5q34 0 59 1t46 6t42.5 16t48.5 31q13 0 13 -6q0 -20 -24.5 -45t-60.5 -47t-76.5 -36.5t-73.5 -14.5q-38 0 -70.5 -14 t-56.5 -36t-38 -49t-14 -52q0 -8 -9.5 -13t-14.5 -5q-10 0 -21 22q-16 33 -51 59.5t-78 46t-89 30t-85 10.5z" />
<glyph unicode="&#xf40;&#xfb1;" d="M604 744q-5 -20 -9.5 -44t-7.5 -47.5t-5 -44t-2 -33.5v-292q0 -32 -23.5 -61t-57 -50.5t-69.5 -34t-61 -12.5q-53 0 -109.5 12.5t-112.5 35.5q38 -61 92 -89.5t114 -28.5q64 0 126 30t137 92q9 8 20 15t20 7q5 0 7.5 -3.5t2.5 -7.5q0 -5 -4.5 -11t-10 -12t-11.5 -11.5 t-9 -9.5q-33 -38 -65.5 -71.5t-67.5 -58.5t-76 -39.5t-92 -14.5q-59 0 -99 25t-69 63t-51 84t-46 88q-2 4 -5 11t-3 12q0 2 3.5 5.5t10.5 3.5q8 0 32 -8q20 -7 49 -17.5t63 -20.5t70 -17t71 -7q31 0 62.5 11.5t56.5 29t41 37t16 35.5l-41 269q-3 16 -6 31t-7 27t-9.5 19 t-12.5 7h-87q-2 -29 -4.5 -58.5t-2.5 -58.5v-31.5t-1 -47.5t-3.5 -54t-6.5 -51t-10 -37.5t-15 -14.5q-5 0 -10 23t-10.5 58.5t-10 79t-7.5 84.5q-1 15 -4 33t-7 34.5t-9 27.5t-9 13h-65q0 -41 -13.5 -80.5t-38 -71t-58.5 -50.5t-76 -19q-12 0 -12 11q0 2 4 5.5t8 5.5 q17 9 37 33t37 53t28.5 59.5t11.5 53.5h-43q-18 0 -23 3t-5 15q0 4 4.5 15t10.5 23t12 23.5t9 16.5h517z" />
<glyph unicode="&#xf30b;&#xf72;" d="M604 744q-5 -20 -9.5 -44t-7.5 -47.5t-5 -44t-2 -33.5v-292q0 -32 -23.5 -61t-57 -50.5t-69.5 -34t-61 -12.5q-53 0 -109.5 12.5t-112.5 35.5q38 -61 92 -89.5t114 -28.5q64 0 126 30t137 92q9 8 20 15t20 7q5 0 7.5 -3.5t2.5 -7.5q0 -5 -4.5 -11t-10 -12t-11.5 -11.5 t-9 -9.5q-33 -38 -65.5 -71.5t-67.5 -58.5t-76 -39.5t-92 -14.5q-59 0 -99 25t-69 63t-51 84t-46 88q-2 4 -5 11t-3 12q0 2 3.5 5.5t10.5 3.5q8 0 32 -8q20 -7 49 -17.5t63 -20.5t70 -17t71 -7q31 0 62.5 11.5t56.5 29t41 37t16 35.5l-41 269q-3 16 -6 31t-7 27t-9.5 19 t-12.5 7h-87q-2 -29 -4.5 -58.5t-2.5 -58.5v-31.5t-1 -47.5t-3.5 -54t-6.5 -51t-10 -37.5t-15 -14.5q-5 0 -10 23t-10.5 58.5t-10 79t-7.5 84.5q-1 15 -4 33t-7 34.5t-9 27.5t-9 13h-65q0 -41 -13.5 -80.5t-38 -71t-58.5 -50.5t-76 -19q-12 0 -12 11q0 2 4 5.5t8 5.5 q17 9 37 33t37 53t28.5 59.5t11.5 53.5h-43q-18 0 -23 3t-5 15q0 4 4.5 15t10.5 23t12 23.5t9 16.5h517zM247 1166q41 0 87 -38t93.5 -95t93.5 -122.5t88 -120.5q0 -7 -6.5 -9.5t-11.5 -2.5q-11 0 -34 21.5t-54.5 54t-69 70.5t-79 70.5t-84 54t-83.5 21.5q-10 0 -22.5 -4 t-23 -11.5t-18 -18t-7.5 -23.5q0 -11 3.5 -23t12 -22.5t22.5 -17.5t35 -7q19 0 33 6t23.5 12.5t15.5 12.5t9 6q4 0 5.5 -3.5t1.5 -5.5q0 -27 -10.5 -49t-27.5 -38t-38.5 -25t-42.5 -9q-20 0 -39.5 9t-34.5 23.5t-24.5 33.5t-9.5 39q0 52 24 92t56.5 66t65.5 39.5t51 13.5z " />
<glyph unicode="&#xf30b;&#xf80;" d="M65 802q44 53 84.5 112.5t78.5 109t73 82t67 32.5q12 0 33.5 -3t46 -11.5t50.5 -23.5t46.5 -38.5t34 -58t13.5 -80.5q0 -20 -8.5 -38.5t-22 -32t-30.5 -21.5t-34 -8q-21 0 -42 7.5t-37 22t-26 35.5t-10 48q0 2 1.5 6.5t5.5 4.5t11 -5t17 -10.5t22 -10.5t27 -5 q17 0 28.5 6t18.5 15.5t10 21t3 22.5q0 13 -9.5 25t-24.5 21t-33.5 14.5t-35.5 5.5q-31 0 -65 -19t-68.5 -48t-67 -62t-60 -62t-48.5 -48t-32 -19q-5 0 -11 3t-6 10zM604 744q-5 -20 -9.5 -44t-7.5 -47.5t-5 -44t-2 -33.5v-292q0 -32 -23.5 -61t-57 -50.5t-69.5 -34 t-61 -12.5q-53 0 -109.5 12.5t-112.5 35.5q38 -61 92 -89.5t114 -28.5q64 0 126 30t137 92q9 8 20 15t20 7q5 0 7.5 -3.5t2.5 -7.5q0 -5 -4.5 -11t-10 -12t-11.5 -11.5t-9 -9.5q-33 -38 -65.5 -71.5t-67.5 -58.5t-76 -39.5t-92 -14.5q-59 0 -99 25t-69 63t-51 84t-46 88 q-2 4 -5 11t-3 12q0 2 3.5 5.5t10.5 3.5q8 0 32 -8q20 -7 49 -17.5t63 -20.5t70 -17t71 -7q31 0 62.5 11.5t56.5 29t41 37t16 35.5l-41 269q-3 16 -6 31t-7 27t-9.5 19t-12.5 7h-87q-2 -29 -4.5 -58.5t-2.5 -58.5v-31.5t-1 -47.5t-3.5 -54t-6.5 -51t-10 -37.5t-15 -14.5 q-5 0 -10 23t-10.5 58.5t-10 79t-7.5 84.5q-1 15 -4 33t-7 34.5t-9 27.5t-9 13h-65q0 -41 -13.5 -80.5t-38 -71t-58.5 -50.5t-76 -19q-12 0 -12 11q0 2 4 5.5t8 5.5q17 9 37 33t37 53t28.5 59.5t11.5 53.5h-43q-18 0 -23 3t-5 15q0 4 4.5 15t10.5 23t12 23.5t9 16.5h517z " />
<glyph unicode="&#xf30b;&#xf74;" d="M603 744q-5 -20 -9.5 -44t-7.5 -47.5t-5 -44t-2 -33.5v-292q0 -32 -23.5 -61t-57 -50.5t-69.5 -34t-61 -12.5q-53 0 -109.5 12.5t-112.5 35.5q38 -61 92 -89.5t114 -28.5q64 0 126 30t137 92q9 8 20 15t20 7q5 0 7.5 -3.5t2.5 -7.5q0 -5 -4.5 -11t-10 -12t-11.5 -11.5 t-9 -9.5l-21 -24l-74 -142q12 3 26 3q31 0 56.5 -12.5t44 -34t28.5 -50t10 -59.5q0 -39 -16.5 -72.5t-42.5 -58.5t-58.5 -39t-65.5 -14q-39 0 -74 16.5t-69.5 44.5t-70 64t-76.5 74t-88 76t-105 70q-8 5 -14 11t-6 14q0 5 4.5 8t8.5 3q16 0 34 -7q43 -19 89.5 -47.5t94 -60 t94 -63t90 -56.5t82 -41t70.5 -16q29 0 50 14t21 52q0 17 -10.5 32t-27 26t-37 17.5t-40.5 6.5q-12 0 -24 -5t-22.5 -11t-19.5 -11t-17 -5q-5 0 -5.5 11.5t-0.5 20.5q0 11 5.5 26.5t17.5 31.5l49 94q-40 -32 -85.5 -51.5t-105.5 -19.5q-59 0 -99 25t-69 63t-51 84t-46 88 q-2 4 -5 11t-3 12q0 2 3.5 5.5t10.5 3.5q8 0 32 -8q20 -7 49 -17.5t63 -20.5t70 -17t71 -7q31 0 62.5 11.5t56.5 29t41 37t16 35.5l-41 269q-3 16 -6 31t-7 27t-9.5 19t-12.5 7h-97q-2 -29 -4.5 -58.5t-2.5 -58.5v-31.5t-1 -47.5t-3.5 -54t-6.5 -51t-10 -37.5t-15 -14.5 q-5 0 -10 23t-10.5 58.5t-10 79t-7.5 84.5q-1 15 -4 33t-7 34.5t-9 27.5t-9 13h-58q0 -41 -14.5 -80t-40.5 -69.5t-61 -49t-77 -18.5q-12 0 -12 9q0 2 4 4.5t8 4.5q17 9 37 33t37 53t28.5 59.5t11.5 53.5h-43q-18 0 -23 3t-5 15q0 4 4.5 15t10.5 23t12 23.5t9 16.5h527z" />
<glyph unicode="&#xf30b;&#xf7a;" d="M573 793q0 -13 -11 -13t-33 13.5t-52 34t-66.5 45t-75.5 47.5q-30 18 -68 36.5t-75.5 33.5t-71.5 24.5t-56 9.5h-17t-20 -2q0 13 7.5 30t18 32t22 25.5t19.5 10.5q40 0 83 -14.5t86 -38t84.5 -54t79 -63t69 -64.5t54.5 -59l18 -21q5 -5 5 -13zM604 744q-5 -20 -9.5 -44 t-7.5 -47.5t-5 -44t-2 -33.5v-292q0 -32 -23.5 -61t-57 -50.5t-69.5 -34t-61 -12.5q-53 0 -109.5 12.5t-112.5 35.5q38 -61 92 -89.5t114 -28.5q64 0 126 30t137 92q9 8 20 15t20 7q5 0 7.5 -3.5t2.5 -7.5q0 -5 -4.5 -11t-10 -12t-11.5 -11.5t-9 -9.5q-33 -38 -65.5 -71.5 t-67.5 -58.5t-76 -39.5t-92 -14.5q-59 0 -99 25t-69 63t-51 84t-46 88q-2 4 -5 11t-3 12q0 2 3.5 5.5t10.5 3.5q8 0 32 -8q20 -7 49 -17.5t63 -20.5t70 -17t71 -7q31 0 62.5 11.5t56.5 29t41 37t16 35.5l-41 269q-3 16 -6 31t-7 27t-9.5 19t-12.5 7h-87q-2 -29 -4.5 -58.5 t-2.5 -58.5v-31.5t-1 -47.5t-3.5 -54t-6.5 -51t-10 -37.5t-15 -14.5q-5 0 -10 23t-10.5 58.5t-10 79t-7.5 84.5q-1 15 -4 33t-7 34.5t-9 27.5t-9 13h-65q0 -41 -13.5 -80.5t-38 -71t-58.5 -50.5t-76 -19q-12 0 -12 11q0 2 4 5.5t8 5.5q17 9 37 33t37 53t28.5 59.5t11.5 53.5 h-43q-18 0 -23 3t-5 15q0 4 4.5 15t10.5 23t12 23.5t9 16.5h517z" />
<glyph unicode="&#xf30b;&#xf7c;" d="M-14 947h-17t-20 -2q0 13 7 30t17 32t21 25.5t19 10.5q33 0 77.5 -17t87.5 -46.5t78 -68t49 -81.5l3 8q9 39 20 76t34.5 65.5t65 46t111.5 17.5q34 0 59 1t46 6t42.5 16t48.5 31q13 0 13 -6q0 -20 -24.5 -45t-60.5 -47t-76.5 -36.5t-73.5 -14.5q-38 0 -70.5 -14 t-56.5 -36t-38 -49t-14 -52q0 -8 -9.5 -13t-14.5 -5q-10 0 -21 22q-16 33 -51 59.5t-78 46t-89 30t-85 10.5zM604 744q-5 -20 -9.5 -44t-7.5 -47.5t-5 -44t-2 -33.5v-292q0 -32 -23.5 -61t-57 -50.5t-69.5 -34t-61 -12.5q-53 0 -109.5 12.5t-112.5 35.5q38 -61 92 -89.5 t114 -28.5q64 0 126 30t137 92q9 8 20 15t20 7q5 0 7.5 -3.5t2.5 -7.5q0 -5 -4.5 -11t-10 -12t-11.5 -11.5t-9 -9.5q-33 -38 -65.5 -71.5t-67.5 -58.5t-76 -39.5t-92 -14.5q-59 0 -99 25t-69 63t-51 84t-46 88q-2 4 -5 11t-3 12q0 2 3.5 5.5t10.5 3.5q8 0 32 -8 q20 -7 49 -17.5t63 -20.5t70 -17t71 -7q31 0 62.5 11.5t56.5 29t41 37t16 35.5l-41 269q-3 16 -6 31t-7 27t-9.5 19t-12.5 7h-87q-2 -29 -4.5 -58.5t-2.5 -58.5v-31.5t-1 -47.5t-3.5 -54t-6.5 -51t-10 -37.5t-15 -14.5q-5 0 -10 23t-10.5 58.5t-10 79t-7.5 84.5q-1 15 -4 33 t-7 34.5t-9 27.5t-9 13h-65q0 -41 -13.5 -80.5t-38 -71t-58.5 -50.5t-76 -19q-12 0 -12 11q0 2 4 5.5t8 5.5q17 9 37 33t37 53t28.5 59.5t11.5 53.5h-43q-18 0 -23 3t-5 15q0 4 4.5 15t10.5 23t12 23.5t9 16.5h517z" />
<glyph unicode="&#xf40;&#xfb2;" horiz-adv-x="680" d="M636 744l-11 -44t-11.5 -47.5t-9.5 -44t-4 -33.5v-611l-62 37q-41 25 -73 45t-68.5 33.5t-84.5 21t-121 7.5q-11 0 -27 -1t-33 -2.5t-33 -4t-26 -5.5q0 26 10.5 48t28.5 38t42 25t51 9q51 0 104 -15t100.5 -40t85 -56.5t58.5 -64.5v40q0 15 -2.5 50t-7 82.5t-11 103.5 t-13.5 114.5t-15 114.5t-16 104h-109q-8 -41 -10 -95.5t-2 -109.5q0 -7 -1 -34.5t-4.5 -57.5t-10.5 -54t-20 -24q-5 0 -9.5 18.5t-9.5 48.5t-9 68.5t-7 79.5q-1 15 -3.5 41.5t-5.5 52t-7 45t-8 21.5h-61q-2 -41 -16.5 -83t-39.5 -77t-59.5 -57t-76.5 -22q-12 0 -12 10 q0 2 4 4l8 4q17 9 37 38t37 64t28.5 68t11.5 51h-43q-18 0 -23 3t-5 15q0 4 4.5 15t10.5 23t12 23.5t9 16.5h539z" />
<glyph unicode="&#xf311;&#xf72;" horiz-adv-x="680" d="M636 744l-11 -44t-11.5 -47.5t-9.5 -44t-4 -33.5v-611l-62 37q-41 25 -73 45t-68.5 33.5t-84.5 21t-121 7.5q-11 0 -27 -1t-33 -2.5t-33 -4t-26 -5.5q0 26 10.5 48t28.5 38t42 25t51 9q51 0 104 -15t100.5 -40t85 -56.5t58.5 -64.5v40q0 15 -2.5 50t-7 82.5t-11 103.5 t-13.5 114.5t-15 114.5t-16 104h-109q-8 -41 -10 -95.5t-2 -109.5q0 -7 -1 -34.5t-4.5 -57.5t-10.5 -54t-20 -24q-5 0 -9.5 18.5t-9.5 48.5t-9 68.5t-7 79.5q-1 15 -3.5 41.5t-5.5 52t-7 45t-8 21.5h-61q-2 -41 -16.5 -83t-39.5 -77t-59.5 -57t-76.5 -22q-12 0 -12 10 q0 2 4 4l8 4q17 9 37 38t37 64t28.5 68t11.5 51h-43q-18 0 -23 3t-5 15q0 4 4.5 15t10.5 23t12 23.5t9 16.5h539zM257 1166q41 0 87 -38t93.5 -95t93.5 -122.5t88 -120.5q0 -7 -6.5 -9.5t-11.5 -2.5q-11 0 -34 21.5t-54.5 54t-69 70.5t-79 70.5t-84 54t-83.5 21.5 q-10 0 -22.5 -4t-23 -11.5t-18 -18t-7.5 -23.5q0 -11 3.5 -23t12 -22.5t22.5 -17.5t35 -7q19 0 33 6t23.5 12.5t15.5 12.5t9 6q4 0 5.5 -3.5t1.5 -5.5q0 -27 -10.5 -49t-27.5 -38t-38.5 -25t-42.5 -9q-20 0 -39.5 9t-34.5 23.5t-24.5 33.5t-9.5 39q0 52 24 92t56.5 66 t65.5 39.5t51 13.5z" />
<glyph unicode="&#xf311;&#xf80;" horiz-adv-x="680" d="M636 744l-11 -44t-11.5 -47.5t-9.5 -44t-4 -33.5v-611l-62 37q-41 25 -73 45t-68.5 33.5t-84.5 21t-121 7.5q-11 0 -27 -1t-33 -2.5t-33 -4t-26 -5.5q0 26 10.5 48t28.5 38t42 25t51 9q51 0 104 -15t100.5 -40t85 -56.5t58.5 -64.5v40q0 15 -2.5 50t-7 82.5t-11 103.5 t-13.5 114.5t-15 114.5t-16 104h-109q-8 -41 -10 -95.5t-2 -109.5q0 -7 -1 -34.5t-4.5 -57.5t-10.5 -54t-20 -24q-5 0 -9.5 18.5t-9.5 48.5t-9 68.5t-7 79.5q-1 15 -3.5 41.5t-5.5 52t-7 45t-8 21.5h-61q-2 -41 -16.5 -83t-39.5 -77t-59.5 -57t-76.5 -22q-12 0 -12 10 q0 2 4 4l8 4q17 9 37 38t37 64t28.5 68t11.5 51h-43q-18 0 -23 3t-5 15q0 4 4.5 15t10.5 23t12 23.5t9 16.5h539zM75 802q44 53 84.5 112.5t78.5 109t73 82t67 32.5q12 0 33.5 -3t46 -11.5t50.5 -23.5t46.5 -38.5t34 -58t13.5 -80.5q0 -20 -8.5 -38.5t-22 -32t-30.5 -21.5 t-34 -8q-21 0 -42 7.5t-37 22t-26 35.5t-10 48q0 2 1.5 6.5t5.5 4.5t11 -5t17 -10.5t22 -10.5t27 -5q17 0 28.5 6t18.5 15.5t10 21t3 22.5q0 13 -9.5 25t-24.5 21t-33.5 14.5t-35.5 5.5q-31 0 -65 -19t-68.5 -48t-67 -62t-60 -62t-48.5 -48t-32 -19q-5 0 -11 3t-6 10z" />
<glyph unicode="&#xf311;&#xf74;" horiz-adv-x="680" d="M682 -184q0 -39 -13.5 -71.5t-36.5 -55.5t-52.5 -36t-62.5 -13q-29 0 -59.5 18.5t-63.5 48t-69 67t-75.5 76t-83 74.5t-92.5 63q-8 5 -14 11t-6 14q0 5 4.5 8t8.5 3q16 0 34 -7q43 -19 85.5 -47.5t83 -60.5t80 -63.5t76.5 -57t71 -41.5t66 -16q29 0 50 14t21 52 q0 17 -10.5 30.5t-27 23.5t-37 15t-40.5 5q-21 0 -39 -8q-3 -1 -9 -5t-12.5 -8t-13 -7.5t-9.5 -3.5q-5 0 -5.5 11.5t-0.5 20.5q0 12 6.5 29.5t20.5 33.5t35.5 27.5t50.5 11.5q31 0 56.5 -12.5t44 -34t28.5 -50t10 -59.5zM636 744l-11 -44t-11.5 -47.5t-9.5 -44t-4 -33.5 v-611l-62 37q-41 25 -76.5 45t-76 33.5t-92 21t-124.5 7.5q-11 0 -27 -1t-33 -2.5t-33 -4t-26 -5.5q0 26 10.5 48t28.5 38t42 25t51 9q51 0 107.5 -15t108 -40t92.5 -56.5t62 -64.5v48q0 17 -3 50.5t-8.5 78.5t-12 99t-14 110.5t-14.5 113.5t-13 109h-108 q-8 -41 -10.5 -95.5t-2.5 -109.5q0 -7 -1 -34.5t-4.5 -57.5t-10.5 -54t-20 -24q-5 0 -10 18.5t-10 48.5t-9.5 68.5t-7.5 79.5q-1 15 -3.5 41.5t-5.5 52t-7 45t-8 21.5h-65q0 -41 -13.5 -83t-38 -75.5t-58.5 -55t-76 -21.5q-6 0 -9 0.5t-3 5.5q0 2 4 4l8 4q17 9 37 38t37 64 t28.5 68t11.5 51h-43q-18 0 -23 3t-5 15q0 4 4.5 15t10.5 23t12 23.5t9 16.5h539z" />
<glyph unicode="&#xf311;&#xf7a;" horiz-adv-x="680" d="M636 744l-11 -44t-11.5 -47.5t-9.5 -44t-4 -33.5v-611l-62 37q-41 25 -73 45t-68.5 33.5t-84.5 21t-121 7.5q-11 0 -27 -1t-33 -2.5t-33 -4t-26 -5.5q0 26 10.5 48t28.5 38t42 25t51 9q51 0 104 -15t100.5 -40t85 -56.5t58.5 -64.5v40q0 15 -2.5 50t-7 82.5t-11 103.5 t-13.5 114.5t-15 114.5t-16 104h-109q-8 -41 -10 -95.5t-2 -109.5q0 -7 -1 -34.5t-4.5 -57.5t-10.5 -54t-20 -24q-5 0 -9.5 18.5t-9.5 48.5t-9 68.5t-7 79.5q-1 15 -3.5 41.5t-5.5 52t-7 45t-8 21.5h-61q-2 -41 -16.5 -83t-39.5 -77t-59.5 -57t-76.5 -22q-12 0 -12 10 q0 2 4 4l8 4q17 9 37 38t37 64t28.5 68t11.5 51h-43q-18 0 -23 3t-5 15q0 4 4.5 15t10.5 23t12 23.5t9 16.5h539zM613 793q0 -13 -11 -13t-33 13.5t-52 34t-66.5 45t-75.5 47.5q-30 18 -68 36.5t-75.5 33.5t-71.5 24.5t-56 9.5h-17t-20 -2q0 13 7.5 30t18 32t22 25.5 t19.5 10.5q40 0 83 -14.5t86 -38t84.5 -54t79 -63t69 -64.5t54.5 -59l18 -21q5 -5 5 -13z" />
<glyph unicode="&#xf311;&#xf7c;" horiz-adv-x="680" d="M636 744l-11 -44t-11.5 -47.5t-9.5 -44t-4 -33.5v-611l-62 37q-41 25 -73 45t-68.5 33.5t-84.5 21t-121 7.5q-11 0 -27 -1t-33 -2.5t-33 -4t-26 -5.5q0 26 10.5 48t28.5 38t42 25t51 9q51 0 104 -15t100.5 -40t85 -56.5t58.5 -64.5v40q0 15 -2.5 50t-7 82.5t-11 103.5 t-13.5 114.5t-15 114.5t-16 104h-109q-8 -41 -10 -95.5t-2 -109.5q0 -7 -1 -34.5t-4.5 -57.5t-10.5 -54t-20 -24q-5 0 -9.5 18.5t-9.5 48.5t-9 68.5t-7 79.5q-1 15 -3.5 41.5t-5.5 52t-7 45t-8 21.5h-61q-2 -41 -16.5 -83t-39.5 -77t-59.5 -57t-76.5 -22q-12 0 -12 10 q0 2 4 4l8 4q17 9 37 38t37 64t28.5 68t11.5 51h-43q-18 0 -23 3t-5 15q0 4 4.5 15t10.5 23t12 23.5t9 16.5h539zM52 947h-17t-20 -2q0 13 7 30t17 32t21 25.5t19 10.5q25 0 63.5 -16t77.5 -44t72.5 -65.5t48.5 -80.5l3 8q9 39 20 75t33.5 63.5t62 43.5t105.5 16q27 0 45 1 t34 6t34.5 16t45.5 31q13 0 13 -6q0 -20 -21.5 -45t-52.5 -47t-65 -36.5t-59 -14.5q-34 0 -64.5 -14t-54 -36t-37 -49t-13.5 -52q0 -8 -9.5 -13t-14.5 -5q-10 0 -21 22q-17 33 -50.5 59.5t-72.5 46t-79 30t-71 10.5z" />
<glyph unicode="&#xf40;&#xfb3;" d="M214 144q-30 0 -53 -7t-39 -17.5t-24 -22.5t-8 -23q0 -22 6.5 -36t15 -27t15 -27.5t6.5 -36.5q0 -15 -7 -34t-16.5 -35.5t-20 -27.5t-17.5 -11q-6 0 -8 2.5t-2 4.5t1 5.5t1 5.5q0 24 -6.5 44t-14 40t-13.5 41t-6 47q0 42 12.5 80t35.5 67t56 46.5t74 17.5h181l-23 -48 q17 -11 26.5 -40t9.5 -71q0 -31 -14 -64.5t-58 -65.5q33 -5 64.5 -20t59.5 -36.5t52 -47.5t42 -53l-24 230q-4 38 -8.5 61.5t-10.5 36.5t-13 17.5t-16 4.5l45 96h17l-49 408h-97q-2 -20 -4.5 -40.5t-3.5 -61.5q0 -3 -1.5 -22t-4.5 -45.5t-7.5 -56t-10.5 -54.5t-13 -41.5 t-16 -16.5q-4 0 -7 24.5t-6 62t-5.5 82.5t-5.5 85q-1 15 -4 30t-8 27t-11.5 19.5t-14.5 7.5h-57q-2 -39 -16 -83.5t-37.5 -81.5t-55 -61.5t-68.5 -24.5q-11 0 -11 9q0 1 3.5 4t7.5 6.5t8 6.5t6 4q16 12 31.5 41.5t28 64t20.5 67t9 48.5h-44q-18 0 -23 3t-5 15q0 4 4.5 15 t10.5 23t12 23.5t9 16.5h519l-11 -44t-11.5 -47.5t-9 -44t-3.5 -33.5v-335h46l-11 -44t-11.5 -47.5t-9.5 -44t-4 -33.5v-330q0 -10 -7 -15.5t-16 -5.5q-5 0 -13 6t-12 10q-21 21 -44.5 42.5t-54 38.5t-70 28t-92.5 11q-42 0 -67.5 -4t-33.5 -8q0 21 5.5 40.5t17.5 34.5 t31 24t45 9q17 13 31 36.5t14 53.5q0 13 -3.5 30.5t-15 33.5t-33 27t-58.5 11z" />
<glyph unicode="&#xf317;&#xf72;" d="M214 144q-30 0 -53 -7t-39 -17.5t-24 -22.5t-8 -23q0 -22 6.5 -36t15 -27t15 -27.5t6.5 -36.5q0 -15 -7 -34t-16.5 -35.5t-20 -27.5t-17.5 -11q-6 0 -8 2.5t-2 4.5t1 5.5t1 5.5q0 24 -6.5 44t-14 40t-13.5 41t-6 47q0 42 12.5 80t35.5 67t56 46.5t74 17.5h181l-23 -48 q17 -11 26.5 -40t9.5 -71q0 -31 -14 -64.5t-58 -65.5q33 -5 64.5 -20t59.5 -36.5t52 -47.5t42 -53l-24 230q-4 38 -8.5 61.5t-10.5 36.5t-13 17.5t-16 4.5l45 96h17l-49 408h-97q-2 -20 -4.5 -40.5t-3.5 -61.5q0 -3 -1.5 -22t-4.5 -45.5t-7.5 -56t-10.5 -54.5t-13 -41.5 t-16 -16.5q-4 0 -7 24.5t-6 62t-5.5 82.5t-5.5 85q-1 15 -4 30t-8 27t-11.5 19.5t-14.5 7.5h-57q-2 -39 -16 -83.5t-37.5 -81.5t-55 -61.5t-68.5 -24.5q-11 0 -11 9q0 1 3.5 4t7.5 6.5t8 6.5t6 4q16 12 31.5 41.5t28 64t20.5 67t9 48.5h-44q-18 0 -23 3t-5 15q0 4 4.5 15 t10.5 23t12 23.5t9 16.5h519l-11 -44t-11.5 -47.5t-9 -44t-3.5 -33.5v-335h46l-11 -44t-11.5 -47.5t-9.5 -44t-4 -33.5v-330q0 -10 -7 -15.5t-16 -5.5q-5 0 -13 6t-12 10q-21 21 -44.5 42.5t-54 38.5t-70 28t-92.5 11q-42 0 -67.5 -4t-33.5 -8q0 21 5.5 40.5t17.5 34.5 t31 24t45 9q17 13 31 36.5t14 53.5q0 13 -3.5 30.5t-15 33.5t-33 27t-58.5 11zM247 1166q41 0 87 -38t93.5 -95t93.5 -122.5t88 -120.5q0 -7 -6.5 -9.5t-11.5 -2.5q-11 0 -34 21.5t-54.5 54t-69 70.5t-79 70.5t-84 54t-83.5 21.5q-10 0 -22.5 -4t-23 -11.5t-18 -18 t-7.5 -23.5q0 -11 3.5 -23t12 -22.5t22.5 -17.5t35 -7q19 0 33 6t23.5 12.5t15.5 12.5t9 6q4 0 5.5 -3.5t1.5 -5.5q0 -27 -10.5 -49t-27.5 -38t-38.5 -25t-42.5 -9q-20 0 -39.5 9t-34.5 23.5t-24.5 33.5t-9.5 39q0 52 24 92t56.5 66t65.5 39.5t51 13.5z" />
<glyph unicode="&#xf317;&#xf80;" d="M214 144q-30 0 -53 -7t-39 -17.5t-24 -22.5t-8 -23q0 -22 6.5 -36t15 -27t15 -27.5t6.5 -36.5q0 -15 -7 -34t-16.5 -35.5t-20 -27.5t-17.5 -11q-6 0 -8 2.5t-2 4.5t1 5.5t1 5.5q0 24 -6.5 44t-14 40t-13.5 41t-6 47q0 42 12.5 80t35.5 67t56 46.5t74 17.5h181l-23 -48 q17 -11 26.5 -40t9.5 -71q0 -31 -14 -64.5t-58 -65.5q33 -5 64.5 -20t59.5 -36.5t52 -47.5t42 -53l-24 230q-4 38 -8.5 61.5t-10.5 36.5t-13 17.5t-16 4.5l45 96h17l-49 408h-97q-2 -20 -4.5 -40.5t-3.5 -61.5q0 -3 -1.5 -22t-4.5 -45.5t-7.5 -56t-10.5 -54.5t-13 -41.5 t-16 -16.5q-4 0 -7 24.5t-6 62t-5.5 82.5t-5.5 85q-1 15 -4 30t-8 27t-11.5 19.5t-14.5 7.5h-57q-2 -39 -16 -83.5t-37.5 -81.5t-55 -61.5t-68.5 -24.5q-11 0 -11 9q0 1 3.5 4t7.5 6.5t8 6.5t6 4q16 12 31.5 41.5t28 64t20.5 67t9 48.5h-44q-18 0 -23 3t-5 15q0 4 4.5 15 t10.5 23t12 23.5t9 16.5h519l-11 -44t-11.5 -47.5t-9 -44t-3.5 -33.5v-335h46l-11 -44t-11.5 -47.5t-9.5 -44t-4 -33.5v-330q0 -10 -7 -15.5t-16 -5.5q-5 0 -13 6t-12 10q-21 21 -44.5 42.5t-54 38.5t-70 28t-92.5 11q-42 0 -67.5 -4t-33.5 -8q0 21 5.5 40.5t17.5 34.5 t31 24t45 9q17 13 31 36.5t14 53.5q0 13 -3.5 30.5t-15 33.5t-33 27t-58.5 11zM95 802q44 53 84.5 112.5t78.5 109t73 82t67 32.5q12 0 33.5 -3t46 -11.5t50.5 -23.5t46.5 -38.5t34 -58t13.5 -80.5q0 -20 -8.5 -38.5t-22 -32t-30.5 -21.5t-34 -8q-21 0 -42 7.5t-37 22 t-26 35.5t-10 48q0 2 1.5 6.5t5.5 4.5t11 -5t17 -10.5t22 -10.5t27 -5q17 0 28.5 6t18.5 15.5t10 21t3 22.5q0 13 -9.5 25t-24.5 21t-33.5 14.5t-35.5 5.5q-31 0 -65 -19t-68.5 -48t-67 -62t-60 -62t-48.5 -48t-32 -19q-5 0 -11 3t-6 10z" />
<glyph unicode="&#xf317;&#xf74;" d="M615 744l-11 -44t-11.5 -47.5t-9 -44t-3.5 -33.5v-264h36q-5 -20 -11 -41.5t-11.5 -42.5t-9.5 -39t-4 -31v-268q0 -10 -7 -16t-16 -6q-5 0 -13 6.5t-12 10.5q-20 17 -40 33t-47 28t-64 19.5t-90 7.5q-42 0 -67.5 -4t-33.5 -8q0 21 5.5 40.5t17.5 34.5t31 24t45 9 q18 18 30.5 42t12.5 47q0 29 -24 43.5t-84 14.5t-92 -14t-32 -36t6.5 -34.5t15 -23.5t15 -24t6.5 -35q0 -15 -7 -34t-16.5 -35.5t-20 -27.5t-17.5 -11q-6 0 -8 2.5t-2 4.5t1 5.5t1 5.5q0 24 -6.5 42.5t-14 36.5t-13.5 37.5t-6 45.5q0 27 12.5 60t35.5 62t56 49t74 20h181 l-23 -48q15 -23 23 -40t8 -42q0 -32 -15.5 -61.5t-51.5 -52.5q66 -10 116 -45t82 -80l-19 178q-2 19 -6.5 36t-10.5 30t-14 21t-17 8l42 96h25l-49 337h-106q-2 -20 -4.5 -40.5t-3.5 -61.5q0 -4 -1.5 -19t-4 -35.5t-6.5 -43.5t-9 -42.5t-11.5 -32t-14.5 -12.5 q-4 0 -7.5 16.5t-7 44.5t-6.5 65t-6 77q-1 15 -4 30t-8 27t-11.5 19.5t-14.5 7.5h-60q0 -39 -13.5 -73.5t-37 -60t-55.5 -40t-69 -14.5q-11 0 -11 10q0 2 11 9t14 9q16 12 31.5 36.5t28.5 50t21 47t8 26.5h-44q-18 0 -23 3t-5 15q0 4 4.5 15t10.5 23t12 23.5t9 16.5h526z M694 -298q0 -39 -16.5 -72.5t-42.5 -57.5t-58.5 -38t-65.5 -14q-39 0 -70.5 18.5t-61 48t-59.5 67.5t-66 77t-82 75.5t-106 64.5q-20 8 -20 25q0 5 4.5 9t8.5 4q16 0 34 -7q43 -19 87 -48t87 -61.5t84.5 -65t81 -58.5t75 -42.5t67.5 -16.5q28 0 49.5 13t21.5 51 q0 17 -10.5 32.5t-27 27.5t-37 19t-40.5 7q-17 0 -30.5 -5.5t-24 -12.5t-17.5 -12.5t-11 -5.5q-5 0 -5.5 11.5t-0.5 20.5q0 12 6.5 29t20.5 32t35.5 26t50.5 11q31 0 56.5 -12t44 -33t28.5 -48.5t10 -58.5z" />
<glyph unicode="&#xf317;&#xf7a;" d="M214 144q-30 0 -53 -7t-39 -17.5t-24 -22.5t-8 -23q0 -22 6.5 -36t15 -27t15 -27.5t6.5 -36.5q0 -15 -7 -34t-16.5 -35.5t-20 -27.5t-17.5 -11q-6 0 -8 2.5t-2 4.5t1 5.5t1 5.5q0 24 -6.5 44t-14 40t-13.5 41t-6 47q0 42 12.5 80t35.5 67t56 46.5t74 17.5h181l-23 -48 q17 -11 26.5 -40t9.5 -71q0 -31 -14 -64.5t-58 -65.5q33 -5 64.5 -20t59.5 -36.5t52 -47.5t42 -53l-24 230q-4 38 -8.5 61.5t-10.5 36.5t-13 17.5t-16 4.5l45 96h17l-49 408h-97q-2 -20 -4.5 -40.5t-3.5 -61.5q0 -3 -1.5 -22t-4.5 -45.5t-7.5 -56t-10.5 -54.5t-13 -41.5 t-16 -16.5q-4 0 -7 24.5t-6 62t-5.5 82.5t-5.5 85q-1 15 -4 30t-8 27t-11.5 19.5t-14.5 7.5h-57q-2 -39 -16 -83.5t-37.5 -81.5t-55 -61.5t-68.5 -24.5q-11 0 -11 9q0 1 3.5 4t7.5 6.5t8 6.5t6 4q16 12 31.5 41.5t28 64t20.5 67t9 48.5h-44q-18 0 -23 3t-5 15q0 4 4.5 15 t10.5 23t12 23.5t9 16.5h519l-11 -44t-11.5 -47.5t-9 -44t-3.5 -33.5v-335h46l-11 -44t-11.5 -47.5t-9.5 -44t-4 -33.5v-330q0 -10 -7 -15.5t-16 -5.5q-5 0 -13 6t-12 10q-21 21 -44.5 42.5t-54 38.5t-70 28t-92.5 11q-42 0 -67.5 -4t-33.5 -8q0 21 5.5 40.5t17.5 34.5 t31 24t45 9q17 13 31 36.5t14 53.5q0 13 -3.5 30.5t-15 33.5t-33 27t-58.5 11zM603 793q0 -13 -11 -13t-33 13.5t-52 34t-66.5 45t-75.5 47.5q-30 18 -68 36.5t-75.5 33.5t-71.5 24.5t-56 9.5h-17t-20 -2q0 13 7.5 30t18 32t22 25.5t19.5 10.5q40 0 83 -14.5t86 -38 t84.5 -54t79 -63t69 -64.5t54.5 -59l18 -21q5 -5 5 -13z" />
<glyph unicode="&#xf317;&#xf7c;" d="M214 144q-30 0 -53 -7t-39 -17.5t-24 -22.5t-8 -23q0 -22 6.5 -36t15 -27t15 -27.5t6.5 -36.5q0 -15 -7 -34t-16.5 -35.5t-20 -27.5t-17.5 -11q-6 0 -8 2.5t-2 4.5t1 5.5t1 5.5q0 24 -6.5 44t-14 40t-13.5 41t-6 47q0 42 12.5 80t35.5 67t56 46.5t74 17.5h181l-23 -48 q17 -11 26.5 -40t9.5 -71q0 -31 -14 -64.5t-58 -65.5q33 -5 64.5 -20t59.5 -36.5t52 -47.5t42 -53l-24 230q-4 38 -8.5 61.5t-10.5 36.5t-13 17.5t-16 4.5l45 96h17l-49 408h-97q-2 -20 -4.5 -40.5t-3.5 -61.5q0 -3 -1.5 -22t-4.5 -45.5t-7.5 -56t-10.5 -54.5t-13 -41.5 t-16 -16.5q-4 0 -7 24.5t-6 62t-5.5 82.5t-5.5 85q-1 15 -4 30t-8 27t-11.5 19.5t-14.5 7.5h-57q-2 -39 -16 -83.5t-37.5 -81.5t-55 -61.5t-68.5 -24.5q-11 0 -11 9q0 1 3.5 4t7.5 6.5t8 6.5t6 4q16 12 31.5 41.5t28 64t20.5 67t9 48.5h-44q-18 0 -23 3t-5 15q0 4 4.5 15 t10.5 23t12 23.5t9 16.5h519l-11 -44t-11.5 -47.5t-9 -44t-3.5 -33.5v-335h46l-11 -44t-11.5 -47.5t-9.5 -44t-4 -33.5v-330q0 -10 -7 -15.5t-16 -5.5q-5 0 -13 6t-12 10q-21 21 -44.5 42.5t-54 38.5t-70 28t-92.5 11q-42 0 -67.5 -4t-33.5 -8q0 21 5.5 40.5t17.5 34.5 t31 24t45 9q17 13 31 36.5t14 53.5q0 13 -3.5 30.5t-15 33.5t-33 27t-58.5 11zM4 947h-17t-20 -2q0 13 7 30t17 32t21 25.5t19 10.5q33 0 77.5 -17t87.5 -46.5t78 -68t49 -81.5l3 8q9 39 20 76t34.5 65.5t65 46t111.5 17.5q34 0 59 1t46 6t42.5 16t48.5 31q13 0 13 -6 q0 -20 -24.5 -45t-60.5 -47t-76.5 -36.5t-73.5 -14.5q-38 0 -70.5 -14t-56.5 -36t-38 -49t-14 -52q0 -8 -9.5 -13t-14.5 -5q-10 0 -21 22q-16 33 -51 59.5t-78 46t-89 30t-85 10.5z" />
<glyph unicode="&#xf40;&#xfad;" horiz-adv-x="680" d="M636 744l-11 -44t-11.5 -47.5t-9.5 -44t-4 -33.5v-800q-19 12 -45 26t-56 26.5t-62.5 20.5t-64.5 8q35 64 80.5 116t88.5 100l-30 492q-1 16 -3.5 31t-6.5 27t-9 19t-11 7h-93q-2 -35 -2.5 -55.5t-1 -35t-1 -26t-1.5 -27.5q-4 -38 -5 -90.5t-3.5 -100t-9 -80.5t-19.5 -33 q-5 0 -10 31t-9.5 76t-9 96.5t-7.5 92.5q-1 15 -4 40.5t-7 50.5t-9 43t-10 18h-41q-12 0 -18 -13.5t-8 -23.5q-11 -40 -30 -84t-44.5 -80.5t-56 -60.5t-63.5 -24q-12 0 -12 11q0 3 4 6.5t8 6.5q10 8 22 26t25 42t25 52t21.5 54.5t15 49.5t5.5 38h-43q-18 0 -23 3t-5 15 q0 4 4.5 15t10.5 23t12 23.5t9 16.5h539zM455 -84q15 0 29 -5.5t27 -14.5t24.5 -20t19.5 -21l-10 152q-28 -23 -49 -45t-41 -46z" />
<glyph unicode="&#xf62;&#xf90;" d="M116 648q-18 0 -23 3t-5 15q0 4 3.5 17t9.5 26.5t12.5 24t12.5 10.5h420l-33 -72q-11 -24 -64 -24h-119v-95h285l-11 -44t-11.5 -47.5t-9 -44t-3.5 -33.5v-719q0 -9 -7.5 -17t-16.5 -8t-12.5 8t-3.5 17v46l-49 662q-1 16 -3.5 31t-6.5 27t-9 19t-11 7h-102l-5 -111 q-1 -15 -2 -40.5t-3 -55t-4.5 -60t-6.5 -55t-9.5 -40t-12.5 -15.5q-3 0 -6.5 15.5t-7.5 39.5t-7.5 54t-7 59t-6 54.5t-3.5 40.5t-4 34t-7 36.5t-9 29.5t-9 14h-65q0 -41 -13 -80.5t-37 -70.5t-58 -50t-76 -19q-12 0 -12 11q0 2 4 4.5t8 4.5q17 9 36.5 33t36.5 53.5t28 60 t11 53.5h-43q-18 0 -23 3t-5 15q0 4 3.5 17t9.5 26.5t12.5 24t12.5 10.5h195v21q0 35 -19.5 53.5t-42.5 20.5h-96z" />
<glyph unicode="&#xf31e;&#xf72;" d="M116 648q-18 0 -23 3t-5 15q0 4 3.5 17t9.5 26.5t12.5 24t12.5 10.5h420l-33 -72q-11 -24 -64 -24h-119v-95h285l-11 -44t-11.5 -47.5t-9 -44t-3.5 -33.5v-719q0 -9 -7.5 -17t-16.5 -8t-12.5 8t-3.5 17v46l-49 662q-1 16 -3.5 31t-6.5 27t-9 19t-11 7h-102l-5 -111 q-1 -15 -2 -40.5t-3 -55t-4.5 -60t-6.5 -55t-9.5 -40t-12.5 -15.5q-3 0 -6.5 15.5t-7.5 39.5t-7.5 54t-7 59t-6 54.5t-3.5 40.5t-4 34t-7 36.5t-9 29.5t-9 14h-65q0 -41 -13 -80.5t-37 -70.5t-58 -50t-76 -19q-12 0 -12 11q0 2 4 4.5t8 4.5q17 9 36.5 33t36.5 53.5t28 60 t11 53.5h-43q-18 0 -23 3t-5 15q0 4 3.5 17t9.5 26.5t12.5 24t12.5 10.5h195v21q0 35 -19.5 53.5t-42.5 20.5h-96zM233 1166q41 0 87 -38t93.5 -95t93.5 -122.5t88 -120.5q0 -7 -6.5 -9.5t-11.5 -2.5q-11 0 -34 21.5t-54.5 54t-69 70.5t-79 70.5t-84 54t-83.5 21.5 q-10 0 -22.5 -4t-23 -11.5t-18 -18t-7.5 -23.5q0 -11 3.5 -23t12 -22.5t22.5 -17.5t35 -7q19 0 33 6t23.5 12.5t15.5 12.5t9 6q4 0 5.5 -3.5t1.5 -5.5q0 -27 -10.5 -49t-27.5 -38t-38.5 -25t-42.5 -9q-20 0 -39.5 9t-34.5 23.5t-24.5 33.5t-9.5 39q0 52 24 92t56.5 66 t65.5 39.5t51 13.5z" />
<glyph unicode="&#xf31e;&#xf80;" d="M116 648q-18 0 -23 3t-5 15q0 4 3.5 17t9.5 26.5t12.5 24t12.5 10.5h420l-33 -72q-11 -24 -64 -24h-119v-95h285l-11 -44t-11.5 -47.5t-9 -44t-3.5 -33.5v-719q0 -9 -7.5 -17t-16.5 -8t-12.5 8t-3.5 17v46l-49 662q-1 16 -3.5 31t-6.5 27t-9 19t-11 7h-102l-5 -111 q-1 -15 -2 -40.5t-3 -55t-4.5 -60t-6.5 -55t-9.5 -40t-12.5 -15.5q-3 0 -6.5 15.5t-7.5 39.5t-7.5 54t-7 59t-6 54.5t-3.5 40.5t-4 34t-7 36.5t-9 29.5t-9 14h-65q0 -41 -13 -80.5t-37 -70.5t-58 -50t-76 -19q-12 0 -12 11q0 2 4 4.5t8 4.5q17 9 36.5 33t36.5 53.5t28 60 t11 53.5h-43q-18 0 -23 3t-5 15q0 4 3.5 17t9.5 26.5t12.5 24t12.5 10.5h195v21q0 35 -19.5 53.5t-42.5 20.5h-96zM65 802q44 53 84.5 112.5t78.5 109t73 82t67 32.5q12 0 33.5 -3t46 -11.5t50.5 -23.5t46.5 -38.5t34 -58t13.5 -80.5q0 -20 -8.5 -38.5t-22 -32t-30.5 -21.5 t-34 -8q-21 0 -42 7.5t-37 22t-26 35.5t-10 48q0 2 1.5 6.5t5.5 4.5t11 -5t17 -10.5t22 -10.5t27 -5q17 0 28.5 6t18.5 15.5t10 21t3 22.5q0 13 -9.5 25t-24.5 21t-33.5 14.5t-35.5 5.5q-31 0 -65 -19t-68.5 -48t-67 -62t-60 -62t-48.5 -48t-32 -19q-5 0 -11 3t-6 10z" />
<glyph unicode="&#xf31e;&#xf74;" d="M350 648v-96h272q-5 -20 -10.5 -43.5t-10 -47t-8 -44t-3.5 -34.5l-17 -466q27 -4 49 -18t37 -35t23.5 -47.5t8.5 -54.5q0 -39 -16.5 -72.5t-42.5 -58.5t-58.5 -39t-65.5 -14q-46 0 -87.5 29.5t-80.5 76.5t-76.5 105t-75.5 115t-78.5 106.5t-84.5 79.5q-9 6 -14.5 11.5 t-5.5 13.5q0 5 4.5 8t8.5 3q16 0 34 -7q43 -19 87 -60t87.5 -91t87.5 -103t87.5 -97t86 -72t84.5 -28q29 0 50 14t21 52q0 17 -10.5 32t-27 26t-37 17.5t-40.5 6.5t-32.5 -5t-20.5 -11t-14.5 -11t-15.5 -5q-5 0 -5.5 11.5t-0.5 20.5q0 12 6 28t18 31.5t30.5 27t44.5 14.5 q-5 71 -9 138t-9 132.5t-12 132t-18 135.5h-118l-6 -114v-21t-1 -43.5t-3 -54.5t-6 -53.5t-11 -41t-18 -16.5q-5 0 -10.5 21t-10.5 54t-10 74t-8 82q-1 15 -2.5 32t-4.5 32.5t-6.5 28.5t-9.5 20h-70q0 -41 -13.5 -79.5t-38 -68.5t-58.5 -48.5t-76 -18.5q-12 0 -12 9q0 2 4 7 t8 8q16 13 36 39t37.5 55t29 56t11.5 41h-43q-18 0 -23 3t-5 15q0 4 3.5 17t8.5 27t11.5 24.5t12.5 10.5h206v22q0 35 -19.5 53.5t-42.5 20.5h-105q-18 0 -23 3t-5 15q0 4 3.5 17t8.5 26.5t11.5 24t12.5 10.5h422l-33 -72q-11 -24 -64 -24h-110z" />
<glyph unicode="&#xf31e;&#xf7a;" d="M116 620q-18 0 -23 3t-5 15q0 4 3.5 17t9.5 26.5t12.5 24t12.5 10.5h420l-33 -72q-11 -24 -64 -24h-119v-95h285l-11 -44t-11.5 -47.5t-9 -44t-3.5 -33.5v-719q0 -9 -7.5 -17t-16.5 -8t-12.5 8t-3.5 17v46l-49 662q-1 16 -3.5 31t-6.5 27t-9 19t-11 7h-102l-5 -111 q-1 -15 -2 -40.5t-3 -55t-4.5 -60t-6.5 -55t-9.5 -40t-12.5 -15.5q-3 0 -6.5 15.5t-7.5 39.5t-7.5 54t-7 59t-6 54.5t-3.5 40.5t-4 34t-7 36.5t-9 29.5t-9 14h-65q0 -41 -13 -80.5t-37 -70.5t-58 -50t-76 -19q-12 0 -12 11q0 2 4 4.5t8 4.5q17 9 36.5 33t36.5 53.5t28 60 t11 53.5h-43q-18 0 -23 3t-5 15q0 4 3.5 17t9.5 26.5t12.5 24t12.5 10.5h195v21q0 35 -19.5 53.5t-42.5 20.5h-96zM603 793q0 -13 -11 -13t-33 13.5t-52 34t-66.5 45t-75.5 47.5q-30 18 -68 36.5t-75.5 33.5t-71.5 24.5t-56 9.5h-17t-20 -2q0 13 7.5 30t18 32t22 25.5 t19.5 10.5q40 0 83 -14.5t86 -38t84.5 -54t79 -63t69 -64.5t54.5 -59l18 -21q5 -5 5 -13z" />
<glyph unicode="&#xf31e;&#xf7c;" d="M116 640q-18 0 -23 3t-5 15q0 4 3.5 17t9.5 26.5t12.5 24t12.5 10.5h420l-33 -72q-11 -24 -64 -24h-119v-95h285l-11 -44t-11.5 -47.5t-9 -44t-3.5 -33.5v-719q0 -9 -7.5 -17t-16.5 -8t-12.5 8t-3.5 17v46l-49 662q-1 16 -3.5 31t-6.5 27t-9 19t-11 7h-102l-5 -111 q-1 -15 -2 -40.5t-3 -55t-4.5 -60t-6.5 -55t-9.5 -40t-12.5 -15.5q-3 0 -6.5 15.5t-7.5 39.5t-7.5 54t-7 59t-6 54.5t-3.5 40.5t-4 34t-7 36.5t-9 29.5t-9 14h-65q0 -41 -13 -80.5t-37 -70.5t-58 -50t-76 -19q-12 0 -12 11q0 2 4 4.5t8 4.5q17 9 36.5 33t36.5 53.5t28 60 t11 53.5h-43q-18 0 -23 3t-5 15q0 4 3.5 17t9.5 26.5t12.5 24t12.5 10.5h195v21q0 35 -19.5 53.5t-42.5 20.5h-96zM-15 947h-17t-20 -2q0 13 7 30t17 32t21 25.5t19 10.5q33 0 77.5 -17t87.5 -46.5t78 -68t49 -81.5l3 8q9 39 20 76t34.5 65.5t65 46t111.5 17.5q34 0 59 1 t46 6t42.5 16t48.5 31q13 0 13 -6q0 -20 -24.5 -45t-60.5 -47t-76.5 -36.5t-73.5 -14.5q-38 0 -70.5 -14t-56.5 -36t-38 -49t-14 -52q0 -8 -9.5 -13t-14.5 -5q-10 0 -21 22q-16 33 -51 59.5t-78 46t-89 30t-85 10.5z" />
<glyph unicode="&#xf62;&#xf90;&#xfb1;" horiz-adv-x="640" d="M544 744l-33 -72q-9 -11 -23 -17.5t-41 -6.5h-117v-94h254q-5 -20 -9 -43.5t-7 -47t-5 -44t-3 -34.5v-281q0 -32 -24 -61t-58 -51t-70 -34.5t-61 -12.5q-53 0 -109.5 12.5t-112.5 35.5q38 -61 92 -89.5t114 -28.5q64 0 126 30t137 92q9 8 20 15t20 7q5 0 7.5 -3.5 t2.5 -7.5q0 -5 -4.5 -11t-10 -12t-11.5 -11.5t-9 -9.5q-33 -38 -65.5 -71.5t-67.5 -58.5t-76 -39.5t-92 -14.5q-59 0 -99 25t-69 63t-51 84t-46 88q-2 4 -5 11t-3 12q0 2 3.5 5.5t10.5 3.5q8 0 32 -8q20 -7 49 -17.5t63 -20.5t70 -17t71 -7q31 0 62.5 11.5t56.5 29t41 37 t16 35.5l-39 343h-121v-123q0 -3 -1 -18.5t-2.5 -37.5t-4.5 -46t-7 -45t-9.5 -34.5t-11.5 -13.5q-9 0 -17.5 43t-20.5 125q-2 15 -5.5 39.5t-7 48.5t-8 42t-8.5 20h-65q0 -41 -13 -78.5t-36.5 -66t-57 -45.5t-75.5 -17q-12 0 -12 7q0 2 4.5 5.5t7.5 5.5q18 13 37 35.5 t35.5 49t27 54t10.5 50.5h-43q-18 0 -23 3t-5 15q0 4 4.5 15t10.5 23t12 23.5t9 16.5h199v20q0 35 -19.5 53.5t-42.5 20.5h-98q-18 0 -23 3t-5 15q0 4 4.5 15t10.5 23t12 23.5t9 16.5h422z" />
<glyph unicode="&#xf324;&#xf72;" horiz-adv-x="640" d="M544 744l-33 -72q-9 -11 -23 -17.5t-41 -6.5h-117v-94h254q-5 -20 -9 -43.5t-7 -47t-5 -44t-3 -34.5v-281q0 -32 -24 -61t-58 -51t-70 -34.5t-61 -12.5q-53 0 -109.5 12.5t-112.5 35.5q38 -61 92 -89.5t114 -28.5q64 0 126 30t137 92q9 8 20 15t20 7q5 0 7.5 -3.5 t2.5 -7.5q0 -5 -4.5 -11t-10 -12t-11.5 -11.5t-9 -9.5q-33 -38 -65.5 -71.5t-67.5 -58.5t-76 -39.5t-92 -14.5q-59 0 -99 25t-69 63t-51 84t-46 88q-2 4 -5 11t-3 12q0 2 3.5 5.5t10.5 3.5q8 0 32 -8q20 -7 49 -17.5t63 -20.5t70 -17t71 -7q31 0 62.5 11.5t56.5 29t41 37 t16 35.5l-39 343h-121v-123q0 -3 -1 -18.5t-2.5 -37.5t-4.5 -46t-7 -45t-9.5 -34.5t-11.5 -13.5q-9 0 -17.5 43t-20.5 125q-2 15 -5.5 39.5t-7 48.5t-8 42t-8.5 20h-65q0 -41 -13 -78.5t-36.5 -66t-57 -45.5t-75.5 -17q-12 0 -12 7q0 2 4.5 5.5t7.5 5.5q18 13 37 35.5 t35.5 49t27 54t10.5 50.5h-43q-18 0 -23 3t-5 15q0 4 4.5 15t10.5 23t12 23.5t9 16.5h199v20q0 35 -19.5 53.5t-42.5 20.5h-98q-18 0 -23 3t-5 15q0 4 4.5 15t10.5 23t12 23.5t9 16.5h422zM217 1166q41 0 87 -38t93.5 -95t93.5 -122.5t88 -120.5q0 -7 -6.5 -9.5t-11.5 -2.5 q-11 0 -34 21.5t-54.5 54t-69 70.5t-79 70.5t-84 54t-83.5 21.5q-10 0 -22.5 -4t-23 -11.5t-18 -18t-7.5 -23.5q0 -11 3.5 -23t12 -22.5t22.5 -17.5t35 -7q19 0 33 6t23.5 12.5t15.5 12.5t9 6q4 0 5.5 -3.5t1.5 -5.5q0 -27 -10.5 -49t-27.5 -38t-38.5 -25t-42.5 -9 q-20 0 -39.5 9t-34.5 23.5t-24.5 33.5t-9.5 39q0 52 24 92t56.5 66t65.5 39.5t51 13.5z" />
<glyph unicode="&#xf324;&#xf80;" horiz-adv-x="640" d="M544 744l-33 -72q-9 -11 -23 -17.5t-41 -6.5h-117v-94h254q-5 -20 -9 -43.5t-7 -47t-5 -44t-3 -34.5v-281q0 -32 -24 -61t-58 -51t-70 -34.5t-61 -12.5q-53 0 -109.5 12.5t-112.5 35.5q38 -61 92 -89.5t114 -28.5q64 0 126 30t137 92q9 8 20 15t20 7q5 0 7.5 -3.5 t2.5 -7.5q0 -5 -4.5 -11t-10 -12t-11.5 -11.5t-9 -9.5q-33 -38 -65.5 -71.5t-67.5 -58.5t-76 -39.5t-92 -14.5q-59 0 -99 25t-69 63t-51 84t-46 88q-2 4 -5 11t-3 12q0 2 3.5 5.5t10.5 3.5q8 0 32 -8q20 -7 49 -17.5t63 -20.5t70 -17t71 -7q31 0 62.5 11.5t56.5 29t41 37 t16 35.5l-39 343h-121v-123q0 -3 -1 -18.5t-2.5 -37.5t-4.5 -46t-7 -45t-9.5 -34.5t-11.5 -13.5q-9 0 -17.5 43t-20.5 125q-2 15 -5.5 39.5t-7 48.5t-8 42t-8.5 20h-65q0 -41 -13 -78.5t-36.5 -66t-57 -45.5t-75.5 -17q-12 0 -12 7q0 2 4.5 5.5t7.5 5.5q18 13 37 35.5 t35.5 49t27 54t10.5 50.5h-43q-18 0 -23 3t-5 15q0 4 4.5 15t10.5 23t12 23.5t9 16.5h199v20q0 35 -19.5 53.5t-42.5 20.5h-98q-18 0 -23 3t-5 15q0 4 4.5 15t10.5 23t12 23.5t9 16.5h422zM55 802q44 53 84.5 112.5t78.5 109t73 82t67 32.5q12 0 33.5 -3t46 -11.5 t50.5 -23.5t46.5 -38.5t34 -58t13.5 -80.5q0 -20 -8.5 -38.5t-22 -32t-30.5 -21.5t-34 -8q-21 0 -42 7.5t-37 22t-26 35.5t-10 48q0 2 1.5 6.5t5.5 4.5t11 -5t17 -10.5t22 -10.5t27 -5q17 0 28.5 6t18.5 15.5t10 21t3 22.5q0 13 -9.5 25t-24.5 21t-33.5 14.5t-35.5 5.5 q-31 0 -65 -19t-68.5 -48t-67 -62t-60 -62t-48.5 -48t-32 -19q-5 0 -11 3t-6 10z" />
<glyph unicode="&#xf324;&#xf74;" horiz-adv-x="640" d="M539 744l-33 -72q-9 -11 -23 -17.5t-41 -6.5h-112v-94h260q-11 -40 -20 -81t-9 -67v-265q0 -32 -24 -61t-57.5 -50.5t-69.5 -34t-61 -12.5q-53 0 -109.5 12.5t-112.5 35.5q38 -61 92 -89.5t114 -28.5q64 0 126 30t137 92q9 8 20 15t20 7q5 0 7.5 -3.5t2.5 -7.5 q0 -5 -4.5 -11t-10 -12t-11.5 -11.5t-9 -9.5l-21 -24l-74 -142q12 3 26 3q31 0 56.5 -12.5t44 -34t28.5 -50t10 -59.5q0 -39 -16.5 -72.5t-42.5 -58.5t-58.5 -39t-65.5 -14q-39 0 -74 16.5t-69.5 44.5t-70 64t-76.5 74t-88 76t-105 70q-8 5 -14 11t-6 14q0 5 4.5 8t8.5 3 q16 0 34 -7q43 -19 89.5 -47.5t94 -60t94 -63t90 -56.5t82 -41t70.5 -16q29 0 50 14t21 52q0 17 -10.5 32t-27 26t-37 17.5t-40.5 6.5q-12 0 -24 -5t-22.5 -11t-19.5 -11t-17 -5q-5 0 -5.5 11.5t-0.5 20.5q0 11 5.5 26.5t17.5 31.5l49 94q-40 -32 -85.5 -51.5t-105.5 -19.5 q-59 0 -99 25t-69 63t-51 84t-46 88q-2 4 -5 11t-3 12q0 2 3.5 5.5t10.5 3.5q8 0 32 -8q20 -7 49 -17.5t63 -20.5t70 -17t71 -7q31 0 62 11.5t55.5 29t40 37t15.5 35.5l-43 305h-121v-146q0 -5 -0.5 -29.5t-4 -52.5t-11 -50.5t-20.5 -22.5q-9 0 -20.5 43t-17.5 125 q-1 15 -4 37t-7 43t-9 36t-9 17h-53q0 -41 -13.5 -78.5t-38 -66.5t-58.5 -46t-76 -17q-12 0 -12 8q0 2 4 4.5t8 4.5q17 9 37 34.5t37 55.5t28.5 58.5t11.5 42.5h-43q-18 0 -23 3t-5 15q0 4 4.5 15t10.5 23t12 23.5t9 16.5h192v20q0 35 -19.5 53.5t-42.5 20.5h-103 q-18 0 -23 3t-5 15q0 4 4.5 15t10.5 23t12 23.5t9 16.5h422z" />
<glyph unicode="&#xf324;&#xf7a;" horiz-adv-x="640" d="M544 744l-33 -72q-9 -11 -23 -17.5t-41 -6.5h-117v-94h254q-5 -20 -9 -43.5t-7 -47t-5 -44t-3 -34.5v-281q0 -32 -24 -61t-58 -51t-70 -34.5t-61 -12.5q-53 0 -109.5 12.5t-112.5 35.5q38 -61 92 -89.5t114 -28.5q64 0 126 30t137 92q9 8 20 15t20 7q5 0 7.5 -3.5 t2.5 -7.5q0 -5 -4.5 -11t-10 -12t-11.5 -11.5t-9 -9.5q-33 -38 -65.5 -71.5t-67.5 -58.5t-76 -39.5t-92 -14.5q-59 0 -99 25t-69 63t-51 84t-46 88q-2 4 -5 11t-3 12q0 2 3.5 5.5t10.5 3.5q8 0 32 -8q20 -7 49 -17.5t63 -20.5t70 -17t71 -7q31 0 62.5 11.5t56.5 29t41 37 t16 35.5l-39 343h-121v-123q0 -3 -1 -18.5t-2.5 -37.5t-4.5 -46t-7 -45t-9.5 -34.5t-11.5 -13.5q-9 0 -17.5 43t-20.5 125q-2 15 -5.5 39.5t-7 48.5t-8 42t-8.5 20h-65q0 -41 -13 -78.5t-36.5 -66t-57 -45.5t-75.5 -17q-12 0 -12 7q0 2 4.5 5.5t7.5 5.5q18 13 37 35.5 t35.5 49t27 54t10.5 50.5h-43q-18 0 -23 3t-5 15q0 4 4.5 15t10.5 23t12 23.5t9 16.5h199v20q0 35 -19.5 53.5t-42.5 20.5h-98q-18 0 -23 3t-5 15q0 4 4.5 15t10.5 23t12 23.5t9 16.5h422zM593 793q0 -13 -11 -13t-33 13.5t-52 34t-66.5 45t-75.5 47.5q-30 18 -68 36.5 t-75.5 33.5t-71.5 24.5t-56 9.5h-17t-20 -2q0 13 7.5 30t18 32t22 25.5t19.5 10.5q40 0 83 -14.5t86 -38t84.5 -54t79 -63t69 -64.5t54.5 -59l18 -21q5 -5 5 -13z" />
<glyph unicode="&#xf324;&#xf7c;" horiz-adv-x="640" d="M544 744l-33 -72q-9 -11 -23 -17.5t-41 -6.5h-117v-94h254q-5 -20 -9 -43.5t-7 -47t-5 -44t-3 -34.5v-281q0 -32 -24 -61t-58 -51t-70 -34.5t-61 -12.5q-53 0 -109.5 12.5t-112.5 35.5q38 -61 92 -89.5t114 -28.5q64 0 126 30t137 92q9 8 20 15t20 7q5 0 7.5 -3.5 t2.5 -7.5q0 -5 -4.5 -11t-10 -12t-11.5 -11.5t-9 -9.5q-33 -38 -65.5 -71.5t-67.5 -58.5t-76 -39.5t-92 -14.5q-59 0 -99 25t-69 63t-51 84t-46 88q-2 4 -5 11t-3 12q0 2 3.5 5.5t10.5 3.5q8 0 32 -8q20 -7 49 -17.5t63 -20.5t70 -17t71 -7q31 0 62.5 11.5t56.5 29t41 37 t16 35.5l-39 343h-121v-123q0 -3 -1 -18.5t-2.5 -37.5t-4.5 -46t-7 -45t-9.5 -34.5t-11.5 -13.5q-9 0 -17.5 43t-20.5 125q-2 15 -5.5 39.5t-7 48.5t-8 42t-8.5 20h-65q0 -41 -13 -78.5t-36.5 -66t-57 -45.5t-75.5 -17q-12 0 -12 7q0 2 4.5 5.5t7.5 5.5q18 13 37 35.5 t35.5 49t27 54t10.5 50.5h-43q-18 0 -23 3t-5 15q0 4 4.5 15t10.5 23t12 23.5t9 16.5h199v20q0 35 -19.5 53.5t-42.5 20.5h-98q-18 0 -23 3t-5 15q0 4 4.5 15t10.5 23t12 23.5t9 16.5h422zM-22 947h-17t-20 -2q0 13 7 30t17 32t21 25.5t19 10.5q33 0 77.5 -17t87.5 -46.5 t78 -68t49 -81.5l3 8q9 39 20 76t34.5 65.5t65 46t111.5 17.5q34 0 59 1t46 6t42.5 16t48.5 31q13 0 13 -6q0 -20 -24.5 -45t-60.5 -47t-76.5 -36.5t-73.5 -14.5q-38 0 -70.5 -14t-56.5 -36t-38 -49t-14 -52q0 -8 -9.5 -13t-14.5 -5q-10 0 -21 22q-16 33 -51 59.5t-78 46 t-89 30t-85 10.5z" />
<glyph unicode="&#xf63;&#xf90;" horiz-adv-x="680" d="M388 744l-22 -32q17 -11 27.5 -32.5t10.5 -59.5q0 -31 -12.5 -59.5t-53.5 -60.5q33 -5 64 -20t58 -37t50.5 -48t41.5 -53l-27 221q-3 28 -6.5 45t-7 26t-7.5 12t-9 3q-3 0 -6.5 -0.5t-8.5 -0.5l45 96h114q-10 -40 -24.5 -74t-14.5 -60v-310h36l-11 -44t-11.5 -47.5 t-9.5 -44t-4 -33.5v-471q0 -6 -6 -13t-15 -7t-14 7t-6 13l-32 400q-2 21 -5.5 46t-9 47t-13.5 36.5t-19 14.5h-96q-4 -29 -7.5 -49.5t-3.5 -46.5q0 -31 -1.5 -74.5t-5 -83.5t-11 -68t-19.5 -28q-4 0 -8.5 26.5t-8.5 66.5t-8 86.5t-7 86.5q-1 15 -4 30t-8 27t-11.5 19.5 t-14.5 7.5h-60q0 -39 -12.5 -78t-35 -70t-53.5 -50.5t-68 -19.5q-11 0 -11 7q0 3 9 10t12 9q16 12 31.5 36t28 52t20 56t7.5 48h-44q-18 0 -23 3t-5 15q0 4 4.5 15t10.5 23t12 23.5t9 16.5h434q-20 19 -43 38t-52.5 34t-66 24t-83.5 9q-42 0 -67.5 -4t-33.5 -8 q0 21 5.5 40.5t17.5 34.5t31 24t45 9q17 13 31 31.5t14 48.5q0 13 -2.5 25t-14 21.5t-35.5 15t-68 5.5q-57 0 -88.5 -19.5t-31.5 -41.5t6.5 -34.5t15 -23.5t15 -24t6.5 -35q0 -15 -7 -33t-16.5 -33t-20 -25t-17.5 -10q-10 0 -10 3q0 2 1 4t1 4q0 24 -6.5 42.5t-14 36.5 t-13.5 37.5t-6 45.5q0 42 12 78.5t34.5 64t54.5 43.5t73 16h190z" />
<glyph unicode="&#xf32a;&#xf72;" horiz-adv-x="680" d="M388 744l-22 -32q17 -11 27.5 -32.5t10.5 -59.5q0 -31 -12.5 -59.5t-53.5 -60.5q33 -5 64 -20t58 -37t50.5 -48t41.5 -53l-27 221q-3 28 -6.5 45t-7 26t-7.5 12t-9 3q-3 0 -6.5 -0.5t-8.5 -0.5l45 96h114q-10 -40 -24.5 -74t-14.5 -60v-310h36l-11 -44t-11.5 -47.5 t-9.5 -44t-4 -33.5v-471q0 -6 -6 -13t-15 -7t-14 7t-6 13l-32 400q-2 21 -5.5 46t-9 47t-13.5 36.5t-19 14.5h-96q-4 -29 -7.5 -49.5t-3.5 -46.5q0 -31 -1.5 -74.5t-5 -83.5t-11 -68t-19.5 -28q-4 0 -8.5 26.5t-8.5 66.5t-8 86.5t-7 86.5q-1 15 -4 30t-8 27t-11.5 19.5 t-14.5 7.5h-60q0 -39 -12.5 -78t-35 -70t-53.5 -50.5t-68 -19.5q-11 0 -11 7q0 3 9 10t12 9q16 12 31.5 36t28 52t20 56t7.5 48h-44q-18 0 -23 3t-5 15q0 4 4.5 15t10.5 23t12 23.5t9 16.5h434q-20 19 -43 38t-52.5 34t-66 24t-83.5 9q-42 0 -67.5 -4t-33.5 -8 q0 21 5.5 40.5t17.5 34.5t31 24t45 9q17 13 31 31.5t14 48.5q0 13 -2.5 25t-14 21.5t-35.5 15t-68 5.5q-57 0 -88.5 -19.5t-31.5 -41.5t6.5 -34.5t15 -23.5t15 -24t6.5 -35q0 -15 -7 -33t-16.5 -33t-20 -25t-17.5 -10q-10 0 -10 3q0 2 1 4t1 4q0 24 -6.5 42.5t-14 36.5 t-13.5 37.5t-6 45.5q0 42 12 78.5t34.5 64t54.5 43.5t73 16h190zM257 1166q41 0 87 -38t93.5 -95t93.5 -122.5t88 -120.5q0 -7 -6.5 -9.5t-11.5 -2.5q-11 0 -34 21.5t-54.5 54t-69 70.5t-79 70.5t-84 54t-83.5 21.5q-10 0 -22.5 -4t-23 -11.5t-18 -18t-7.5 -23.5 q0 -11 3.5 -23t12 -22.5t22.5 -17.5t35 -7q19 0 33 6t23.5 12.5t15.5 12.5t9 6q4 0 5.5 -3.5t1.5 -5.5q0 -27 -10.5 -49t-27.5 -38t-38.5 -25t-42.5 -9q-20 0 -39.5 9t-34.5 23.5t-24.5 33.5t-9.5 39q0 52 24 92t56.5 66t65.5 39.5t51 13.5z" />
<glyph unicode="&#xf32a;&#xf80;" horiz-adv-x="680" d="M388 744l-22 -32q17 -11 27.5 -32.5t10.5 -59.5q0 -31 -12.5 -59.5t-53.5 -60.5q33 -5 64 -20t58 -37t50.5 -48t41.5 -53l-27 221q-3 28 -6.5 45t-7 26t-7.5 12t-9 3q-3 0 -6.5 -0.5t-8.5 -0.5l45 96h114q-10 -40 -24.5 -74t-14.5 -60v-310h36l-11 -44t-11.5 -47.5 t-9.5 -44t-4 -33.5v-471q0 -6 -6 -13t-15 -7t-14 7t-6 13l-32 400q-2 21 -5.5 46t-9 47t-13.5 36.5t-19 14.5h-96q-4 -29 -7.5 -49.5t-3.5 -46.5q0 -31 -1.5 -74.5t-5 -83.5t-11 -68t-19.5 -28q-4 0 -8.5 26.5t-8.5 66.5t-8 86.5t-7 86.5q-1 15 -4 30t-8 27t-11.5 19.5 t-14.5 7.5h-60q0 -39 -12.5 -78t-35 -70t-53.5 -50.5t-68 -19.5q-11 0 -11 7q0 3 9 10t12 9q16 12 31.5 36t28 52t20 56t7.5 48h-44q-18 0 -23 3t-5 15q0 4 4.5 15t10.5 23t12 23.5t9 16.5h434q-20 19 -43 38t-52.5 34t-66 24t-83.5 9q-42 0 -67.5 -4t-33.5 -8 q0 21 5.5 40.5t17.5 34.5t31 24t45 9q17 13 31 31.5t14 48.5q0 13 -2.5 25t-14 21.5t-35.5 15t-68 5.5q-57 0 -88.5 -19.5t-31.5 -41.5t6.5 -34.5t15 -23.5t15 -24t6.5 -35q0 -15 -7 -33t-16.5 -33t-20 -25t-17.5 -10q-10 0 -10 3q0 2 1 4t1 4q0 24 -6.5 42.5t-14 36.5 t-13.5 37.5t-6 45.5q0 42 12 78.5t34.5 64t54.5 43.5t73 16h190zM91 802q44 53 84.5 112.5t78.5 109t73 82t67 32.5q12 0 33.5 -3t46 -11.5t50.5 -23.5t46.5 -38.5t34 -58t13.5 -80.5q0 -20 -8.5 -38.5t-22 -32t-30.5 -21.5t-34 -8q-21 0 -42 7.5t-37 22t-26 35.5t-10 48 q0 2 1.5 6.5t5.5 4.5t11 -5t17 -10.5t22 -10.5t27 -5q17 0 28.5 6t18.5 15.5t10 21t3 22.5q0 13 -9.5 25t-24.5 21t-33.5 14.5t-35.5 5.5q-31 0 -65 -19t-68.5 -48t-67 -62t-60 -62t-48.5 -48t-32 -19q-5 0 -11 3t-6 10z" />
<glyph unicode="&#xf32a;&#xf74;" horiz-adv-x="680" d="M388 744l-22 -32q17 -11 27.5 -32.5t10.5 -59.5q0 -31 -12.5 -59.5t-53.5 -60.5q33 -5 64 -20t58 -37t50.5 -48t41.5 -53l-27 221q-3 28 -6.5 45t-7 26t-7.5 12t-9 3q-3 0 -6.5 -0.5t-8.5 -0.5l45 96h114q-10 -40 -24.5 -74t-14.5 -60v-310h32q-5 -19 -10.5 -42.5 t-10.5 -46.5t-8 -43.5t-3 -33.5v-375q16 -3 32.5 -12t30.5 -24t23 -37t9 -52q0 -38 -16.5 -73t-44.5 -61.5t-63.5 -42.5t-74.5 -16q-62 0 -102 34.5t-73.5 92t-69 132t-88.5 154.5q-4 6 -13 15t-18.5 18t-16.5 17t-7 11q0 2 3.5 8t9.5 6q11 0 36.5 -12.5t52.5 -48.5 q26 -34 55 -73.5t59 -78.5t61 -74.5t61.5 -62.5t60.5 -43.5t58 -16.5q6 0 16.5 2.5t20.5 8t17.5 14.5t7.5 23q0 15 -4.5 31.5t-13.5 30t-23 22.5t-33 9q-14 0 -34.5 -7.5t-32.5 -12.5q-6 13 -6 29q0 25 18.5 50t55.5 36l-6 85q0 1 -1 24t-2.5 58t-4.5 77t-8 82t-11.5 73 t-14.5 50h-114q-4 -29 -6.5 -49.5t-2.5 -46.5q0 -31 -1.5 -73t-5 -80t-11 -64.5t-19.5 -26.5q-4 0 -8.5 25t-8.5 63t-8 83t-7 85q-1 15 -4 30t-8 27t-11.5 19.5t-14.5 7.5h-55q0 -39 -12.5 -75t-34.5 -63.5t-52.5 -43.5t-67.5 -16q-11 0 -11 11q0 1 3.5 4t7.5 6l8 6t6 4 q16 12 30.5 32t25.5 43.5t18 47.5t7 44h-18q-18 0 -23 3t-5 15q0 4 4.5 15t10.5 23t12 23.5t9 16.5h393q-20 19 -43 38t-52.5 34t-66 24t-83.5 9q-42 0 -67.5 -4t-33.5 -8q0 21 5.5 40.5t17.5 34.5t31 24t45 9q17 13 31 31.5t14 48.5q0 13 -2.5 25t-14 21.5t-35.5 15 t-68 5.5q-57 0 -88.5 -19.5t-31.5 -41.5t6.5 -34.5t15 -23.5t15 -24t6.5 -35q0 -15 -7 -33t-16.5 -33t-20 -25t-17.5 -10q-10 0 -10 3q0 2 1 4t1 4q0 24 -6.5 42.5t-14 36.5t-13.5 37.5t-6 45.5q0 42 12 78.5t34.5 64t54.5 43.5t73 16h190z" />
<glyph unicode="&#xf32a;&#xf7a;" horiz-adv-x="680" d="M388 744l-22 -32q17 -11 27.5 -32.5t10.5 -59.5q0 -31 -12.5 -59.5t-53.5 -60.5q33 -5 64 -20t58 -37t50.5 -48t41.5 -53l-27 221q-3 28 -6.5 45t-7 26t-7.5 12t-9 3q-3 0 -6.5 -0.5t-8.5 -0.5l45 96h114q-10 -40 -24.5 -74t-14.5 -60v-310h36l-11 -44t-11.5 -47.5 t-9.5 -44t-4 -33.5v-471q0 -6 -6 -13t-15 -7t-14 7t-6 13l-32 400q-2 21 -5.5 46t-9 47t-13.5 36.5t-19 14.5h-96q-4 -29 -7.5 -49.5t-3.5 -46.5q0 -31 -1.5 -74.5t-5 -83.5t-11 -68t-19.5 -28q-4 0 -8.5 26.5t-8.5 66.5t-8 86.5t-7 86.5q-1 15 -4 30t-8 27t-11.5 19.5 t-14.5 7.5h-60q0 -39 -12.5 -78t-35 -70t-53.5 -50.5t-68 -19.5q-11 0 -11 7q0 3 9 10t12 9q16 12 31.5 36t28 52t20 56t7.5 48h-44q-18 0 -23 3t-5 15q0 4 4.5 15t10.5 23t12 23.5t9 16.5h434q-20 19 -43 38t-52.5 34t-66 24t-83.5 9q-42 0 -67.5 -4t-33.5 -8 q0 21 5.5 40.5t17.5 34.5t31 24t45 9q17 13 31 31.5t14 48.5q0 13 -2.5 25t-14 21.5t-35.5 15t-68 5.5q-57 0 -88.5 -19.5t-31.5 -41.5t6.5 -34.5t15 -23.5t15 -24t6.5 -35q0 -15 -7 -33t-16.5 -33t-20 -25t-17.5 -10q-10 0 -10 3q0 2 1 4t1 4q0 24 -6.5 42.5t-14 36.5 t-13.5 37.5t-6 45.5q0 42 12 78.5t34.5 64t54.5 43.5t73 16h190zM613 793q0 -13 -11 -13t-33 13.5t-52 34t-66.5 45t-75.5 47.5q-30 18 -68 36.5t-75.5 33.5t-71.5 24.5t-56 9.5h-17t-20 -2q0 13 7.5 30t18 32t22 25.5t19.5 10.5q40 0 83 -14.5t86 -38t84.5 -54t79 -63 t69 -64.5t54.5 -59l18 -21q5 -5 5 -13z" />
<glyph unicode="&#xf32a;&#xf7c;" horiz-adv-x="680" d="M388 744l-22 -32q17 -11 27.5 -32.5t10.5 -59.5q0 -31 -12.5 -59.5t-53.5 -60.5q33 -5 64 -20t58 -37t50.5 -48t41.5 -53l-27 221q-3 28 -6.5 45t-7 26t-7.5 12t-9 3q-3 0 -6.5 -0.5t-8.5 -0.5l45 96h114q-10 -40 -24.5 -74t-14.5 -60v-310h36l-11 -44t-11.5 -47.5 t-9.5 -44t-4 -33.5v-471q0 -6 -6 -13t-15 -7t-14 7t-6 13l-32 400q-2 21 -5.5 46t-9 47t-13.5 36.5t-19 14.5h-96q-4 -29 -7.5 -49.5t-3.5 -46.5q0 -31 -1.5 -74.5t-5 -83.5t-11 -68t-19.5 -28q-4 0 -8.5 26.5t-8.5 66.5t-8 86.5t-7 86.5q-1 15 -4 30t-8 27t-11.5 19.5 t-14.5 7.5h-60q0 -39 -12.5 -78t-35 -70t-53.5 -50.5t-68 -19.5q-11 0 -11 7q0 3 9 10t12 9q16 12 31.5 36t28 52t20 56t7.5 48h-44q-18 0 -23 3t-5 15q0 4 4.5 15t10.5 23t12 23.5t9 16.5h434q-20 19 -43 38t-52.5 34t-66 24t-83.5 9q-42 0 -67.5 -4t-33.5 -8 q0 21 5.5 40.5t17.5 34.5t31 24t45 9q17 13 31 31.5t14 48.5q0 13 -2.5 25t-14 21.5t-35.5 15t-68 5.5q-57 0 -88.5 -19.5t-31.5 -41.5t6.5 -34.5t15 -23.5t15 -24t6.5 -35q0 -15 -7 -33t-16.5 -33t-20 -25t-17.5 -10q-10 0 -10 3q0 2 1 4t1 4q0 24 -6.5 42.5t-14 36.5 t-13.5 37.5t-6 45.5q0 42 12 78.5t34.5 64t54.5 43.5t73 16h190zM-19 947h-17t-20 -2q0 13 7 30t17 32t21 25.5t19 10.5q33 0 77.5 -17t87.5 -46.5t78 -68t49 -81.5l3 8q9 39 20 76t34.5 65.5t65 46t111.5 17.5q34 0 59 1t46 6t42.5 16t48.5 31q13 0 13 -6q0 -20 -24.5 -45 t-60.5 -47t-76.5 -36.5t-73.5 -14.5q-38 0 -70.5 -14t-56.5 -36t-38 -49t-14 -52q0 -8 -9.5 -13t-14.5 -5q-10 0 -21 22q-16 33 -51 59.5t-78 46t-89 30t-85 10.5z" />
<glyph unicode="&#xf66;&#xf90;" horiz-adv-x="680" d="M396 744l-33 -72q-6 -13 -13.5 -18.5t-34.5 -5.5q39 -40 64.5 -69t49.5 -57.5t51 -62.5t69 -85l-21 180q-4 35 -7 54t-7 28t-9.5 10.5t-14.5 1.5l35 96h111l-11 -44t-11.5 -47.5t-9.5 -44t-4 -33.5v-275h32q-5 -19 -10.5 -42.5t-10.5 -46.5t-8 -43.5t-3 -33.5v-478 q0 -6 -7.5 -11t-16.5 -5t-12 5t-3 11l-11 184q-2 22 -6 67.5t-9.5 98t-11.5 106t-11 92.5h-127q-2 -20 -4.5 -40.5t-3.5 -61.5q0 -3 -2 -21t-5.5 -43t-8 -53t-10 -51.5t-11.5 -39t-12 -15.5q-4 0 -6.5 22.5t-4.5 58t-4 78t-5 82.5q-1 15 -4 30t-8 27t-11.5 19.5t-14.5 7.5 h-50q0 -39 -12.5 -74.5t-34.5 -62.5t-52.5 -42.5t-67.5 -15.5q-11 0 -11 8q0 1 3.5 4t7.5 6l8 6t6 4q16 12 30.5 32t25.5 43.5t18 47.5t7 44h-18q-18 0 -23 3t-5 15q0 4 4.5 15t10.5 23t12 23.5t9 16.5h408q-27 23 -60.5 53t-69 62.5t-71 64.5t-65 57t-52 40.5t-31.5 15.5 q-13 -5 -27 -14.5t-25 -20.5t-18.5 -23.5t-7.5 -23.5q50 -6 85.5 -30.5t58 -53.5t33.5 -56t11 -38q0 -3 -2 -8t-7 -5q-4 0 -10.5 3t-11.5 9q-7 8 -24.5 22.5t-43 28.5t-58.5 24.5t-71 10.5q-21 0 -40.5 -3t-42.5 -9q0 3 1.5 17.5t8 32t19.5 34t36 24.5q0 24 15.5 57t46.5 62 l16 15h-61q-17 0 -22.5 3t-5.5 15q0 4 4.5 15t10.5 23t12 23.5t9 16.5h310z" />
<glyph unicode="&#xf330;&#xf72;" horiz-adv-x="680" d="M396 744l-33 -72q-6 -13 -13.5 -18.5t-34.5 -5.5q39 -40 64.5 -69t49.5 -57.5t51 -62.5t69 -85l-21 180q-4 35 -7 54t-7 28t-9.5 10.5t-14.5 1.5l35 96h111l-11 -44t-11.5 -47.5t-9.5 -44t-4 -33.5v-275h32q-5 -19 -10.5 -42.5t-10.5 -46.5t-8 -43.5t-3 -33.5v-478 q0 -6 -7.5 -11t-16.5 -5t-12 5t-3 11l-11 184q-2 22 -6 67.5t-9.5 98t-11.5 106t-11 92.5h-127q-2 -20 -4.5 -40.5t-3.5 -61.5q0 -3 -2 -21t-5.5 -43t-8 -53t-10 -51.5t-11.5 -39t-12 -15.5q-4 0 -6.5 22.5t-4.5 58t-4 78t-5 82.5q-1 15 -4 30t-8 27t-11.5 19.5t-14.5 7.5 h-50q0 -39 -12.5 -74.5t-34.5 -62.5t-52.5 -42.5t-67.5 -15.5q-11 0 -11 8q0 1 3.5 4t7.5 6l8 6t6 4q16 12 30.5 32t25.5 43.5t18 47.5t7 44h-18q-18 0 -23 3t-5 15q0 4 4.5 15t10.5 23t12 23.5t9 16.5h408q-27 23 -60.5 53t-69 62.5t-71 64.5t-65 57t-52 40.5t-31.5 15.5 q-13 -5 -27 -14.5t-25 -20.5t-18.5 -23.5t-7.5 -23.5q50 -6 85.5 -30.5t58 -53.5t33.5 -56t11 -38q0 -3 -2 -8t-7 -5q-4 0 -10.5 3t-11.5 9q-7 8 -24.5 22.5t-43 28.5t-58.5 24.5t-71 10.5q-21 0 -40.5 -3t-42.5 -9q0 3 1.5 17.5t8 32t19.5 34t36 24.5q0 24 15.5 57t46.5 62 l16 15h-61q-17 0 -22.5 3t-5.5 15q0 4 4.5 15t10.5 23t12 23.5t9 16.5h310zM257 1166q41 0 87 -38t93.5 -95t93.5 -122.5t88 -120.5q0 -7 -6.5 -9.5t-11.5 -2.5q-11 0 -34 21.5t-54.5 54t-69 70.5t-79 70.5t-84 54t-83.5 21.5q-10 0 -22.5 -4t-23 -11.5t-18 -18t-7.5 -23.5 q0 -11 3.5 -23t12 -22.5t22.5 -17.5t35 -7q19 0 33 6t23.5 12.5t15.5 12.5t9 6q4 0 5.5 -3.5t1.5 -5.5q0 -27 -10.5 -49t-27.5 -38t-38.5 -25t-42.5 -9q-20 0 -39.5 9t-34.5 23.5t-24.5 33.5t-9.5 39q0 52 24 92t56.5 66t65.5 39.5t51 13.5z" />
<glyph unicode="&#xf330;&#xf80;" horiz-adv-x="680" d="M396 744l-33 -72q-6 -13 -13.5 -18.5t-34.5 -5.5q39 -40 64.5 -69t49.5 -57.5t51 -62.5t69 -85l-21 180q-4 35 -7 54t-7 28t-9.5 10.5t-14.5 1.5l35 96h111l-11 -44t-11.5 -47.5t-9.5 -44t-4 -33.5v-275h32q-5 -19 -10.5 -42.5t-10.5 -46.5t-8 -43.5t-3 -33.5v-478 q0 -6 -7.5 -11t-16.5 -5t-12 5t-3 11l-11 184q-2 22 -6 67.5t-9.5 98t-11.5 106t-11 92.5h-127q-2 -20 -4.5 -40.5t-3.5 -61.5q0 -3 -2 -21t-5.5 -43t-8 -53t-10 -51.5t-11.5 -39t-12 -15.5q-4 0 -6.5 22.5t-4.5 58t-4 78t-5 82.5q-1 15 -4 30t-8 27t-11.5 19.5t-14.5 7.5 h-50q0 -39 -12.5 -74.5t-34.5 -62.5t-52.5 -42.5t-67.5 -15.5q-11 0 -11 8q0 1 3.5 4t7.5 6l8 6t6 4q16 12 30.5 32t25.5 43.5t18 47.5t7 44h-18q-18 0 -23 3t-5 15q0 4 4.5 15t10.5 23t12 23.5t9 16.5h408q-27 23 -60.5 53t-69 62.5t-71 64.5t-65 57t-52 40.5t-31.5 15.5 q-13 -5 -27 -14.5t-25 -20.5t-18.5 -23.5t-7.5 -23.5q50 -6 85.5 -30.5t58 -53.5t33.5 -56t11 -38q0 -3 -2 -8t-7 -5q-4 0 -10.5 3t-11.5 9q-7 8 -24.5 22.5t-43 28.5t-58.5 24.5t-71 10.5q-21 0 -40.5 -3t-42.5 -9q0 3 1.5 17.5t8 32t19.5 34t36 24.5q0 24 15.5 57t46.5 62 l16 15h-61q-17 0 -22.5 3t-5.5 15q0 4 4.5 15t10.5 23t12 23.5t9 16.5h310zM92 802q44 53 84.5 112.5t78.5 109t73 82t67 32.5q12 0 33.5 -3t46 -11.5t50.5 -23.5t46.5 -38.5t34 -58t13.5 -80.5q0 -20 -8.5 -38.5t-22 -32t-30.5 -21.5t-34 -8q-21 0 -42 7.5t-37 22t-26 35.5 t-10 48q0 2 1.5 6.5t5.5 4.5t11 -5t17 -10.5t22 -10.5t27 -5q17 0 28.5 6t18.5 15.5t10 21t3 22.5q0 13 -9.5 25t-24.5 21t-33.5 14.5t-35.5 5.5q-31 0 -65 -19t-68.5 -48t-67 -62t-60 -62t-48.5 -48t-32 -19q-5 0 -11 3t-6 10z" />
<glyph unicode="&#xf330;&#xf74;" horiz-adv-x="680" d="M396 744l-33 -72q-6 -13 -13.5 -18.5t-34.5 -5.5q39 -41 64.5 -69t49 -56.5t51 -62.5t69.5 -86l-21 180q-4 35 -7 54t-7 28t-9.5 10.5t-14.5 1.5l35 96h111l-11 -44t-11.5 -47.5t-9.5 -44t-4 -33.5v-275h28q-5 -19 -10 -42.5t-9.5 -46.5t-7 -43.5t-2.5 -33.5v-375 q16 -3 32 -12t29.5 -24t22 -37t8.5 -52q0 -38 -16.5 -73t-44.5 -61.5t-63.5 -42.5t-74.5 -16q-62 0 -102 34.5t-73.5 92t-69 132t-88.5 154.5q-4 6 -13 15t-18.5 18t-16.5 17t-7 11q0 2 3.5 8t9.5 6q11 0 36.5 -12.5t52.5 -48.5q26 -34 55 -73.5t59 -78.5t61 -74.5 t61.5 -62.5t60.5 -43.5t58 -16.5q6 0 16.5 2.5t20.5 8t17.5 14.5t7.5 23q0 15 -4.5 31.5t-13.5 30t-23 22.5t-33 9q-14 0 -34.5 -7.5t-32.5 -12.5q-6 13 -6 29q0 25 18.5 50t55.5 36l-6 85q0 1 -0.5 24t-2.5 58t-5 77t-8 82t-11.5 73t-14.5 50h-123q-2 0 -4 -21t-3.5 -52 t-3 -66.5t-2.5 -64.5q0 -6 -1.5 -26t-5.5 -42t-12.5 -39.5t-21.5 -17.5q-7 0 -11.5 24.5t-7.5 61t-5.5 79t-6.5 79t-10 61t-15 24.5h-44q0 -39 -13.5 -75t-37 -63.5t-55.5 -43.5t-69 -16q-6 0 -8.5 4t-2.5 9q0 2 11 9t14 9q16 12 30.5 32t25.5 43.5t18 47.5t7 44h-18 q-18 0 -23 3t-5 15q0 4 4.5 15t10.5 23t12 23.5t9 16.5h411q-27 23 -60.5 53t-69 62.5t-71 64.5t-65 57t-52 40.5t-31.5 15.5q-13 -5 -27 -14.5t-25 -20.5t-18.5 -23.5t-7.5 -23.5q35 0 62.5 -10.5t48.5 -27.5t35.5 -37.5t23.5 -40.5t13.5 -36.5t4.5 -25.5q0 -3 -1.5 -8 t-6.5 -5q-4 0 -11 3t-12 9q-7 8 -24.5 22.5t-43 28.5t-58.5 24.5t-71 10.5q-21 0 -40.5 -3t-42.5 -9q0 3 1.5 17.5t8 32t19.5 34t36 24.5q0 24 15.5 57t46.5 62l16 15h-28q-18 0 -23 3t-5 15q0 4 4.5 15t10.5 23t12 23.5t9 16.5h277z" />
<glyph unicode="&#xf330;&#xf7a;" horiz-adv-x="680" d="M396 744l-33 -72q-6 -13 -13.5 -18.5t-34.5 -5.5q39 -40 64.5 -69t49.5 -57.5t51 -62.5t69 -85l-21 180q-4 35 -7 54t-7 28t-9.5 10.5t-14.5 1.5l35 96h111l-11 -44t-11.5 -47.5t-9.5 -44t-4 -33.5v-275h32q-5 -19 -10.5 -42.5t-10.5 -46.5t-8 -43.5t-3 -33.5v-478 q0 -6 -7.5 -11t-16.5 -5t-12 5t-3 11l-11 184q-2 22 -6 67.5t-9.5 98t-11.5 106t-11 92.5h-127q-2 -20 -4.5 -40.5t-3.5 -61.5q0 -3 -2 -21t-5.5 -43t-8 -53t-10 -51.5t-11.5 -39t-12 -15.5q-4 0 -6.5 22.5t-4.5 58t-4 78t-5 82.5q-1 15 -4 30t-8 27t-11.5 19.5t-14.5 7.5 h-50q0 -39 -12.5 -74.5t-34.5 -62.5t-52.5 -42.5t-67.5 -15.5q-11 0 -11 8q0 1 3.5 4t7.5 6l8 6t6 4q16 12 30.5 32t25.5 43.5t18 47.5t7 44h-18q-18 0 -23 3t-5 15q0 4 4.5 15t10.5 23t12 23.5t9 16.5h408q-27 23 -60.5 53t-69 62.5t-71 64.5t-65 57t-52 40.5t-31.5 15.5 q-13 -5 -27 -14.5t-25 -20.5t-18.5 -23.5t-7.5 -23.5q50 -6 85.5 -30.5t58 -53.5t33.5 -56t11 -38q0 -3 -2 -8t-7 -5q-4 0 -10.5 3t-11.5 9q-7 8 -24.5 22.5t-43 28.5t-58.5 24.5t-71 10.5q-21 0 -40.5 -3t-42.5 -9q0 3 1.5 17.5t8 32t19.5 34t36 24.5q0 24 15.5 57t46.5 62 l16 15h-61q-17 0 -22.5 3t-5.5 15q0 4 4.5 15t10.5 23t12 23.5t9 16.5h310zM613 793q0 -13 -11 -13t-33 13.5t-52 34t-66.5 45t-75.5 47.5q-30 18 -68 36.5t-75.5 33.5t-71.5 24.5t-56 9.5h-17t-20 -2q0 13 7.5 30t18 32t22 25.5t19.5 10.5q40 0 83 -14.5t86 -38t84.5 -54 t79 -63t69 -64.5t54.5 -59l18 -21q5 -5 5 -13z" />
<glyph unicode="&#xf330;&#xf7c;" horiz-adv-x="680" d="M396 744l-33 -72q-6 -13 -13.5 -18.5t-34.5 -5.5q39 -40 64.5 -69t49.5 -57.5t51 -62.5t69 -85l-21 180q-4 35 -7 54t-7 28t-9.5 10.5t-14.5 1.5l35 96h111l-11 -44t-11.5 -47.5t-9.5 -44t-4 -33.5v-275h32q-5 -19 -10.5 -42.5t-10.5 -46.5t-8 -43.5t-3 -33.5v-478 q0 -6 -7.5 -11t-16.5 -5t-12 5t-3 11l-11 184q-2 22 -6 67.5t-9.5 98t-11.5 106t-11 92.5h-127q-2 -20 -4.5 -40.5t-3.5 -61.5q0 -3 -2 -21t-5.5 -43t-8 -53t-10 -51.5t-11.5 -39t-12 -15.5q-4 0 -6.5 22.5t-4.5 58t-4 78t-5 82.5q-1 15 -4 30t-8 27t-11.5 19.5t-14.5 7.5 h-50q0 -39 -12.5 -74.5t-34.5 -62.5t-52.5 -42.5t-67.5 -15.5q-11 0 -11 8q0 1 3.5 4t7.5 6l8 6t6 4q16 12 30.5 32t25.5 43.5t18 47.5t7 44h-18q-18 0 -23 3t-5 15q0 4 4.5 15t10.5 23t12 23.5t9 16.5h408q-27 23 -60.5 53t-69 62.5t-71 64.5t-65 57t-52 40.5t-31.5 15.5 q-13 -5 -27 -14.5t-25 -20.5t-18.5 -23.5t-7.5 -23.5q50 -6 85.5 -30.5t58 -53.5t33.5 -56t11 -38q0 -3 -2 -8t-7 -5q-4 0 -10.5 3t-11.5 9q-7 8 -24.5 22.5t-43 28.5t-58.5 24.5t-71 10.5q-21 0 -40.5 -3t-42.5 -9q0 3 1.5 17.5t8 32t19.5 34t36 24.5q0 24 15.5 57t46.5 62 l16 15h-61q-17 0 -22.5 3t-5.5 15q0 4 4.5 15t10.5 23t12 23.5t9 16.5h310zM0 947h-17t-20 -2q0 13 7 30t17 32t21 25.5t19 10.5q33 0 77.5 -17t87.5 -46.5t78 -68t49 -81.5l3 8q9 39 20 76t34.5 65.5t65 46t111.5 17.5q34 0 59 1t46 6t42.5 16t48.5 31q13 0 13 -6 q0 -20 -24.5 -45t-60.5 -47t-76.5 -36.5t-73.5 -14.5q-38 0 -70.5 -14t-56.5 -36t-38 -49t-14 -52q0 -8 -9.5 -13t-14.5 -5q-10 0 -21 22q-16 33 -51 59.5t-78 46t-89 30t-85 10.5z" />
<glyph unicode="&#xf66;&#xf90;&#xfb1;" d="M378 744l-36 -72q-17 -24 -50 -24h-11q35 -20 67.5 -51.5t64 -66.5t61 -70.5t58.5 -63.5q-9 71 -16.5 119t-15.5 77.5t-17.5 42.5t-22.5 13l45 96h111l-11 -44t-11.5 -47.5t-9.5 -44t-4 -33.5v-251h55l-11 -44t-11.5 -47.5t-9 -44t-3.5 -33.5v-211q0 -30 -23.5 -58 t-57 -50.5t-69.5 -36t-61 -13.5q-53 0 -109.5 12.5t-112.5 35.5q38 -61 92 -89.5t114 -28.5q64 0 126 30t137 92q9 8 20 15t20 7q5 0 7.5 -3.5t2.5 -7.5q0 -5 -4.5 -11t-10 -12t-11.5 -11.5t-9 -9.5q-33 -38 -65.5 -71.5t-67.5 -58.5t-76 -39.5t-92 -14.5q-59 0 -99 25 t-69 63t-51 84t-46 88q-2 4 -5 11t-3 12q0 2 3.5 5.5t10.5 3.5q8 0 32 -8q20 -7 49 -17.5t63 -20.5t70 -17t71 -7t67 9.5t56.5 24.5t39 32.5t14.5 33.5q-2 23 -5.5 62t-8 81t-9.5 80.5t-10 61.5h-130q-5 -13 -8 -32t-5 -40t-3 -43t-1 -40q0 -5 -3 -27t-9 -47.5t-14.5 -45.5 t-18.5 -20q-5 0 -8.5 22t-6.5 54.5t-6.5 71t-8 71t-11 54.5t-15.5 22h-65q-6 0 -8.5 -8.5t-3.5 -14.5q-4 -37 -17.5 -71t-35.5 -60.5t-51 -42.5t-63 -16q-11 0 -11 10q0 1 3.5 5t7.5 7.5l8 7t6 4.5q16 12 30.5 34t26 47.5t18.5 51.5t7 46h-18q-18 0 -23 3t-5 15q0 4 4.5 15 t10.5 23t12 23.5t9 16.5h420q-65 66 -155 137t-203 131q-13 -5 -25.5 -13.5t-22.5 -19t-16 -22.5t-6 -22q43 0 79.5 -19.5t62.5 -46t40.5 -53t14.5 -39.5q0 -3 -2 -8t-7 -5q-4 0 -10.5 3t-11.5 9q-7 8 -25.5 19t-45 20.5t-59 16t-67.5 6.5q-21 0 -40.5 -3t-42.5 -9 q0 3 1.5 17.5t8 32t19.5 34t36 24.5q0 24 10.5 57t41.5 62l16 15h-41q-18 0 -23 3t-5 15q0 4 4.5 15t10.5 23t12 23.5t9 16.5h286z" />
<glyph unicode="&#xf336;&#xf72;" d="M378 744l-36 -72q-17 -24 -50 -24h-11q35 -20 67.5 -51.5t64 -66.5t61 -70.5t58.5 -63.5q-9 71 -16.5 119t-15.5 77.5t-17.5 42.5t-22.5 13l45 96h111l-11 -44t-11.5 -47.5t-9.5 -44t-4 -33.5v-251h55l-11 -44t-11.5 -47.5t-9 -44t-3.5 -33.5v-211q0 -30 -23.5 -58 t-57 -50.5t-69.5 -36t-61 -13.5q-53 0 -109.5 12.5t-112.5 35.5q38 -61 92 -89.5t114 -28.5q64 0 126 30t137 92q9 8 20 15t20 7q5 0 7.5 -3.5t2.5 -7.5q0 -5 -4.5 -11t-10 -12t-11.5 -11.5t-9 -9.5q-33 -38 -65.5 -71.5t-67.5 -58.5t-76 -39.5t-92 -14.5q-59 0 -99 25 t-69 63t-51 84t-46 88q-2 4 -5 11t-3 12q0 2 3.5 5.5t10.5 3.5q8 0 32 -8q20 -7 49 -17.5t63 -20.5t70 -17t71 -7t67 9.5t56.5 24.5t39 32.5t14.5 33.5q-2 23 -5.5 62t-8 81t-9.5 80.5t-10 61.5h-130q-5 -13 -8 -32t-5 -40t-3 -43t-1 -40q0 -5 -3 -27t-9 -47.5t-14.5 -45.5 t-18.5 -20q-5 0 -8.5 22t-6.5 54.5t-6.5 71t-8 71t-11 54.5t-15.5 22h-65q-6 0 -8.5 -8.5t-3.5 -14.5q-4 -37 -17.5 -71t-35.5 -60.5t-51 -42.5t-63 -16q-11 0 -11 10q0 1 3.5 5t7.5 7.5l8 7t6 4.5q16 12 30.5 34t26 47.5t18.5 51.5t7 46h-18q-18 0 -23 3t-5 15q0 4 4.5 15 t10.5 23t12 23.5t9 16.5h420q-65 66 -155 137t-203 131q-13 -5 -25.5 -13.5t-22.5 -19t-16 -22.5t-6 -22q43 0 79.5 -19.5t62.5 -46t40.5 -53t14.5 -39.5q0 -3 -2 -8t-7 -5q-4 0 -10.5 3t-11.5 9q-7 8 -25.5 19t-45 20.5t-59 16t-67.5 6.5q-21 0 -40.5 -3t-42.5 -9 q0 3 1.5 17.5t8 32t19.5 34t36 24.5q0 24 10.5 57t41.5 62l16 15h-41q-18 0 -23 3t-5 15q0 4 4.5 15t10.5 23t12 23.5t9 16.5h286zM258 1166q41 0 87 -38t93.5 -95t93.5 -122.5t88 -120.5q0 -7 -6.5 -9.5t-11.5 -2.5q-11 0 -34 21.5t-54.5 54t-69 70.5t-79 70.5t-84 54 t-83.5 21.5q-10 0 -22.5 -4t-23 -11.5t-18 -18t-7.5 -23.5q0 -11 3.5 -23t12 -22.5t22.5 -17.5t35 -7q19 0 33 6t23.5 12.5t15.5 12.5t9 6q4 0 5.5 -3.5t1.5 -5.5q0 -27 -10.5 -49t-27.5 -38t-38.5 -25t-42.5 -9q-20 0 -39.5 9t-34.5 23.5t-24.5 33.5t-9.5 39q0 52 24 92 t56.5 66t65.5 39.5t51 13.5z" />
<glyph unicode="&#xf336;&#xf80;" d="M378 744l-36 -72q-17 -24 -50 -24h-11q35 -20 67.5 -51.5t64 -66.5t61 -70.5t58.5 -63.5q-9 71 -16.5 119t-15.5 77.5t-17.5 42.5t-22.5 13l45 96h111l-11 -44t-11.5 -47.5t-9.5 -44t-4 -33.5v-251h55l-11 -44t-11.5 -47.5t-9 -44t-3.5 -33.5v-211q0 -30 -23.5 -58 t-57 -50.5t-69.5 -36t-61 -13.5q-53 0 -109.5 12.5t-112.5 35.5q38 -61 92 -89.5t114 -28.5q64 0 126 30t137 92q9 8 20 15t20 7q5 0 7.5 -3.5t2.5 -7.5q0 -5 -4.5 -11t-10 -12t-11.5 -11.5t-9 -9.5q-33 -38 -65.5 -71.5t-67.5 -58.5t-76 -39.5t-92 -14.5q-59 0 -99 25 t-69 63t-51 84t-46 88q-2 4 -5 11t-3 12q0 2 3.5 5.5t10.5 3.5q8 0 32 -8q20 -7 49 -17.5t63 -20.5t70 -17t71 -7t67 9.5t56.5 24.5t39 32.5t14.5 33.5q-2 23 -5.5 62t-8 81t-9.5 80.5t-10 61.5h-130q-5 -13 -8 -32t-5 -40t-3 -43t-1 -40q0 -5 -3 -27t-9 -47.5t-14.5 -45.5 t-18.5 -20q-5 0 -8.5 22t-6.5 54.5t-6.5 71t-8 71t-11 54.5t-15.5 22h-65q-6 0 -8.5 -8.5t-3.5 -14.5q-4 -37 -17.5 -71t-35.5 -60.5t-51 -42.5t-63 -16q-11 0 -11 10q0 1 3.5 5t7.5 7.5l8 7t6 4.5q16 12 30.5 34t26 47.5t18.5 51.5t7 46h-18q-18 0 -23 3t-5 15q0 4 4.5 15 t10.5 23t12 23.5t9 16.5h420q-65 66 -155 137t-203 131q-13 -5 -25.5 -13.5t-22.5 -19t-16 -22.5t-6 -22q43 0 79.5 -19.5t62.5 -46t40.5 -53t14.5 -39.5q0 -3 -2 -8t-7 -5q-4 0 -10.5 3t-11.5 9q-7 8 -25.5 19t-45 20.5t-59 16t-67.5 6.5q-21 0 -40.5 -3t-42.5 -9 q0 3 1.5 17.5t8 32t19.5 34t36 24.5q0 24 10.5 57t41.5 62l16 15h-41q-18 0 -23 3t-5 15q0 4 4.5 15t10.5 23t12 23.5t9 16.5h286zM105 802q44 53 84.5 112.5t78.5 109t73 82t67 32.5q12 0 33.5 -3t46 -11.5t50.5 -23.5t46.5 -38.5t34 -58t13.5 -80.5q0 -20 -8.5 -38.5 t-22 -32t-30.5 -21.5t-34 -8q-21 0 -42 7.5t-37 22t-26 35.5t-10 48q0 2 1.5 6.5t5.5 4.5t11 -5t17 -10.5t22 -10.5t27 -5q17 0 28.5 6t18.5 15.5t10 21t3 22.5q0 13 -9.5 25t-24.5 21t-33.5 14.5t-35.5 5.5q-31 0 -65 -19t-68.5 -48t-67 -62t-60 -62t-48.5 -48t-32 -19 q-5 0 -11 3t-6 10z" />
<glyph unicode="&#xf336;&#xf74;" horiz-adv-x="680" d="M635 340l-11 -44t-11.5 -47.5t-9 -44t-3.5 -33.5v-188q0 -32 -22 -60.5t-53.5 -50t-66 -34t-59.5 -12.5q-53 0 -117.5 12.5t-120.5 35.5q19 -30 45 -52.5t55.5 -37t60.5 -21.5t61 -7q32 0 60.5 7.5t57 22.5t59.5 38t69 54q9 8 20 15t20 7q5 0 7.5 -3.5t2.5 -7.5 q0 -5 -4.5 -11t-10 -12t-11.5 -11.5t-9 -9.5l-21 -24l-74 -142q12 3 26 3q31 0 56.5 -12.5t44 -34t28.5 -50t10 -59.5q0 -39 -16.5 -73t-42.5 -59.5t-58.5 -40t-65.5 -14.5q-39 0 -73 17.5t-66 46.5t-65.5 66t-72 76.5t-84.5 78t-104 70.5q-8 5 -14 11t-6 14q0 5 4.5 8 t8.5 3q16 0 34 -7q43 -19 88.5 -48t90.5 -62t89.5 -65.5t86 -59t78.5 -43t69 -16.5q29 0 50 15.5t21 53.5q0 17 -10.5 32t-27 26t-37 17.5t-40.5 6.5q-12 0 -24 -5t-22.5 -11t-19.5 -11t-17 -5q-5 0 -5.5 11.5t-0.5 20.5q0 11 5.5 26.5t17.5 31.5l49 94q-20 -16 -38.5 -29 t-39 -22.5t-43.5 -14.5t-53 -5q-59 0 -101.5 25t-74.5 63t-56.5 84t-48.5 88q-2 4 -5 11t-3 12q0 2 3.5 5.5t10.5 3.5q8 0 32 -8q20 -7 51.5 -17.5t68.5 -20.5t75.5 -17t73.5 -7q25 0 49.5 7.5t46 20t38.5 27.5t27 30q-2 23 -5 60.5t-7.5 78t-9.5 77.5t-10 60h-125 q-5 -13 -8 -32t-5 -40t-3 -43t-1 -40q0 -5 -3 -27t-9 -47.5t-14.5 -45.5t-18.5 -20q-5 0 -8.5 22t-6.5 54.5t-6.5 71t-8 71t-11 54.5t-15.5 22h-62q-6 0 -8.5 -8.5t-3.5 -14.5q-4 -37 -18.5 -71.5t-37 -61t-52 -42.5t-63.5 -16q-10 0 -10 10q0 1 3.5 4.5t7.5 8t8 8t6 4.5 q16 12 30.5 34t26 47.5t18.5 51.5t7 46h-18q-18 0 -23 3t-5 15q0 4 4.5 15t10.5 23t12 23.5t9 16.5h521zM399 744l-33 -72q-6 -13 -13.5 -18.5t-34.5 -5.5q32 -27 61 -52.5t56.5 -52.5t54 -57.5t54.5 -67.5l-15 116q-3 23 -6 45t-7.5 39.5t-10.5 28t-15 10.5l35 87h118 q-5 -20 -12.5 -44t-14 -47.5t-11.5 -44t-5 -33.5v-235h-54q-25 27 -58 56t-68 57t-70.5 53.5t-65.5 44.5t-52.5 30.5t-31.5 11.5q-25 -2 -47.5 -18t-23.5 -36q42 -1 75.5 -22t57.5 -48t37 -52.5t13 -35.5q0 -5 -4 -9.5t-11 -4.5q-8 0 -15.5 4.5t-12.5 10.5q-19 22 -38 34.5 t-41 19.5t-48 9t-57 2q-21 0 -41 -5t-42 -7q0 3 1.5 17.5t8 32t19.5 34t36 24.5q6 21 21 44.5t38 45.5l16 15h-68q-18 0 -23 3t-5 15q0 4 4.5 15t10.5 23t12 23.5t9 16.5h317z" />
<glyph unicode="&#xf336;&#xf7a;" d="M378 744l-36 -72q-17 -24 -50 -24h-11q35 -20 67.5 -51.5t64 -66.5t61 -70.5t58.5 -63.5q-9 71 -16.5 119t-15.5 77.5t-17.5 42.5t-22.5 13l45 96h111l-11 -44t-11.5 -47.5t-9.5 -44t-4 -33.5v-251h55l-11 -44t-11.5 -47.5t-9 -44t-3.5 -33.5v-211q0 -30 -23.5 -58 t-57 -50.5t-69.5 -36t-61 -13.5q-53 0 -109.5 12.5t-112.5 35.5q38 -61 92 -89.5t114 -28.5q64 0 126 30t137 92q9 8 20 15t20 7q5 0 7.5 -3.5t2.5 -7.5q0 -5 -4.5 -11t-10 -12t-11.5 -11.5t-9 -9.5q-33 -38 -65.5 -71.5t-67.5 -58.5t-76 -39.5t-92 -14.5q-59 0 -99 25 t-69 63t-51 84t-46 88q-2 4 -5 11t-3 12q0 2 3.5 5.5t10.5 3.5q8 0 32 -8q20 -7 49 -17.5t63 -20.5t70 -17t71 -7t67 9.5t56.5 24.5t39 32.5t14.5 33.5q-2 23 -5.5 62t-8 81t-9.5 80.5t-10 61.5h-130q-5 -13 -8 -32t-5 -40t-3 -43t-1 -40q0 -5 -3 -27t-9 -47.5t-14.5 -45.5 t-18.5 -20q-5 0 -8.5 22t-6.5 54.5t-6.5 71t-8 71t-11 54.5t-15.5 22h-65q-6 0 -8.5 -8.5t-3.5 -14.5q-4 -37 -17.5 -71t-35.5 -60.5t-51 -42.5t-63 -16q-11 0 -11 10q0 1 3.5 5t7.5 7.5l8 7t6 4.5q16 12 30.5 34t26 47.5t18.5 51.5t7 46h-18q-18 0 -23 3t-5 15q0 4 4.5 15 t10.5 23t12 23.5t9 16.5h420q-65 66 -155 137t-203 131q-13 -5 -25.5 -13.5t-22.5 -19t-16 -22.5t-6 -22q43 0 79.5 -19.5t62.5 -46t40.5 -53t14.5 -39.5q0 -3 -2 -8t-7 -5q-4 0 -10.5 3t-11.5 9q-7 8 -25.5 19t-45 20.5t-59 16t-67.5 6.5q-21 0 -40.5 -3t-42.5 -9 q0 3 1.5 17.5t8 32t19.5 34t36 24.5q0 24 10.5 57t41.5 62l16 15h-41q-18 0 -23 3t-5 15q0 4 4.5 15t10.5 23t12 23.5t9 16.5h286zM580 793q0 -13 -11 -13t-33 13.5t-52 34t-66.5 45t-75.5 47.5q-30 18 -68 36.5t-75.5 33.5t-71.5 24.5t-56 9.5h-17t-20 -2q0 13 7.5 30 t18 32t22 25.5t19.5 10.5q40 0 83 -14.5t86 -38t84.5 -54t79 -63t69 -64.5t54.5 -59l18 -21q5 -5 5 -13z" />
<glyph unicode="&#xf336;&#xf7c;" d="M378 744l-36 -72q-17 -24 -50 -24h-11q35 -20 67.5 -51.5t64 -66.5t61 -70.5t58.5 -63.5q-9 71 -16.5 119t-15.5 77.5t-17.5 42.5t-22.5 13l45 96h111l-11 -44t-11.5 -47.5t-9.5 -44t-4 -33.5v-251h55l-11 -44t-11.5 -47.5t-9 -44t-3.5 -33.5v-211q0 -30 -23.5 -58 t-57 -50.5t-69.5 -36t-61 -13.5q-53 0 -109.5 12.5t-112.5 35.5q38 -61 92 -89.5t114 -28.5q64 0 126 30t137 92q9 8 20 15t20 7q5 0 7.5 -3.5t2.5 -7.5q0 -5 -4.5 -11t-10 -12t-11.5 -11.5t-9 -9.5q-33 -38 -65.5 -71.5t-67.5 -58.5t-76 -39.5t-92 -14.5q-59 0 -99 25 t-69 63t-51 84t-46 88q-2 4 -5 11t-3 12q0 2 3.5 5.5t10.5 3.5q8 0 32 -8q20 -7 49 -17.5t63 -20.5t70 -17t71 -7t67 9.5t56.5 24.5t39 32.5t14.5 33.5q-2 23 -5.5 62t-8 81t-9.5 80.5t-10 61.5h-130q-5 -13 -8 -32t-5 -40t-3 -43t-1 -40q0 -5 -3 -27t-9 -47.5t-14.5 -45.5 t-18.5 -20q-5 0 -8.5 22t-6.5 54.5t-6.5 71t-8 71t-11 54.5t-15.5 22h-65q-6 0 -8.5 -8.5t-3.5 -14.5q-4 -37 -17.5 -71t-35.5 -60.5t-51 -42.5t-63 -16q-11 0 -11 10q0 1 3.5 5t7.5 7.5l8 7t6 4.5q16 12 30.5 34t26 47.5t18.5 51.5t7 46h-18q-18 0 -23 3t-5 15q0 4 4.5 15 t10.5 23t12 23.5t9 16.5h420q-65 66 -155 137t-203 131q-13 -5 -25.5 -13.5t-22.5 -19t-16 -22.5t-6 -22q43 0 79.5 -19.5t62.5 -46t40.5 -53t14.5 -39.5q0 -3 -2 -8t-7 -5q-4 0 -10.5 3t-11.5 9q-7 8 -25.5 19t-45 20.5t-59 16t-67.5 6.5q-21 0 -40.5 -3t-42.5 -9 q0 3 1.5 17.5t8 32t19.5 34t36 24.5q0 24 10.5 57t41.5 62l16 15h-41q-18 0 -23 3t-5 15q0 4 4.5 15t10.5 23t12 23.5t9 16.5h286zM-5 947h-17t-20 -2q0 13 7 30t17 32t21 25.5t19 10.5q33 0 77.5 -17t87.5 -46.5t78 -68t49 -81.5l3 8q9 39 20 76t34.5 65.5t65 46 t111.5 17.5q34 0 59 1t46 6t42.5 16t48.5 31q13 0 13 -6q0 -20 -24.5 -45t-60.5 -47t-76.5 -36.5t-73.5 -14.5q-38 0 -70.5 -14t-56.5 -36t-38 -49t-14 -52q0 -8 -9.5 -13t-14.5 -5q-10 0 -21 22q-16 33 -51 59.5t-78 46t-89 30t-85 10.5z" />
<glyph unicode="&#xf66;&#xf90;&#xfb2;" horiz-adv-x="680" d="M396 744l-33 -72q-6 -13 -13.5 -18.5t-34.5 -5.5q39 -41 64 -68.5t47.5 -55t49 -61t68.5 -85.5l-5 80q-3 43 -7.5 79.5t-10.5 63t-14 41.5t-17 15l35 87h118q-5 -20 -12.5 -44t-14 -47.5t-11.5 -44t-5 -33.5v-275h32q-5 -19 -10.5 -42.5t-10.5 -46.5t-8 -43.5t-3 -33.5 v-490l-62 38q-41 25 -80 41t-84 25t-100 12.5t-127 4.5q-21 0 -48.5 -2t-47.5 -8q0 26 11.5 46.5t30.5 34.5t43 21t49 7q52 0 108.5 -8.5t108 -25t92.5 -41t62 -57.5l-6 108q-2 22 -6 67.5t-9.5 98t-11.5 106t-11 92.5h-127q-2 -20 -4.5 -40.5t-3.5 -61.5q0 -3 -2 -20 t-5.5 -39.5t-8 -48t-10 -47.5t-11.5 -36t-12 -14q-4 0 -6.5 20t-4.5 51.5t-4 71.5t-5 80q-1 15 -4 30t-8 27t-11.5 19.5t-14.5 7.5h-50q0 -39 -12.5 -74.5t-34.5 -62.5t-52.5 -42.5t-67.5 -15.5q-11 0 -11 8q0 1 3.5 4t7.5 6l8 6t6 4q16 12 30.5 32t25.5 43.5t18 47.5t7 44 h-18q-18 0 -23 3t-5 15q0 4 4.5 15t10.5 23t12 23.5t9 16.5h408q-27 23 -60.5 53t-69 62.5t-71 64.5t-65 57t-52 40.5t-31.5 15.5q-13 -5 -27 -14.5t-25 -20.5t-18.5 -23.5t-7.5 -23.5q35 0 62.5 -10.5t48.5 -27.5t35.5 -37.5t23.5 -40.5t13.5 -36.5t4.5 -25.5q0 -3 -2 -8 t-7 -5q-4 0 -10.5 3t-11.5 9q-7 8 -24.5 22.5t-43 28.5t-58.5 24.5t-71 10.5q-21 0 -40.5 -3t-42.5 -9q0 3 1.5 17.5t8 32t19.5 34t36 24.5q0 24 15.5 57t46.5 62l16 15h-68q-18 0 -23 3t-5 15q0 4 4.5 15t10.5 23t12 23.5t9 16.5h317z" />
<glyph unicode="&#xf33c;&#xf72;" horiz-adv-x="680" d="M396 744l-33 -72q-6 -13 -13.5 -18.5t-34.5 -5.5q39 -41 64 -68.5t47.5 -55t49 -61t68.5 -85.5l-5 80q-3 43 -7.5 79.5t-10.5 63t-14 41.5t-17 15l35 87h118q-5 -20 -12.5 -44t-14 -47.5t-11.5 -44t-5 -33.5v-275h32q-5 -19 -10.5 -42.5t-10.5 -46.5t-8 -43.5t-3 -33.5 v-490l-62 38q-41 25 -80 41t-84 25t-100 12.5t-127 4.5q-21 0 -48.5 -2t-47.5 -8q0 26 11.5 46.5t30.5 34.5t43 21t49 7q52 0 108.5 -8.5t108 -25t92.5 -41t62 -57.5l-6 108q-2 22 -6 67.5t-9.5 98t-11.5 106t-11 92.5h-127q-2 -20 -4.5 -40.5t-3.5 -61.5q0 -3 -2 -20 t-5.5 -39.5t-8 -48t-10 -47.5t-11.5 -36t-12 -14q-4 0 -6.5 20t-4.5 51.5t-4 71.5t-5 80q-1 15 -4 30t-8 27t-11.5 19.5t-14.5 7.5h-50q0 -39 -12.5 -74.5t-34.5 -62.5t-52.5 -42.5t-67.5 -15.5q-11 0 -11 8q0 1 3.5 4t7.5 6l8 6t6 4q16 12 30.5 32t25.5 43.5t18 47.5t7 44 h-18q-18 0 -23 3t-5 15q0 4 4.5 15t10.5 23t12 23.5t9 16.5h408q-27 23 -60.5 53t-69 62.5t-71 64.5t-65 57t-52 40.5t-31.5 15.5q-13 -5 -27 -14.5t-25 -20.5t-18.5 -23.5t-7.5 -23.5q35 0 62.5 -10.5t48.5 -27.5t35.5 -37.5t23.5 -40.5t13.5 -36.5t4.5 -25.5q0 -3 -2 -8 t-7 -5q-4 0 -10.5 3t-11.5 9q-7 8 -24.5 22.5t-43 28.5t-58.5 24.5t-71 10.5q-21 0 -40.5 -3t-42.5 -9q0 3 1.5 17.5t8 32t19.5 34t36 24.5q0 24 15.5 57t46.5 62l16 15h-68q-18 0 -23 3t-5 15q0 4 4.5 15t10.5 23t12 23.5t9 16.5h317zM257 1166q41 0 87 -38t93.5 -95 t93.5 -122.5t88 -120.5q0 -7 -6.5 -9.5t-11.5 -2.5q-11 0 -34 21.5t-54.5 54t-69 70.5t-79 70.5t-84 54t-83.5 21.5q-10 0 -22.5 -4t-23 -11.5t-18 -18t-7.5 -23.5q0 -11 3.5 -23t12 -22.5t22.5 -17.5t35 -7q19 0 33 6t23.5 12.5t15.5 12.5t9 6q4 0 5.5 -3.5t1.5 -5.5 q0 -27 -10.5 -49t-27.5 -38t-38.5 -25t-42.5 -9q-20 0 -39.5 9t-34.5 23.5t-24.5 33.5t-9.5 39q0 52 24 92t56.5 66t65.5 39.5t51 13.5z" />
<glyph unicode="&#xf33c;&#xf80;" horiz-adv-x="680" d="M396 744l-33 -72q-6 -13 -13.5 -18.5t-34.5 -5.5q39 -41 64 -68.5t47.5 -55t49 -61t68.5 -85.5l-5 80q-3 43 -7.5 79.5t-10.5 63t-14 41.5t-17 15l35 87h118q-5 -20 -12.5 -44t-14 -47.5t-11.5 -44t-5 -33.5v-275h32q-5 -19 -10.5 -42.5t-10.5 -46.5t-8 -43.5t-3 -33.5 v-490l-62 38q-41 25 -80 41t-84 25t-100 12.5t-127 4.5q-21 0 -48.5 -2t-47.5 -8q0 26 11.5 46.5t30.5 34.5t43 21t49 7q52 0 108.5 -8.5t108 -25t92.5 -41t62 -57.5l-6 108q-2 22 -6 67.5t-9.5 98t-11.5 106t-11 92.5h-127q-2 -20 -4.5 -40.5t-3.5 -61.5q0 -3 -2 -20 t-5.5 -39.5t-8 -48t-10 -47.5t-11.5 -36t-12 -14q-4 0 -6.5 20t-4.5 51.5t-4 71.5t-5 80q-1 15 -4 30t-8 27t-11.5 19.5t-14.5 7.5h-50q0 -39 -12.5 -74.5t-34.5 -62.5t-52.5 -42.5t-67.5 -15.5q-11 0 -11 8q0 1 3.5 4t7.5 6l8 6t6 4q16 12 30.5 32t25.5 43.5t18 47.5t7 44 h-18q-18 0 -23 3t-5 15q0 4 4.5 15t10.5 23t12 23.5t9 16.5h408q-27 23 -60.5 53t-69 62.5t-71 64.5t-65 57t-52 40.5t-31.5 15.5q-13 -5 -27 -14.5t-25 -20.5t-18.5 -23.5t-7.5 -23.5q35 0 62.5 -10.5t48.5 -27.5t35.5 -37.5t23.5 -40.5t13.5 -36.5t4.5 -25.5q0 -3 -2 -8 t-7 -5q-4 0 -10.5 3t-11.5 9q-7 8 -24.5 22.5t-43 28.5t-58.5 24.5t-71 10.5q-21 0 -40.5 -3t-42.5 -9q0 3 1.5 17.5t8 32t19.5 34t36 24.5q0 24 15.5 57t46.5 62l16 15h-68q-18 0 -23 3t-5 15q0 4 4.5 15t10.5 23t12 23.5t9 16.5h317zM105 802q44 53 84.5 112.5t78.5 109 t73 82t67 32.5q12 0 33.5 -3t46 -11.5t50.5 -23.5t46.5 -38.5t34 -58t13.5 -80.5q0 -20 -8.5 -38.5t-22 -32t-30.5 -21.5t-34 -8q-21 0 -42 7.5t-37 22t-26 35.5t-10 48q0 2 1.5 6.5t5.5 4.5t11 -5t17 -10.5t22 -10.5t27 -5q17 0 28.5 6t18.5 15.5t10 21t3 22.5 q0 13 -9.5 25t-24.5 21t-33.5 14.5t-35.5 5.5q-31 0 -65 -19t-68.5 -48t-67 -62t-60 -62t-48.5 -48t-32 -19q-5 0 -11 3t-6 10z" />
<glyph unicode="&#xf33c;&#xf74;" horiz-adv-x="680" d="M399 744l-33 -72q-6 -13 -13.5 -18.5t-34.5 -5.5q32 -27 61 -52.5t56.5 -52.5t54 -57.5t54.5 -67.5l-15 116q-3 23 -6 45t-7.5 39.5t-10.5 28t-15 10.5l35 87h118q-5 -20 -12.5 -44t-14 -47.5t-11.5 -44t-5 -33.5v-235h35l-11 -44t-11.5 -47.5t-9 -44t-3.5 -33.5v-443 l-62 38q-41 25 -73 41.5t-68.5 26.5t-84.5 14.5t-120 5.5q-21 0 -48.5 -2t-47.5 -8q0 26 11.5 47t30.5 35.5t43 22t49 7.5q52 0 101 -11.5t91 -32t75.5 -48.5t54.5 -61q0 7 -0.5 18t-2.5 41t-7 87t-14 156q-2 14 -4.5 37.5t-8.5 46t-15.5 39t-24.5 16.5h-86 q-4 -29 -5.5 -49.5t-2.5 -46.5q0 -5 -2 -31.5t-7 -57t-13 -55t-20 -24.5q-8 0 -14.5 49.5t-12.5 130.5q-1 15 -4 30t-8 27t-11.5 19.5t-14.5 7.5h-58q0 -39 -11 -72t-31.5 -57t-49.5 -37.5t-66 -13.5q-11 0 -11 9q0 2 11 9t14 9q16 12 29 29.5t22.5 38.5t15 43t5.5 42h-44 q-18 0 -23 3t-5 15q0 4 4.5 15t10.5 23t12 23.5t9 16.5h438q-25 27 -58 56t-68 57t-70.5 53.5t-65.5 44.5t-52.5 30.5t-31.5 11.5q-25 -2 -47.5 -18t-23.5 -36q42 -1 75.5 -22t57.5 -48t37 -52.5t13 -35.5q0 -5 -4 -9.5t-11 -4.5q-8 0 -15.5 4.5t-12.5 10.5q-19 22 -38 34.5 t-41 19.5t-48 9t-57 2q-21 0 -41 -5t-42 -7q0 3 1.5 17.5t8 32t19.5 34t36 24.5q6 21 21 44.5t38 45.5l16 15h-68q-18 0 -23 3t-5 15q0 4 4.5 15t10.5 23t12 23.5t9 16.5h317zM680 -437q0 -39 -13 -72.5t-34.5 -58.5t-50.5 -39t-62 -14q-39 0 -71 15t-61.5 40.5t-60 58 t-67 68t-82 70.5t-104.5 65q-20 8 -20 25q0 5 4.5 11t8.5 6q7 0 15.5 -0.5t18.5 -4.5q65 -29 127 -73.5t120.5 -87t112 -73t100.5 -30.5q29 0 50 14t21 52q0 17 -10.5 32t-27 26t-37 17.5t-40.5 6.5q-21 0 -39 -8q-3 -1 -9 -5t-12.5 -8t-13 -7.5t-9.5 -3.5q-5 0 -5.5 11.5 t-0.5 20.5q0 12 6.5 29.5t20.5 33.5t35.5 27.5t50.5 11.5q31 0 56.5 -12.5t44 -34t28.5 -50t10 -59.5z" />
<glyph unicode="&#xf33c;&#xf7a;" horiz-adv-x="680" d="M396 744l-33 -72q-6 -13 -13.5 -18.5t-34.5 -5.5q39 -41 64 -68.5t47.5 -55t49 -61t68.5 -85.5l-5 80q-3 43 -7.5 79.5t-10.5 63t-14 41.5t-17 15l35 87h118q-5 -20 -12.5 -44t-14 -47.5t-11.5 -44t-5 -33.5v-275h32q-5 -19 -10.5 -42.5t-10.5 -46.5t-8 -43.5t-3 -33.5 v-490l-62 38q-41 25 -80 41t-84 25t-100 12.5t-127 4.5q-21 0 -48.5 -2t-47.5 -8q0 26 11.5 46.5t30.5 34.5t43 21t49 7q52 0 108.5 -8.5t108 -25t92.5 -41t62 -57.5l-6 108q-2 22 -6 67.5t-9.5 98t-11.5 106t-11 92.5h-127q-2 -20 -4.5 -40.5t-3.5 -61.5q0 -3 -2 -20 t-5.5 -39.5t-8 -48t-10 -47.5t-11.5 -36t-12 -14q-4 0 -6.5 20t-4.5 51.5t-4 71.5t-5 80q-1 15 -4 30t-8 27t-11.5 19.5t-14.5 7.5h-50q0 -39 -12.5 -74.5t-34.5 -62.5t-52.5 -42.5t-67.5 -15.5q-11 0 -11 8q0 1 3.5 4t7.5 6l8 6t6 4q16 12 30.5 32t25.5 43.5t18 47.5t7 44 h-18q-18 0 -23 3t-5 15q0 4 4.5 15t10.5 23t12 23.5t9 16.5h408q-27 23 -60.5 53t-69 62.5t-71 64.5t-65 57t-52 40.5t-31.5 15.5q-13 -5 -27 -14.5t-25 -20.5t-18.5 -23.5t-7.5 -23.5q35 0 62.5 -10.5t48.5 -27.5t35.5 -37.5t23.5 -40.5t13.5 -36.5t4.5 -25.5q0 -3 -2 -8 t-7 -5q-4 0 -10.5 3t-11.5 9q-7 8 -24.5 22.5t-43 28.5t-58.5 24.5t-71 10.5q-21 0 -40.5 -3t-42.5 -9q0 3 1.5 17.5t8 32t19.5 34t36 24.5q0 24 15.5 57t46.5 62l16 15h-68q-18 0 -23 3t-5 15q0 4 4.5 15t10.5 23t12 23.5t9 16.5h317zM590 793q0 -13 -11 -13t-33 13.5 t-52 34t-66.5 45t-75.5 47.5q-30 18 -68 36.5t-75.5 33.5t-71.5 24.5t-56 9.5h-17t-20 -2q0 13 7.5 30t18 32t22 25.5t19.5 10.5q40 0 83 -14.5t86 -38t84.5 -54t79 -63t69 -64.5t54.5 -59l18 -21q5 -5 5 -13z" />
<glyph unicode="&#xf33c;&#xf7c;" horiz-adv-x="680" d="M396 744l-33 -72q-6 -13 -13.5 -18.5t-34.5 -5.5q39 -41 64 -68.5t47.5 -55t49 -61t68.5 -85.5l-5 80q-3 43 -7.5 79.5t-10.5 63t-14 41.5t-17 15l35 87h118q-5 -20 -12.5 -44t-14 -47.5t-11.5 -44t-5 -33.5v-275h32q-5 -19 -10.5 -42.5t-10.5 -46.5t-8 -43.5t-3 -33.5 v-490l-62 38q-41 25 -80 41t-84 25t-100 12.5t-127 4.5q-21 0 -48.5 -2t-47.5 -8q0 26 11.5 46.5t30.5 34.5t43 21t49 7q52 0 108.5 -8.5t108 -25t92.5 -41t62 -57.5l-6 108q-2 22 -6 67.5t-9.5 98t-11.5 106t-11 92.5h-127q-2 -20 -4.5 -40.5t-3.5 -61.5q0 -3 -2 -20 t-5.5 -39.5t-8 -48t-10 -47.5t-11.5 -36t-12 -14q-4 0 -6.5 20t-4.5 51.5t-4 71.5t-5 80q-1 15 -4 30t-8 27t-11.5 19.5t-14.5 7.5h-50q0 -39 -12.5 -74.5t-34.5 -62.5t-52.5 -42.5t-67.5 -15.5q-11 0 -11 8q0 1 3.5 4t7.5 6l8 6t6 4q16 12 30.5 32t25.5 43.5t18 47.5t7 44 h-18q-18 0 -23 3t-5 15q0 4 4.5 15t10.5 23t12 23.5t9 16.5h408q-27 23 -60.5 53t-69 62.5t-71 64.5t-65 57t-52 40.5t-31.5 15.5q-13 -5 -27 -14.5t-25 -20.5t-18.5 -23.5t-7.5 -23.5q35 0 62.5 -10.5t48.5 -27.5t35.5 -37.5t23.5 -40.5t13.5 -36.5t4.5 -25.5q0 -3 -2 -8 t-7 -5q-4 0 -10.5 3t-11.5 9q-7 8 -24.5 22.5t-43 28.5t-58.5 24.5t-71 10.5q-21 0 -40.5 -3t-42.5 -9q0 3 1.5 17.5t8 32t19.5 34t36 24.5q0 24 15.5 57t46.5 62l16 15h-68q-18 0 -23 3t-5 15q0 4 4.5 15t10.5 23t12 23.5t9 16.5h317zM4 947h-17t-20 -2q0 13 7 30t17 32 t21 25.5t19 10.5q33 0 77.5 -17t87.5 -46.5t78 -68t49 -81.5l3 8q9 39 20 76t34.5 65.5t65 46t111.5 17.5q34 0 59 1t46 6t42.5 16t48.5 31q13 0 13 -6q0 -20 -24.5 -45t-60.5 -47t-76.5 -36.5t-73.5 -14.5q-38 0 -70.5 -14t-56.5 -36t-38 -49t-14 -52q0 -8 -9.5 -13 t-14.5 -5q-10 0 -21 22q-16 33 -51 59.5t-78 46t-89 30t-85 10.5z" />
<glyph unicode="&#xf41;&#xf71;" d="M611 744q-7 -40 -19 -67t-12 -52v-425h31v-17q0 -11 -5 -24t-12 -14q5 -8 11 -22t6 -25q0 -21 -10.5 -44.5t-31.5 -39.5q18 0 37.5 -12.5t38 -34t34 -51t26.5 -62.5q0 -5 -3.5 -9.5t-9.5 -4.5t-17 14q-16 20 -30 34t-31 23t-39 13t-55 4q-13 0 -32.5 -3.5t-43.5 -8.5 q0 6 1 22.5t8.5 33t23 29.5t44.5 13q15 10 25.5 22.5t10.5 24.5q0 21 -18.5 32t-61.5 11h-31q-32 0 -56 -11t-24 -32q0 -16 4 -28t8.5 -21l8.5 -17t4 -16q0 -12 -5 -28.5t-12 -32.5t-15.5 -27t-15.5 -11q-6 0 -8 3t-2 5t1 4t1 4q0 20 -6 38t-13 34t-13 29t-6 24 q0 36 14.5 68.5t36.5 57t47.5 39t46.5 14.5h109q-14 12 -38.5 37.5t-54.5 51.5t-63 46t-65 20q-14 0 -30.5 -2t-32.5 -5t-29 -7.5t-20 -9.5q0 4 1.5 18t6 31t12 32.5t19.5 21.5q0 35 7 69t17 62.5t21.5 50.5t20.5 33h-150q-6 0 -13.5 -5.5t-15 -14.5t-13 -21t-7.5 -26 l-32 -420q-1 -8 -4 -13t-9 -5q-22 0 -22 18l-20 451q0 8 11 29.5t25.5 44t29.5 40t24 17.5h484zM429 649q-18 0 -40 -22.5t-40.5 -54.5t-31 -67t-12.5 -59q14 2 26.5 3t23.5 1q27 0 53 -17t49 -41t42.5 -50t34.5 -43l-31 230q-5 36 -10 59t-10.5 36.5t-12.5 18.5t-15 6h-26z " />
<glyph unicode="&#xf41;&#xf72;" d="M611 744q-4 -19 -9.5 -40t-10 -41t-8 -37.5t-3.5 -30.5v-376q0 -16 -16 -16q-6 0 -19 11.5t-31 28t-40 36.5t-46 36.5t-49 28t-49 11.5q-14 0 -30.5 -2t-32.5 -5t-29 -7.5t-20 -9.5q0 4 1.5 18t6 31t12 32.5t19.5 21.5q0 35 7 69t17 62.5t21.5 50.5t20.5 33h-150 q-6 0 -14 -5.5t-15.5 -14.5t-13 -21t-6.5 -26l-32 -420q-1 -8 -4 -13t-9 -5q-22 0 -22 18l-20 451q0 7 12 28t27.5 44t30 41t20.5 18h484zM430 649q-18 0 -40 -22.5t-41 -54.5t-31.5 -67t-12.5 -59q14 2 26.5 3t23.5 1q27 0 53 -15.5t49 -37.5t42.5 -46.5t34.5 -41.5 l-21 220q-3 36 -8 59t-11 36.5t-13.5 18.5t-15.5 6h-35zM247 1166q41 0 87 -38t93.5 -95t93.5 -122.5t88 -120.5q0 -7 -6.5 -9.5t-11.5 -2.5q-11 0 -34 21.5t-54.5 54t-69 70.5t-79 70.5t-84 54t-83.5 21.5q-10 0 -22.5 -4t-23 -11.5t-18 -18t-7.5 -23.5q0 -11 3.5 -23 t12 -22.5t22.5 -17.5t35 -7q19 0 33 6t23.5 12.5t15.5 12.5t9 6q4 0 5.5 -3.5t1.5 -5.5q0 -27 -10.5 -49t-27.5 -38t-38.5 -25t-42.5 -9q-20 0 -39.5 9t-34.5 23.5t-24.5 33.5t-9.5 39q0 52 24 92t56.5 66t65.5 39.5t51 13.5z" />
<glyph unicode="&#xf41;&#xf80;" d="M611 744q-4 -19 -9.5 -40t-10 -41t-8 -37.5t-3.5 -30.5v-376q0 -16 -16 -16q-6 0 -19 11.5t-31 28t-40 36.5t-46 36.5t-49 28t-49 11.5q-14 0 -30.5 -2t-32.5 -5t-29 -7.5t-20 -9.5q0 4 1.5 18t6 31t12 32.5t19.5 21.5q0 35 7 69t17 62.5t21.5 50.5t20.5 33h-150 q-6 0 -14 -5.5t-15.5 -14.5t-13 -21t-6.5 -26l-32 -420q-1 -8 -4 -13t-9 -5q-22 0 -22 18l-20 451q0 7 12 28t27.5 44t30 41t20.5 18h484zM430 649q-18 0 -40 -22.5t-41 -54.5t-31.5 -67t-12.5 -59q14 2 26.5 3t23.5 1q27 0 53 -15.5t49 -37.5t42.5 -46.5t34.5 -41.5 l-21 220q-3 36 -8 59t-11 36.5t-13.5 18.5t-15.5 6h-35zM65 802q44 53 84.5 112.5t78.5 109t73 82t67 32.5q12 0 33.5 -3t46 -11.5t50.5 -23.5t46.5 -38.5t34 -58t13.5 -80.5q0 -20 -8.5 -38.5t-22 -32t-30.5 -21.5t-34 -8q-21 0 -42 7.5t-37 22t-26 35.5t-10 48 q0 2 1.5 6.5t5.5 4.5t11 -5t17 -10.5t22 -10.5t27 -5q17 0 28.5 6t18.5 15.5t10 21t3 22.5q0 13 -9.5 25t-24.5 21t-33.5 14.5t-35.5 5.5q-31 0 -65 -19t-68.5 -48t-67 -62t-60 -62t-48.5 -48t-32 -19q-5 0 -11 3t-6 10z" />
<glyph unicode="&#xf41;&#xf74;" horiz-adv-x="680" d="M709 30q0 -39 -16.5 -73.5t-42.5 -61t-58.5 -41.5t-65.5 -15q-47 0 -92 22t-97.5 61t-118.5 92.5t-155 116.5q-9 6 -14.5 11.5t-5.5 13.5q0 5 4.5 8t8.5 3q16 0 34 -7q65 -29 133.5 -67.5t134 -73t125.5 -59t107 -24.5q29 0 50 14t21 52q0 17 -10.5 32t-27 26t-37 17.5 t-40.5 6.5q-12 0 -24 -5t-23 -11t-20 -11t-16 -5q-5 0 -5.5 11.5t-0.5 20.5q0 12 6.5 28t20.5 30t35.5 24t50.5 10q31 0 56.5 -11t44 -30.5t28.5 -46.5t10 -58zM631 744q-7 -40 -19 -67t-12 -52v-416q0 -16 -16 -16q-6 0 -18 12t-28.5 30t-36.5 39t-42 39t-44.5 30t-44.5 12 q-14 0 -33 -1.5t-38 -4t-34.5 -6.5t-22.5 -9q0 4 2 17.5t7 30t13.5 31.5t22.5 21q0 35 7 69t17 62.5t21.5 50.5t20.5 33h-150q-6 0 -14 -5.5t-15.5 -14.5t-13 -21t-6.5 -26l-32 -380q-1 -8 -4 -13t-9 -5q-22 0 -22 18l-20 411q0 7 12 28t27.5 44t30 41t20.5 18h474zM385 450 q28 0 50 -7t41.5 -24.5t38 -46.5t39.5 -73l-31 230q-5 36 -10 59t-10.5 36.5t-12.5 18.5t-15 6h-34q-18 0 -37 -22.5t-34.5 -54.5t-25 -67t-9.5 -59q9 3 23 3.5t27 0.5z" />
<glyph unicode="&#xf41;&#xf7a;" d="M611 744q-4 -19 -9.5 -40t-10 -41t-8 -37.5t-3.5 -30.5v-376q0 -16 -16 -16q-6 0 -19 11.5t-31 28t-40 36.5t-46 36.5t-49 28t-49 11.5q-14 0 -30.5 -2t-32.5 -5t-29 -7.5t-20 -9.5q0 4 1.5 18t6 31t12 32.5t19.5 21.5q0 35 7 69t17 62.5t21.5 50.5t20.5 33h-150 q-6 0 -14 -5.5t-15.5 -14.5t-13 -21t-6.5 -26l-32 -420q-1 -8 -4 -13t-9 -5q-22 0 -22 18l-20 451q0 7 12 28t27.5 44t30 41t20.5 18h484zM430 649q-18 0 -40 -22.5t-41 -54.5t-31.5 -67t-12.5 -59q14 2 26.5 3t23.5 1q27 0 53 -15.5t49 -37.5t42.5 -46.5t34.5 -41.5 l-21 220q-3 36 -8 59t-11 36.5t-13.5 18.5t-15.5 6h-35zM593 793q0 -13 -11 -13t-33 13.5t-52 34t-66.5 45t-75.5 47.5q-30 18 -68 36.5t-75.5 33.5t-71.5 24.5t-56 9.5h-17t-20 -2q0 13 7.5 30t18 32t22 25.5t19.5 10.5q40 0 83 -14.5t86 -38t84.5 -54t79 -63t69 -64.5 t54.5 -59l18 -21q5 -5 5 -13z" />
<glyph unicode="&#xf41;&#xf7c;" d="M611 744q-4 -19 -9.5 -40t-10 -41t-8 -37.5t-3.5 -30.5v-376q0 -16 -16 -16q-6 0 -19 11.5t-31 28t-40 36.5t-46 36.5t-49 28t-49 11.5q-14 0 -30.5 -2t-32.5 -5t-29 -7.5t-20 -9.5q0 4 1.5 18t6 31t12 32.5t19.5 21.5q0 35 7 69t17 62.5t21.5 50.5t20.5 33h-150 q-6 0 -14 -5.5t-15.5 -14.5t-13 -21t-6.5 -26l-32 -420q-1 -8 -4 -13t-9 -5q-22 0 -22 18l-20 451q0 7 12 28t27.5 44t30 41t20.5 18h484zM430 649q-18 0 -40 -22.5t-41 -54.5t-31.5 -67t-12.5 -59q14 2 26.5 3t23.5 1q27 0 53 -15.5t49 -37.5t42.5 -46.5t34.5 -41.5 l-21 220q-3 36 -8 59t-11 36.5t-13.5 18.5t-15.5 6h-35zM-3 947h-17t-20 -2q0 13 7 30t17 32t21 25.5t19 10.5q33 0 77.5 -17t87.5 -46.5t78 -68t49 -81.5l3 8q9 39 20 76t34.5 65.5t65 46t111.5 17.5q34 0 59 1t46 6t42.5 16t48.5 31q13 0 13 -6q0 -20 -24.5 -45t-60.5 -47 t-76.5 -36.5t-73.5 -14.5q-38 0 -70.5 -14t-56.5 -36t-38 -49t-14 -52q0 -8 -9.5 -13t-14.5 -5q-10 0 -21 22q-16 33 -51 59.5t-78 46t-89 30t-85 10.5z" />
<glyph unicode="&#xf41;&#xfb1;" horiz-adv-x="680" d="M627 744q-4 -20 -8.5 -44t-8.5 -47.5t-7 -44t-3 -33.5v-293q0 -32 -22 -61t-53.5 -50.5t-66 -34t-59.5 -12.5q-53 0 -104.5 12.5t-107.5 35.5q38 -61 87 -89t109 -28q32 0 61.5 7.5t59.5 22.5t62 37.5t70 53.5q9 8 20 16.5t20 8.5q5 0 7.5 -3.5t2.5 -7.5q0 -5 -4 -11.5 t-10 -13t-12 -12.5t-9 -10q-32 -38 -62.5 -71.5t-64 -58t-73.5 -39t-91 -14.5q-59 0 -97.5 24.5t-65.5 63t-47.5 84t-44.5 87.5q-2 4 -5 11t-3 12q0 2 3.5 5.5t10.5 3.5q8 0 32 -8q20 -7 47.5 -17.5t59.5 -20.5t66.5 -17t69.5 -7q25 0 49 8t44.5 20t37 27.5t25.5 30.5 q-32 32 -56 56.5t-46.5 41.5t-46.5 26t-55 9q-14 0 -32 -2t-36 -5t-32.5 -7.5t-21.5 -9.5q0 4 1.5 18.5t6 31.5t12 32.5t19.5 21.5q0 34 6.5 60t16.5 46t21 35t22 27h-153q-6 0 -14 -5.5t-16 -14.5t-13.5 -21.5t-5.5 -25.5l-32 -303q-1 -8 -4 -14.5t-9 -6.5q-10 0 -15.5 6.5 t-6.5 14.5l-20 334q0 7 12 28.5t27 44.5t30 41t21 18h505zM353 496q56 0 107.5 -41t93.5 -129l-23 202q-4 35 -9.5 58t-14.5 37t-22.5 19.5t-32.5 5.5h-13q-18 0 -41.5 -15t-44.5 -38.5t-35.5 -51t-14.5 -51.5q9 3 23 3.5t27 0.5z" />
<glyph unicode="&#xf348;&#xf72;" horiz-adv-x="680" d="M627 744q-4 -20 -8.5 -44t-8.5 -47.5t-7 -44t-3 -33.5v-293q0 -32 -22 -61t-53.5 -50.5t-66 -34t-59.5 -12.5q-53 0 -104.5 12.5t-107.5 35.5q38 -61 87 -89t109 -28q32 0 61.5 7.5t59.5 22.5t62 37.5t70 53.5q9 8 20 16.5t20 8.5q5 0 7.5 -3.5t2.5 -7.5q0 -5 -4 -11.5 t-10 -13t-12 -12.5t-9 -10q-32 -38 -62.5 -71.5t-64 -58t-73.5 -39t-91 -14.5q-59 0 -97.5 24.5t-65.5 63t-47.5 84t-44.5 87.5q-2 4 -5 11t-3 12q0 2 3.5 5.5t10.5 3.5q8 0 32 -8q20 -7 47.5 -17.5t59.5 -20.5t66.5 -17t69.5 -7q25 0 49 8t44.5 20t37 27.5t25.5 30.5 q-32 32 -56 56.5t-46.5 41.5t-46.5 26t-55 9q-14 0 -32 -2t-36 -5t-32.5 -7.5t-21.5 -9.5q0 4 1.5 18.5t6 31.5t12 32.5t19.5 21.5q0 34 6.5 60t16.5 46t21 35t22 27h-153q-6 0 -14 -5.5t-16 -14.5t-13.5 -21.5t-5.5 -25.5l-32 -303q-1 -8 -4 -14.5t-9 -6.5q-10 0 -15.5 6.5 t-6.5 14.5l-20 334q0 7 12 28.5t27 44.5t30 41t21 18h505zM353 496q56 0 107.5 -41t93.5 -129l-23 202q-4 35 -9.5 58t-14.5 37t-22.5 19.5t-32.5 5.5h-13q-18 0 -41.5 -15t-44.5 -38.5t-35.5 -51t-14.5 -51.5q9 3 23 3.5t27 0.5zM257 1166q41 0 87 -38t93.5 -95 t93.5 -122.5t88 -120.5q0 -7 -6.5 -9.5t-11.5 -2.5q-11 0 -34 21.5t-54.5 54t-69 70.5t-79 70.5t-84 54t-83.5 21.5q-10 0 -22.5 -4t-23 -11.5t-18 -18t-7.5 -23.5q0 -11 3.5 -23t12 -22.5t22.5 -17.5t35 -7q19 0 33 6t23.5 12.5t15.5 12.5t9 6q4 0 5.5 -3.5t1.5 -5.5 q0 -27 -10.5 -49t-27.5 -38t-38.5 -25t-42.5 -9q-20 0 -39.5 9t-34.5 23.5t-24.5 33.5t-9.5 39q0 52 24 92t56.5 66t65.5 39.5t51 13.5z" />
<glyph unicode="&#xf348;&#xf80;" horiz-adv-x="680" d="M627 744q-4 -20 -8.5 -44t-8.5 -47.5t-7 -44t-3 -33.5v-293q0 -32 -22 -61t-53.5 -50.5t-66 -34t-59.5 -12.5q-53 0 -104.5 12.5t-107.5 35.5q38 -61 87 -89t109 -28q32 0 61.5 7.5t59.5 22.5t62 37.5t70 53.5q9 8 20 16.5t20 8.5q5 0 7.5 -3.5t2.5 -7.5q0 -5 -4 -11.5 t-10 -13t-12 -12.5t-9 -10q-32 -38 -62.5 -71.5t-64 -58t-73.5 -39t-91 -14.5q-59 0 -97.5 24.5t-65.5 63t-47.5 84t-44.5 87.5q-2 4 -5 11t-3 12q0 2 3.5 5.5t10.5 3.5q8 0 32 -8q20 -7 47.5 -17.5t59.5 -20.5t66.5 -17t69.5 -7q25 0 49 8t44.5 20t37 27.5t25.5 30.5 q-32 32 -56 56.5t-46.5 41.5t-46.5 26t-55 9q-14 0 -32 -2t-36 -5t-32.5 -7.5t-21.5 -9.5q0 4 1.5 18.5t6 31.5t12 32.5t19.5 21.5q0 34 6.5 60t16.5 46t21 35t22 27h-153q-6 0 -14 -5.5t-16 -14.5t-13.5 -21.5t-5.5 -25.5l-32 -303q-1 -8 -4 -14.5t-9 -6.5q-10 0 -15.5 6.5 t-6.5 14.5l-20 334q0 7 12 28.5t27 44.5t30 41t21 18h505zM353 496q56 0 107.5 -41t93.5 -129l-23 202q-4 35 -9.5 58t-14.5 37t-22.5 19.5t-32.5 5.5h-13q-18 0 -41.5 -15t-44.5 -38.5t-35.5 -51t-14.5 -51.5q9 3 23 3.5t27 0.5zM101 802q44 53 84.5 112.5t78.5 109t73 82 t67 32.5q12 0 33.5 -3t46 -11.5t50.5 -23.5t46.5 -38.5t34 -58t13.5 -80.5q0 -20 -8.5 -38.5t-22 -32t-30.5 -21.5t-34 -8q-21 0 -42 7.5t-37 22t-26 35.5t-10 48q0 2 1.5 6.5t5.5 4.5t11 -5t17 -10.5t22 -10.5t27 -5q17 0 28.5 6t18.5 15.5t10 21t3 22.5q0 13 -9.5 25 t-24.5 21t-33.5 14.5t-35.5 5.5q-31 0 -65 -19t-68.5 -48t-67 -62t-60 -62t-48.5 -48t-32 -19q-5 0 -11 3t-6 10z" />
<glyph unicode="&#xf348;&#xf74;" horiz-adv-x="670" d="M344 498q28 0 55 -7t52.5 -24.5t49 -46.5t44.5 -73l-31 182q-6 36 -12 59t-15 36.5t-22.5 19t-34.5 5.5q-18 0 -41.5 -18t-44.5 -42.5t-35.5 -51t-14.5 -43.5q9 3 23 3.5t27 0.5zM622 745q-4 -20 -9 -44t-10 -47.5t-8.5 -44t-3.5 -33.5v-293q0 -32 -23.5 -61t-57 -50.5 t-69.5 -34t-61 -12.5q-53 0 -109.5 12.5t-112.5 35.5q38 -61 92 -89.5t114 -28.5q64 0 126 30t137 92q9 8 20 15t20 7q5 0 7.5 -3.5t2.5 -7.5q0 -5 -4.5 -11t-10 -12t-11.5 -11.5t-9 -9.5l-21 -24l-74 -142q12 3 26 3q31 0 56.5 -12.5t44 -34t28.5 -50t10 -59.5 q0 -39 -16.5 -73t-42.5 -58.5t-58.5 -39t-65.5 -14.5q-39 0 -74 17t-69.5 44.5t-70 63.5t-76.5 74.5t-88 76.5t-105 70q-8 5 -14 11t-6 14q0 5 4.5 8t8.5 3q16 0 34 -7q43 -19 89.5 -47.5t94 -60t94 -63.5t90 -57t82 -41t70.5 -16q29 0 50 14.5t21 52.5q0 17 -10.5 32 t-27 26t-37 17.5t-40.5 6.5q-12 0 -24 -5t-22.5 -11t-19.5 -11t-17 -5q-5 0 -5.5 11.5t-0.5 20.5q0 11 5.5 26.5t17.5 31.5l49 94q-40 -32 -85.5 -51.5t-105.5 -19.5q-59 0 -98.5 20.5t-66.5 54.5t-45.5 77t-35.5 88q-2 4 -5 11t-3 12q0 2 3.5 5.5t10.5 3.5q8 0 32 -8 q41 -14 102.5 -28t131.5 -14q31 0 62.5 11.5t56.5 29t41 37t16 35.5q-32 32 -57.5 52.5t-50 32.5t-50 17t-56.5 5q-14 0 -32 -2t-36 -5t-32.5 -7.5t-21.5 -9.5q0 4 1.5 18.5t6 31.5t12 32.5t19.5 21.5q0 26 6 50.5t15.5 45.5t20.5 38.5t20 28.5q1 2 2 2.5t2 1.5h-131 q-6 0 -14 -5.5t-15.5 -14.5t-13.5 -21.5t-6 -25.5l-32 -297q-1 -8 -5.5 -15t-10.5 -7q-7 0 -12.5 7t-6.5 15l-20 328q0 7 12 28.5t27 44.5t30 41t21 18h487z" />
<glyph unicode="&#xf348;&#xf7a;" horiz-adv-x="680" d="M627 744q-4 -20 -8.5 -44t-8.5 -47.5t-7 -44t-3 -33.5v-293q0 -32 -22 -61t-53.5 -50.5t-66 -34t-59.5 -12.5q-53 0 -104.5 12.5t-107.5 35.5q38 -61 87 -89t109 -28q32 0 61.5 7.5t59.5 22.5t62 37.5t70 53.5q9 8 20 16.5t20 8.5q5 0 7.5 -3.5t2.5 -7.5q0 -5 -4 -11.5 t-10 -13t-12 -12.5t-9 -10q-32 -38 -62.5 -71.5t-64 -58t-73.5 -39t-91 -14.5q-59 0 -97.5 24.5t-65.5 63t-47.5 84t-44.5 87.5q-2 4 -5 11t-3 12q0 2 3.5 5.5t10.5 3.5q8 0 32 -8q20 -7 47.5 -17.5t59.5 -20.5t66.5 -17t69.5 -7q25 0 49 8t44.5 20t37 27.5t25.5 30.5 q-32 32 -56 56.5t-46.5 41.5t-46.5 26t-55 9q-14 0 -32 -2t-36 -5t-32.5 -7.5t-21.5 -9.5q0 4 1.5 18.5t6 31.5t12 32.5t19.5 21.5q0 34 6.5 60t16.5 46t21 35t22 27h-153q-6 0 -14 -5.5t-16 -14.5t-13.5 -21.5t-5.5 -25.5l-32 -303q-1 -8 -4 -14.5t-9 -6.5q-10 0 -15.5 6.5 t-6.5 14.5l-20 334q0 7 12 28.5t27 44.5t30 41t21 18h505zM353 496q56 0 107.5 -41t93.5 -129l-23 202q-4 35 -9.5 58t-14.5 37t-22.5 19.5t-32.5 5.5h-13q-18 0 -41.5 -15t-44.5 -38.5t-35.5 -51t-14.5 -51.5q9 3 23 3.5t27 0.5zM602 793q0 -13 -11 -13t-33 13.5t-52 34 t-66.5 45t-75.5 47.5q-30 18 -68 36.5t-75.5 33.5t-71.5 24.5t-56 9.5h-17t-20 -2q0 13 7.5 30t18 32t22 25.5t19.5 10.5q40 0 83 -14.5t86 -38t84.5 -54t79 -63t69 -64.5t54.5 -59l18 -21q5 -5 5 -13z" />
<glyph unicode="&#xf348;&#xf7c;" horiz-adv-x="680" d="M627 744q-4 -20 -8.5 -44t-8.5 -47.5t-7 -44t-3 -33.5v-293q0 -32 -22 -61t-53.5 -50.5t-66 -34t-59.5 -12.5q-53 0 -104.5 12.5t-107.5 35.5q38 -61 87 -89t109 -28q32 0 61.5 7.5t59.5 22.5t62 37.5t70 53.5q9 8 20 16.5t20 8.5q5 0 7.5 -3.5t2.5 -7.5q0 -5 -4 -11.5 t-10 -13t-12 -12.5t-9 -10q-32 -38 -62.5 -71.5t-64 -58t-73.5 -39t-91 -14.5q-59 0 -97.5 24.5t-65.5 63t-47.5 84t-44.5 87.5q-2 4 -5 11t-3 12q0 2 3.5 5.5t10.5 3.5q8 0 32 -8q20 -7 47.5 -17.5t59.5 -20.5t66.5 -17t69.5 -7q25 0 49 8t44.5 20t37 27.5t25.5 30.5 q-32 32 -56 56.5t-46.5 41.5t-46.5 26t-55 9q-14 0 -32 -2t-36 -5t-32.5 -7.5t-21.5 -9.5q0 4 1.5 18.5t6 31.5t12 32.5t19.5 21.5q0 34 6.5 60t16.5 46t21 35t22 27h-153q-6 0 -14 -5.5t-16 -14.5t-13.5 -21.5t-5.5 -25.5l-32 -303q-1 -8 -4 -14.5t-9 -6.5q-10 0 -15.5 6.5 t-6.5 14.5l-20 334q0 7 12 28.5t27 44.5t30 41t21 18h505zM353 496q56 0 107.5 -41t93.5 -129l-23 202q-4 35 -9.5 58t-14.5 37t-22.5 19.5t-32.5 5.5h-13q-18 0 -41.5 -15t-44.5 -38.5t-35.5 -51t-14.5 -51.5q9 3 23 3.5t27 0.5zM15 947h-17t-20 -2q0 13 7 30t17 32 t21 25.5t19 10.5q33 0 77.5 -17t87.5 -46.5t78 -68t49 -81.5l3 8q9 39 20 76t34.5 65.5t65 46t111.5 17.5q34 0 59 1t46 6t42.5 16t48.5 31q13 0 13 -6q0 -20 -24.5 -45t-60.5 -47t-76.5 -36.5t-73.5 -14.5q-38 0 -70.5 -14t-56.5 -36t-38 -49t-14 -52q0 -8 -9.5 -13 t-14.5 -5q-10 0 -21 22q-16 33 -51 59.5t-78 46t-89 30t-85 10.5z" />
<glyph unicode="&#xf41;&#xfb2;" d="M611 744q-3 -20 -8.5 -43.5t-10.5 -46t-8.5 -42.5t-3.5 -33v-617l-62 38q-41 25 -69 45.5t-59.5 35t-76 22.5t-117.5 8q-11 0 -27 -1t-33 -2.5t-33 -4t-26 -5.5q0 26 10.5 48t28.5 37.5t42 24.5t51 9q51 0 99.5 -14t91 -37t77 -53.5t57.5 -63.5l-8 187q-18 18 -41 39 t-48.5 39t-53 29.5t-53.5 11.5q-14 0 -30.5 -2t-32.5 -5t-29 -7.5t-20 -9.5q0 4 1.5 18t6 31t12 32.5t19.5 21.5q0 35 7 69t17 62.5t21.5 50.5t20.5 33h-150q-6 0 -14 -5.5t-15.5 -14.5t-13 -21t-6.5 -26l-33 -345q-1 -8 -6 -13t-11 -5q-16 0 -18 18l-19 376q0 7 12 28 t27.5 44t30 41t20.5 18h484zM429 649q-18 0 -40 -22.5t-40.5 -54.5t-31 -67t-12.5 -59q14 2 26.5 3t23.5 1q27 0 53 -17t49 -41t42.5 -50t34.5 -43l-23 230q-4 36 -9 59t-11 36.5t-13 18.5t-15 6h-34z" />
<glyph unicode="&#xf34e;&#xf72;" d="M611 744q-3 -20 -8.5 -43.5t-10.5 -46t-8.5 -42.5t-3.5 -33v-617l-62 38q-41 25 -69 45.5t-59.5 35t-76 22.5t-117.5 8q-11 0 -27 -1t-33 -2.5t-33 -4t-26 -5.5q0 26 10.5 48t28.5 37.5t42 24.5t51 9q51 0 99.5 -14t91 -37t77 -53.5t57.5 -63.5l-8 187q-18 18 -41 39 t-48.5 39t-53 29.5t-53.5 11.5q-14 0 -30.5 -2t-32.5 -5t-29 -7.5t-20 -9.5q0 4 1.5 18t6 31t12 32.5t19.5 21.5q0 35 7 69t17 62.5t21.5 50.5t20.5 33h-150q-6 0 -14 -5.5t-15.5 -14.5t-13 -21t-6.5 -26l-33 -345q-1 -8 -6 -13t-11 -5q-16 0 -18 18l-19 376q0 7 12 28 t27.5 44t30 41t20.5 18h484zM429 649q-18 0 -40 -22.5t-40.5 -54.5t-31 -67t-12.5 -59q14 2 26.5 3t23.5 1q27 0 53 -17t49 -41t42.5 -50t34.5 -43l-23 230q-4 36 -9 59t-11 36.5t-13 18.5t-15 6h-34zM247 1166q41 0 87 -38t93.5 -95t93.5 -122.5t88 -120.5q0 -7 -6.5 -9.5 t-11.5 -2.5q-11 0 -34 21.5t-54.5 54t-69 70.5t-79 70.5t-84 54t-83.5 21.5q-10 0 -22.5 -4t-23 -11.5t-18 -18t-7.5 -23.5q0 -11 3.5 -23t12 -22.5t22.5 -17.5t35 -7q19 0 33 6t23.5 12.5t15.5 12.5t9 6q4 0 5.5 -3.5t1.5 -5.5q0 -27 -10.5 -49t-27.5 -38t-38.5 -25 t-42.5 -9q-20 0 -39.5 9t-34.5 23.5t-24.5 33.5t-9.5 39q0 52 24 92t56.5 66t65.5 39.5t51 13.5z" />
<glyph unicode="&#xf34e;&#xf80;" d="M611 744q-3 -20 -8.5 -43.5t-10.5 -46t-8.5 -42.5t-3.5 -33v-617l-62 38q-41 25 -69 45.5t-59.5 35t-76 22.5t-117.5 8q-11 0 -27 -1t-33 -2.5t-33 -4t-26 -5.5q0 26 10.5 48t28.5 37.5t42 24.5t51 9q51 0 99.5 -14t91 -37t77 -53.5t57.5 -63.5l-8 187q-18 18 -41 39 t-48.5 39t-53 29.5t-53.5 11.5q-14 0 -30.5 -2t-32.5 -5t-29 -7.5t-20 -9.5q0 4 1.5 18t6 31t12 32.5t19.5 21.5q0 35 7 69t17 62.5t21.5 50.5t20.5 33h-150q-6 0 -14 -5.5t-15.5 -14.5t-13 -21t-6.5 -26l-33 -345q-1 -8 -6 -13t-11 -5q-16 0 -18 18l-19 376q0 7 12 28 t27.5 44t30 41t20.5 18h484zM429 649q-18 0 -40 -22.5t-40.5 -54.5t-31 -67t-12.5 -59q14 2 26.5 3t23.5 1q27 0 53 -17t49 -41t42.5 -50t34.5 -43l-23 230q-4 36 -9 59t-11 36.5t-13 18.5t-15 6h-34zM94 802q44 53 84.5 112.5t78.5 109t73 82t67 32.5q12 0 33.5 -3 t46 -11.5t50.5 -23.5t46.5 -38.5t34 -58t13.5 -80.5q0 -20 -8.5 -38.5t-22 -32t-30.5 -21.5t-34 -8q-21 0 -42 7.5t-37 22t-26 35.5t-10 48q0 2 1.5 6.5t5.5 4.5t11 -5t17 -10.5t22 -10.5t27 -5q17 0 28.5 6t18.5 15.5t10 21t3 22.5q0 13 -9.5 25t-24.5 21t-33.5 14.5 t-35.5 5.5q-31 0 -65 -19t-68.5 -48t-67 -62t-60 -62t-48.5 -48t-32 -19q-5 0 -11 3t-6 10z" />
<glyph unicode="&#xf34e;&#xf74;" d="M686 -197q0 -39 -11 -70.5t-31 -54t-47.5 -34.5t-60.5 -12q-30 0 -58 17.5t-57.5 46.5t-61.5 66.5t-71.5 76.5t-87 76.5t-106.5 67.5q-20 8 -20 25q0 5 4.5 8t8.5 3q16 0 34 -7q43 -19 84 -48t80.5 -61t76.5 -64.5t72 -58.5t68 -42t65 -16q14 0 27 1t22.5 6.5t15.5 16 t6 29.5q0 17 -10.5 32t-27 26t-37 17.5t-40.5 6.5q-21 0 -39 -8q-3 -1 -9 -5t-12.5 -8t-13 -7.5t-9.5 -3.5q-5 0 -5.5 11.5t-0.5 20.5q0 12 6.5 29.5t20.5 33.5t35.5 27.5t50.5 11.5q31 0 56.5 -12.5t44 -34t28.5 -50t10 -59.5zM611 744q-8 -40 -19.5 -76.5t-11.5 -62.5 v-643l-62 38q-41 25 -69 45.5t-59.5 35t-76 22.5t-117.5 8q-11 0 -27 -1t-33 -2.5t-33 -4t-26 -5.5q0 26 10.5 48t28.5 37.5t42 24.5t51 9q51 0 99.5 -14t91 -37t77 -53.5t57.5 -63.5l-8 187q-18 18 -41 39t-48.5 39t-53 29.5t-53.5 11.5q-14 0 -30.5 -2t-32.5 -5t-29 -7.5 t-20 -9.5q0 4 1.5 18t6 31t12 32.5t19.5 21.5q0 35 7 69t17 62.5t21.5 50.5t20.5 33h-150q-6 0 -14 -5.5t-15.5 -14.5t-13 -21t-6.5 -26l-33 -345q-1 -8 -6 -13t-11 -5q-16 0 -18 18l-19 376q0 7 12 28t27.5 44t30 41t20.5 18h484zM429 649q-18 0 -40 -22.5t-40.5 -54.5 t-31 -67t-12.5 -59q14 2 26.5 3t23.5 1q27 0 53 -17t49 -41t42.5 -50t34.5 -43l-24 230q-3 36 -8 59t-11 36.5t-13.5 18.5t-15.5 6h-33z" />
<glyph unicode="&#xf34e;&#xf7a;" d="M611 744q-3 -20 -8.5 -43.5t-10.5 -46t-8.5 -42.5t-3.5 -33v-617l-62 38q-41 25 -69 45.5t-59.5 35t-76 22.5t-117.5 8q-11 0 -27 -1t-33 -2.5t-33 -4t-26 -5.5q0 26 10.5 48t28.5 37.5t42 24.5t51 9q51 0 99.5 -14t91 -37t77 -53.5t57.5 -63.5l-8 187q-18 18 -41 39 t-48.5 39t-53 29.5t-53.5 11.5q-14 0 -30.5 -2t-32.5 -5t-29 -7.5t-20 -9.5q0 4 1.5 18t6 31t12 32.5t19.5 21.5q0 35 7 69t17 62.5t21.5 50.5t20.5 33h-150q-6 0 -14 -5.5t-15.5 -14.5t-13 -21t-6.5 -26l-33 -345q-1 -8 -6 -13t-11 -5q-16 0 -18 18l-19 376q0 7 12 28 t27.5 44t30 41t20.5 18h484zM429 649q-18 0 -40 -22.5t-40.5 -54.5t-31 -67t-12.5 -59q14 2 26.5 3t23.5 1q27 0 53 -17t49 -41t42.5 -50t34.5 -43l-23 230q-4 36 -9 59t-11 36.5t-13 18.5t-15 6h-34zM565 793q0 -13 -11 -13t-33 13.5t-52 34t-66.5 45t-75.5 47.5 q-30 18 -68 36.5t-75.5 33.5t-71.5 24.5t-56 9.5h-17t-20 -2q0 13 7.5 30t18 32t22 25.5t19.5 10.5q40 0 83 -14.5t86 -38t84.5 -54t79 -63t69 -64.5t54.5 -59l18 -21q5 -5 5 -13z" />
<glyph unicode="&#xf34e;&#xf7c;" d="M611 744q-3 -20 -8.5 -43.5t-10.5 -46t-8.5 -42.5t-3.5 -33v-617l-62 38q-41 25 -69 45.5t-59.5 35t-76 22.5t-117.5 8q-11 0 -27 -1t-33 -2.5t-33 -4t-26 -5.5q0 26 10.5 48t28.5 37.5t42 24.5t51 9q51 0 99.5 -14t91 -37t77 -53.5t57.5 -63.5l-8 187q-18 18 -41 39 t-48.5 39t-53 29.5t-53.5 11.5q-14 0 -30.5 -2t-32.5 -5t-29 -7.5t-20 -9.5q0 4 1.5 18t6 31t12 32.5t19.5 21.5q0 35 7 69t17 62.5t21.5 50.5t20.5 33h-150q-6 0 -14 -5.5t-15.5 -14.5t-13 -21t-6.5 -26l-33 -345q-1 -8 -6 -13t-11 -5q-16 0 -18 18l-19 376q0 7 12 28 t27.5 44t30 41t20.5 18h484zM429 649q-18 0 -40 -22.5t-40.5 -54.5t-31 -67t-12.5 -59q14 2 26.5 3t23.5 1q27 0 53 -17t49 -41t42.5 -50t34.5 -43l-23 230q-4 36 -9 59t-11 36.5t-13 18.5t-15 6h-34zM24 947h-17t-20 -2q0 13 7 30t17 32t21 25.5t19 10.5q33 0 77.5 -17 t87.5 -46.5t78 -68t49 -81.5l3 8q9 39 20 76t34.5 65.5t65 46t111.5 17.5q34 0 59 1t46 6t42.5 16t48.5 31q13 0 13 -6q0 -20 -24.5 -45t-60.5 -47t-76.5 -36.5t-73.5 -14.5q-38 0 -70.5 -14t-56.5 -36t-38 -49t-14 -52q0 -8 -9.5 -13t-14.5 -5q-10 0 -21 22 q-16 33 -51 59.5t-78 46t-89 30t-85 10.5z" />
<glyph unicode="&#xf41;&#xfad;" horiz-adv-x="670" d="M622 744q-3 -20 -8.5 -36t-11 -30.5t-9 -27t-3.5 -25.5v-700q-19 12 -45 26t-56 26.5t-62.5 20.5t-64.5 8q17 31 38.5 61t45 58.5t47 54.5t44.5 50v12q-18 18 -41 39.5t-48.5 40t-53 31t-53.5 12.5q-14 0 -30.5 -2t-32.5 -5t-29 -7.5t-20 -9.5q0 4 1.5 18t6 31t12 32.5 t19.5 21.5q0 35 7 67.5t17 59t21.5 47t20.5 31.5h-150q-6 0 -14 -5.5t-15.5 -14.5t-13 -21t-6.5 -26l-32 -420q-1 -8 -4 -13t-9 -5q-22 0 -22 18l-20 451q0 7 12 28t27.5 44t30 41t20.5 18h484zM366 460q25 0 48.5 -14.5t44.5 -36t39.5 -45.5t33.5 -43l-13 208 q-2 36 -7 59.5t-11 37t-14 18.5t-16 5h-29q-18 0 -40 -21t-41 -51t-32 -63.5t-13 -57.5q14 2 26.5 3t23.5 1zM542 157q-29 -23 -53 -45t-44 -46q16 0 31.5 -6.5t30 -16t26 -21.5t19.5 -23z" />
<glyph unicode="&#xf354;&#xf72;" horiz-adv-x="670" d="M622 744q-3 -20 -8.5 -36t-11 -30.5t-9 -27t-3.5 -25.5v-700q-19 12 -45 26t-56 26.5t-62.5 20.5t-64.5 8q17 31 38.5 61t45 58.5t47 54.5t44.5 50v12q-18 18 -41 39.5t-48.5 40t-53 31t-53.5 12.5q-14 0 -30.5 -2t-32.5 -5t-29 -7.5t-20 -9.5q0 4 1.5 18t6 31t12 32.5 t19.5 21.5q0 35 7 67.5t17 59t21.5 47t20.5 31.5h-150q-6 0 -14 -5.5t-15.5 -14.5t-13 -21t-6.5 -26l-32 -420q-1 -8 -4 -13t-9 -5q-22 0 -22 18l-20 451q0 7 12 28t27.5 44t30 41t20.5 18h484zM366 460q25 0 48.5 -14.5t44.5 -36t39.5 -45.5t33.5 -43l-13 208 q-2 36 -7 59.5t-11 37t-14 18.5t-16 5h-29q-18 0 -40 -21t-41 -51t-32 -63.5t-13 -57.5q14 2 26.5 3t23.5 1zM542 157q-29 -23 -53 -45t-44 -46q16 0 31.5 -6.5t30 -16t26 -21.5t19.5 -23zM232 1166q41 0 87 -38t93.5 -95t93.5 -122.5t88 -120.5q0 -7 -6.5 -9.5t-11.5 -2.5 q-11 0 -34 21.5t-54.5 54t-69 70.5t-79 70.5t-84 54t-83.5 21.5q-10 0 -22.5 -4t-23 -11.5t-18 -18t-7.5 -23.5q0 -11 3.5 -23t12 -22.5t22.5 -17.5t35 -7q19 0 33 6t23.5 12.5t15.5 12.5t9 6q4 0 5.5 -3.5t1.5 -5.5q0 -27 -10.5 -49t-27.5 -38t-38.5 -25t-42.5 -9 q-20 0 -39.5 9t-34.5 23.5t-24.5 33.5t-9.5 39q0 52 24 92t56.5 66t65.5 39.5t51 13.5z" />
<glyph unicode="&#xf354;&#xf80;" horiz-adv-x="670" d="M622 744q-3 -20 -8.5 -36t-11 -30.5t-9 -27t-3.5 -25.5v-700q-19 12 -45 26t-56 26.5t-62.5 20.5t-64.5 8q17 31 38.5 61t45 58.5t47 54.5t44.5 50v12q-18 18 -41 39.5t-48.5 40t-53 31t-53.5 12.5q-14 0 -30.5 -2t-32.5 -5t-29 -7.5t-20 -9.5q0 4 1.5 18t6 31t12 32.5 t19.5 21.5q0 35 7 67.5t17 59t21.5 47t20.5 31.5h-150q-6 0 -14 -5.5t-15.5 -14.5t-13 -21t-6.5 -26l-32 -420q-1 -8 -4 -13t-9 -5q-22 0 -22 18l-20 451q0 7 12 28t27.5 44t30 41t20.5 18h484zM366 460q25 0 48.5 -14.5t44.5 -36t39.5 -45.5t33.5 -43l-13 208 q-2 36 -7 59.5t-11 37t-14 18.5t-16 5h-29q-18 0 -40 -21t-41 -51t-32 -63.5t-13 -57.5q14 2 26.5 3t23.5 1zM542 157q-29 -23 -53 -45t-44 -46q16 0 31.5 -6.5t30 -16t26 -21.5t19.5 -23zM73 802q44 53 84.5 112.5t78.5 109t73 82t67 32.5q12 0 33.5 -3t46 -11.5 t50.5 -23.5t46.5 -38.5t34 -58t13.5 -80.5q0 -20 -8.5 -38.5t-22 -32t-30.5 -21.5t-34 -8q-21 0 -42 7.5t-37 22t-26 35.5t-10 48q0 2 1.5 6.5t5.5 4.5t11 -5t17 -10.5t22 -10.5t27 -5q17 0 28.5 6t18.5 15.5t10 21t3 22.5q0 13 -9.5 25t-24.5 21t-33.5 14.5t-35.5 5.5 q-31 0 -65 -19t-68.5 -48t-67 -62t-60 -62t-48.5 -48t-32 -19q-5 0 -11 3t-6 10z" />
<glyph unicode="&#xf354;&#xf74;" d="M680 -237q0 -39 -13 -72.5t-34.5 -58.5t-50.5 -39t-62 -14q-34 0 -68 18t-68.5 48.5t-70.5 70t-74.5 83.5t-79.5 89.5t-86 86.5q-7 7 -13.5 12t-6.5 13q0 5 5.5 13.5t10.5 8.5q14 0 31 -10q40 -23 80 -57.5t80 -72.5t79 -76t77 -68.5t74.5 -49.5t70.5 -19q29 0 50 14 t21 52q0 17 -9 32t-24 26t-34 17.5t-39 6.5q-14 0 -26 -5t-21.5 -11t-18.5 -11t-17 -5q-5 0 -5.5 11.5t-0.5 20.5q0 12 5.5 29.5t17.5 33.5t32 27.5t49 11.5q31 0 56.5 -12.5t44 -34t28.5 -50t10 -59.5zM622 744q-3 -20 -8.5 -36t-11 -30.5t-9 -27t-3.5 -25.5v-700 q-19 12 -45 26t-56 26.5t-62.5 20.5t-64.5 8q17 31 38.5 61t45 58.5t47 54.5t44.5 50v12q-18 18 -41 39.5t-48.5 40t-53 31t-53.5 12.5q-14 0 -30.5 -2t-32.5 -5t-29 -7.5t-20 -9.5q0 4 1.5 18t6 31t12 32.5t19.5 21.5q0 35 7 67.5t17 59t21.5 47t20.5 31.5h-150 q-6 0 -14 -5.5t-15.5 -14.5t-13 -21t-6.5 -26l-32 -420q-1 -8 -4 -13t-9 -5q-22 0 -22 18l-20 451q0 7 12 28t27.5 44t30 41t20.5 18h484zM366 460q25 0 48.5 -14.5t44.5 -36t39.5 -45.5t33.5 -43l-13 208q-2 36 -7 59.5t-11 37t-14 18.5t-16 5h-29q-18 0 -40 -21t-41 -51 t-32 -63.5t-13 -57.5q14 2 26.5 3t23.5 1zM542 157q-29 -23 -53 -45t-44 -46q16 0 31.5 -6.5t30 -16t26 -21.5t19.5 -23z" />
<glyph unicode="&#xf354;&#xf7a;" horiz-adv-x="670" d="M622 744q-3 -20 -8.5 -36t-11 -30.5t-9 -27t-3.5 -25.5v-700q-19 12 -45 26t-56 26.5t-62.5 20.5t-64.5 8q17 31 38.5 61t45 58.5t47 54.5t44.5 50v12q-18 18 -41 39.5t-48.5 40t-53 31t-53.5 12.5q-14 0 -30.5 -2t-32.5 -5t-29 -7.5t-20 -9.5q0 4 1.5 18t6 31t12 32.5 t19.5 21.5q0 35 7 67.5t17 59t21.5 47t20.5 31.5h-150q-6 0 -14 -5.5t-15.5 -14.5t-13 -21t-6.5 -26l-32 -420q-1 -8 -4 -13t-9 -5q-22 0 -22 18l-20 451q0 7 12 28t27.5 44t30 41t20.5 18h484zM366 460q25 0 48.5 -14.5t44.5 -36t39.5 -45.5t33.5 -43l-13 208 q-2 36 -7 59.5t-11 37t-14 18.5t-16 5h-29q-18 0 -40 -21t-41 -51t-32 -63.5t-13 -57.5q14 2 26.5 3t23.5 1zM542 157q-29 -23 -53 -45t-44 -46q16 0 31.5 -6.5t30 -16t26 -21.5t19.5 -23zM608 793q0 -13 -11 -13t-33 13.5t-52 34t-66.5 45t-75.5 47.5q-30 18 -68 36.5 t-75.5 33.5t-71.5 24.5t-56 9.5h-17t-20 -2q0 13 7.5 30t18 32t22 25.5t19.5 10.5q40 0 83 -14.5t86 -38t84.5 -54t79 -63t69 -64.5t54.5 -59l18 -21q5 -5 5 -13z" />
<glyph unicode="&#xf354;&#xf7c;" horiz-adv-x="670" d="M622 744q-3 -20 -8.5 -36t-11 -30.5t-9 -27t-3.5 -25.5v-700q-19 12 -45 26t-56 26.5t-62.5 20.5t-64.5 8q17 31 38.5 61t45 58.5t47 54.5t44.5 50v12q-18 18 -41 39.5t-48.5 40t-53 31t-53.5 12.5q-14 0 -30.5 -2t-32.5 -5t-29 -7.5t-20 -9.5q0 4 1.5 18t6 31t12 32.5 t19.5 21.5q0 35 7 67.5t17 59t21.5 47t20.5 31.5h-150q-6 0 -14 -5.5t-15.5 -14.5t-13 -21t-6.5 -26l-32 -420q-1 -8 -4 -13t-9 -5q-22 0 -22 18l-20 451q0 7 12 28t27.5 44t30 41t20.5 18h484zM366 460q25 0 48.5 -14.5t44.5 -36t39.5 -45.5t33.5 -43l-13 208 q-2 36 -7 59.5t-11 37t-14 18.5t-16 5h-29q-18 0 -40 -21t-41 -51t-32 -63.5t-13 -57.5q14 2 26.5 3t23.5 1zM542 157q-29 -23 -53 -45t-44 -46q16 0 31.5 -6.5t30 -16t26 -21.5t19.5 -23zM-9 947h-17t-20 -2q0 13 7 30t17 32t21 25.5t19 10.5q33 0 77.5 -17t87.5 -46.5 t78 -68t49 -81.5l3 8q9 39 20 76t34.5 65.5t65 46t111.5 17.5q34 0 59 1t46 6t42.5 16t48.5 31q13 0 13 -6q0 -20 -24.5 -45t-60.5 -47t-76.5 -36.5t-73.5 -14.5q-38 0 -70.5 -14t-56.5 -36t-38 -49t-14 -52q0 -8 -9.5 -13t-14.5 -5q-10 0 -21 22q-16 33 -51 59.5t-78 46 t-89 30t-85 10.5z" />
<glyph unicode="&#xf42;&#xf71;" horiz-adv-x="680" d="M636 744l-11 -44t-11.5 -47.5t-9.5 -44t-4 -33.5v-575h31v-17q0 -11 -5 -24t-12 -14q5 -8 11 -22t6 -25q0 -21 -10.5 -44.5t-31.5 -39.5q18 0 37.5 -12.5t38 -34t34 -51t26.5 -62.5q0 -5 -3.5 -9.5t-9.5 -4.5t-17 14q-16 20 -30 34t-31 23t-39 13t-55 4q-13 0 -32.5 -3.5 t-43.5 -8.5q0 6 1 22.5t8.5 33t23 29.5t44.5 13q15 10 25.5 22.5t10.5 24.5q0 21 -18.5 32t-61.5 11h-31q-32 0 -56 -11t-24 -32q0 -16 4 -28t8.5 -21l8.5 -17t4 -16q0 -12 -5 -28.5t-12 -32.5t-15.5 -27t-15.5 -11q-6 0 -8 3t-2 5t1 4t1 4q0 20 -6 38t-13 34t-13 29t-6 24 q0 36 14.5 68.5t36.5 57t47.5 39t46.5 14.5h94l-44 564q-1 16 -4 31t-7 27t-9 19t-11 7h-98q-1 -11 -1.5 -26t-0.5 -29v-26v-18v-329q0 -11 -3 -15.5t-6 -4.5q-4 0 -10.5 6.5t-13.5 14.5q-62 70 -108 106t-94 36q-26 0 -55.5 -3t-65.5 -11q0 4 2.5 18t9 31t17.5 32.5 t28 23.5q0 7 -0.5 10t-1 5.5t-0.5 6v11.5q0 19 1.5 42t6 45.5t13 42t21.5 31.5h-45q-18 0 -23 3t-5 15q0 7 3.5 15t8.5 16l24 47h551zM219 648q-11 -2 -26 -17.5t-29.5 -40.5t-24.5 -58.5t-10 -70.5q32 0 58 -8.5t49.5 -26.5t46.5 -46t50 -67q-6 61 -12.5 114.5t-11.5 114.5 q-3 33 -9 53.5t-13 31.5t-13 15l-9 6h-46z" />
<glyph unicode="&#xf42;&#xf72;" horiz-adv-x="680" d="M219 648q-11 -2 -26 -17.5t-29.5 -40.5t-24.5 -58.5t-10 -70.5q32 0 58 -8.5t49.5 -26.5t46.5 -46t50 -67q-6 61 -12.5 114.5t-11.5 114.5q-3 33 -9 53.5t-13 31.5t-13 15l-9 6h-46zM636 744l-11 -44t-11.5 -47.5t-9.5 -44t-4 -33.5v-918q0 -9 -6.5 -13t-15.5 -4 q-5 0 -11 4t-7 13l-49 907q-1 16 -3.5 31t-6.5 27t-9 19t-11 7h-98q-1 -11 -1.5 -26t-0.5 -29v-26v-18v-329q0 -11 -3 -15.5t-6 -4.5q-4 0 -10.5 6.5t-13.5 14.5q-62 70 -108 106t-94 36q-26 0 -55.5 -3t-65.5 -11q0 4 2.5 18t9 31t17.5 32.5t28 23.5q0 7 -0.5 10t-1 5.5 t-0.5 6v11.5q0 19 1.5 42t6 45.5t13 42t21.5 31.5h-45q-18 0 -23 3t-5 15q0 7 3.5 15t8.5 16l24 47h551zM257 1166q41 0 87 -38t93.5 -95t93.5 -122.5t88 -120.5q0 -7 -6.5 -9.5t-11.5 -2.5q-11 0 -34 21.5t-54.5 54t-69 70.5t-79 70.5t-84 54t-83.5 21.5q-10 0 -22.5 -4 t-23 -11.5t-18 -18t-7.5 -23.5q0 -11 3.5 -23t12 -22.5t22.5 -17.5t35 -7q19 0 33 6t23.5 12.5t15.5 12.5t9 6q4 0 5.5 -3.5t1.5 -5.5q0 -27 -10.5 -49t-27.5 -38t-38.5 -25t-42.5 -9q-20 0 -39.5 9t-34.5 23.5t-24.5 33.5t-9.5 39q0 52 24 92t56.5 66t65.5 39.5t51 13.5z " />
<glyph unicode="&#xf42;&#xf80;" horiz-adv-x="680" d="M219 648q-11 -2 -26 -17.5t-29.5 -40.5t-24.5 -58.5t-10 -70.5q32 0 58 -8.5t49.5 -26.5t46.5 -46t50 -67q-6 61 -12.5 114.5t-11.5 114.5q-3 33 -9 53.5t-13 31.5t-13 15l-9 6h-46zM636 744l-11 -44t-11.5 -47.5t-9.5 -44t-4 -33.5v-918q0 -9 -6.5 -13t-15.5 -4 q-5 0 -11 4t-7 13l-49 907q-1 16 -3.5 31t-6.5 27t-9 19t-11 7h-98q-1 -11 -1.5 -26t-0.5 -29v-26v-18v-329q0 -11 -3 -15.5t-6 -4.5q-4 0 -10.5 6.5t-13.5 14.5q-62 70 -108 106t-94 36q-26 0 -55.5 -3t-65.5 -11q0 4 2.5 18t9 31t17.5 32.5t28 23.5q0 7 -0.5 10t-1 5.5 t-0.5 6v11.5q0 19 1.5 42t6 45.5t13 42t21.5 31.5h-45q-18 0 -23 3t-5 15q0 7 3.5 15t8.5 16l24 47h551zM97 802q44 53 84.5 112.5t78.5 109t73 82t67 32.5q12 0 33.5 -3t46 -11.5t50.5 -23.5t46.5 -38.5t34 -58t13.5 -80.5q0 -20 -8.5 -38.5t-22 -32t-30.5 -21.5t-34 -8 q-21 0 -42 7.5t-37 22t-26 35.5t-10 48q0 2 1.5 6.5t5.5 4.5t11 -5t17 -10.5t22 -10.5t27 -5q17 0 28.5 6t18.5 15.5t10 21t3 22.5q0 13 -9.5 25t-24.5 21t-33.5 14.5t-35.5 5.5q-31 0 -65 -19t-68.5 -48t-67 -62t-60 -62t-48.5 -48t-32 -19q-5 0 -11 3t-6 10z" />
<glyph unicode="&#xf42;&#xf74;" horiz-adv-x="680" d="M217 648q-11 -8 -25.5 -25.5t-28 -40.5t-23 -51t-9.5 -58q32 0 58 -9t50 -27.5t47.5 -46.5t50.5 -67q-3 30 -6 57t-6 52.5t-6 52.5t-6 57q-3 33 -9 53.5t-13 31.5t-13 15l-9 6h-52zM634 744l-11 -44t-11.5 -47.5t-9 -44t-3.5 -33.5v-629q16 -5 31 -18.5t26 -31t18 -36.5 t7 -34q0 -34 -14 -68t-39 -61t-59.5 -43.5t-74.5 -16.5q-37 0 -78.5 32t-86.5 83.5t-92 116.5t-93 132q-6 9 -24 35.5t-36.5 55t-33 51.5t-14.5 25t4 8t10 6q11 0 31.5 -21t47.5 -57q26 -34 58.5 -75t68 -82t73 -79.5t73.5 -68t69.5 -47t61.5 -17.5q6 0 20 2.5t27.5 8 t24 14.5t10.5 23q0 15 -7.5 28.5t-20.5 24t-30 17t-36 6.5q-13 0 -31 -10t-36 -10q-6 0 -6 13q0 11 6 28.5t19 34t31.5 29t44.5 12.5l-39 608q-1 16 -3.5 31t-6.5 27t-9 19t-11 7h-93q-1 -11 -1.5 -26t-0.5 -29v-26v-18v-329q0 -11 -3 -15.5t-6 -4.5q-4 0 -9.5 6.5 t-12.5 14.5q-32 35 -58.5 63.5t-51 49t-47.5 32t-47 11.5q-26 0 -55.5 -4.5t-65.5 -12.5q0 7 2.5 21.5t9 30.5t17.5 30.5t28 22.5q1 20 2.5 45t5.5 49.5t11 48t21 40.5h-45q-18 0 -23 3t-5 15q0 7 3.5 15t8.5 16l24 47h545z" />
<glyph unicode="&#xf42;&#xf7a;" horiz-adv-x="680" d="M219 648q-11 -2 -26 -17.5t-29.5 -40.5t-24.5 -58.5t-10 -70.5q32 0 58 -8.5t49.5 -26.5t46.5 -46t50 -67q-6 61 -12.5 114.5t-11.5 114.5q-3 33 -9 53.5t-13 31.5t-13 15l-9 6h-46zM636 744l-11 -44t-11.5 -47.5t-9.5 -44t-4 -33.5v-918q0 -9 -6.5 -13t-15.5 -4 q-5 0 -11 4t-7 13l-49 907q-1 16 -3.5 31t-6.5 27t-9 19t-11 7h-98q-1 -11 -1.5 -26t-0.5 -29v-26v-18v-329q0 -11 -3 -15.5t-6 -4.5q-4 0 -10.5 6.5t-13.5 14.5q-62 70 -108 106t-94 36q-26 0 -55.5 -3t-65.5 -11q0 4 2.5 18t9 31t17.5 32.5t28 23.5q0 7 -0.5 10t-1 5.5 t-0.5 6v11.5q0 19 1.5 42t6 45.5t13 42t21.5 31.5h-45q-18 0 -23 3t-5 15q0 7 3.5 15t8.5 16l24 47h551zM613 793q0 -13 -11 -13t-33 13.5t-52 34t-66.5 45t-75.5 47.5q-30 18 -68 36.5t-75.5 33.5t-71.5 24.5t-56 9.5h-17t-20 -2q0 13 7.5 30t18 32t22 25.5t19.5 10.5 q40 0 83 -14.5t86 -38t84.5 -54t79 -63t69 -64.5t54.5 -59l18 -21q5 -5 5 -13z" />
<glyph unicode="&#xf42;&#xf7c;" horiz-adv-x="680" d="M219 648q-11 -2 -26 -17.5t-29.5 -40.5t-24.5 -58.5t-10 -70.5q32 0 58 -8.5t49.5 -26.5t46.5 -46t50 -67q-6 61 -12.5 114.5t-11.5 114.5q-3 33 -9 53.5t-13 31.5t-13 15l-9 6h-46zM636 744l-11 -44t-11.5 -47.5t-9.5 -44t-4 -33.5v-918q0 -9 -6.5 -13t-15.5 -4 q-5 0 -11 4t-7 13l-49 907q-1 16 -3.5 31t-6.5 27t-9 19t-11 7h-98q-1 -11 -1.5 -26t-0.5 -29v-26v-18v-329q0 -11 -3 -15.5t-6 -4.5q-4 0 -10.5 6.5t-13.5 14.5q-62 70 -108 106t-94 36q-26 0 -55.5 -3t-65.5 -11q0 4 2.5 18t9 31t17.5 32.5t28 23.5q0 7 -0.5 10t-1 5.5 t-0.5 6v11.5q0 19 1.5 42t6 45.5t13 42t21.5 31.5h-45q-18 0 -23 3t-5 15q0 7 3.5 15t8.5 16l24 47h551zM24 947h-17t-20 -2q0 13 7 30t17 32t21 25.5t19 10.5q33 0 77.5 -17t87.5 -46.5t78 -68t49 -81.5l3 8q9 39 20 76t34.5 65.5t65 46t111.5 17.5q34 0 59 1t46 6t42.5 16 t48.5 31q13 0 13 -6q0 -20 -24.5 -45t-60.5 -47t-76.5 -36.5t-73.5 -14.5q-38 0 -70.5 -14t-56.5 -36t-38 -49t-14 -52q0 -8 -9.5 -13t-14.5 -5q-10 0 -21 22q-16 33 -51 59.5t-78 46t-89 30t-85 10.5z" />
<glyph unicode="&#xf42;&#xfb1;" horiz-adv-x="700" d="M248 648q-18 0 -39.5 -16.5t-39.5 -41t-30 -53t-12 -52.5q15 2 25 2.5t28 0.5q11 0 26.5 -2t36.5 -11t47 -26.5t58 -48.5q-1 30 -3.5 68t-7 74t-12.5 65t-21 41h-56zM653 744q-4 -20 -9.5 -43.5l-11 -47t-9 -44t-3.5 -34.5v-292q0 -32 -23.5 -61t-57 -50.5t-69.5 -34 t-61 -12.5q-53 0 -109.5 12.5t-112.5 35.5q38 -61 92 -89.5t114 -28.5q64 0 126 30t137 92q9 8 20 15t20 7q5 0 7.5 -3.5t2.5 -7.5q0 -5 -4.5 -11t-10 -12t-11.5 -11.5t-9 -9.5q-33 -38 -65.5 -71.5t-67.5 -58.5t-76 -39.5t-92 -14.5q-59 0 -99 25t-69 63t-51 84t-46 88 q-2 4 -5 11t-3 12q0 2 3.5 5.5t10.5 3.5q8 0 32 -8q20 -7 49 -17.5t63 -20.5t70 -17t71 -7q31 0 62.5 11.5t56.5 29t41 37t16 35.5l-32 251q-6 45 -18 73.5t-44 28.5h-74q-2 -6 -4 -24.5t-2 -43.5v-248q1 -2 1 -7v-9q0 -9 -2 -16t-7 -7q-4 0 -12.5 6.5t-16.5 13.5 q-32 30 -62 46t-57 24t-50 9.5t-41 1.5q-14 0 -33 -4t-37.5 -8.5t-33 -8t-18.5 -3.5q1 29 13.5 56t36.5 39q0 71 15 115.5t34 67.5h-47q-18 0 -23 3t-5 15q0 7 3.5 15t8.5 16l24 47h564z" />
<glyph unicode="&#xf360;&#xf72;" horiz-adv-x="700" d="M248 648q-18 0 -39.5 -16.5t-39.5 -41t-30 -53t-12 -52.5q15 2 25 2.5t28 0.5q11 0 26.5 -2t36.5 -11t47 -26.5t58 -48.5q-1 30 -3.5 68t-7 74t-12.5 65t-21 41h-56zM653 744q-4 -20 -9.5 -43.5l-11 -47t-9 -44t-3.5 -34.5v-292q0 -32 -23.5 -61t-57 -50.5t-69.5 -34 t-61 -12.5q-53 0 -109.5 12.5t-112.5 35.5q38 -61 92 -89.5t114 -28.5q64 0 126 30t137 92q9 8 20 15t20 7q5 0 7.5 -3.5t2.5 -7.5q0 -5 -4.5 -11t-10 -12t-11.5 -11.5t-9 -9.5q-33 -38 -65.5 -71.5t-67.5 -58.5t-76 -39.5t-92 -14.5q-59 0 -99 25t-69 63t-51 84t-46 88 q-2 4 -5 11t-3 12q0 2 3.5 5.5t10.5 3.5q8 0 32 -8q20 -7 49 -17.5t63 -20.5t70 -17t71 -7q31 0 62.5 11.5t56.5 29t41 37t16 35.5l-32 251q-6 45 -18 73.5t-44 28.5h-74q-2 -6 -4 -24.5t-2 -43.5v-248q1 -2 1 -7v-9q0 -9 -2 -16t-7 -7q-4 0 -12.5 6.5t-16.5 13.5 q-32 30 -62 46t-57 24t-50 9.5t-41 1.5q-14 0 -33 -4t-37.5 -8.5t-33 -8t-18.5 -3.5q1 29 13.5 56t36.5 39q0 71 15 115.5t34 67.5h-47q-18 0 -23 3t-5 15q0 7 3.5 15t8.5 16l24 47h564zM277 1166q41 0 87 -38t93.5 -95t93.5 -122.5t88 -120.5q0 -7 -6.5 -9.5t-11.5 -2.5 q-11 0 -34 21.5t-54.5 54t-69 70.5t-79 70.5t-84 54t-83.5 21.5q-10 0 -22.5 -4t-23 -11.5t-18 -18t-7.5 -23.5q0 -11 3.5 -23t12 -22.5t22.5 -17.5t35 -7q19 0 33 6t23.5 12.5t15.5 12.5t9 6q4 0 5.5 -3.5t1.5 -5.5q0 -27 -10.5 -49t-27.5 -38t-38.5 -25t-42.5 -9 q-20 0 -39.5 9t-34.5 23.5t-24.5 33.5t-9.5 39q0 52 24 92t56.5 66t65.5 39.5t51 13.5z" />
<glyph unicode="&#xf360;&#xf80;" horiz-adv-x="700" d="M248 648q-18 0 -39.5 -16.5t-39.5 -41t-30 -53t-12 -52.5q15 2 25 2.5t28 0.5q11 0 26.5 -2t36.5 -11t47 -26.5t58 -48.5q-1 30 -3.5 68t-7 74t-12.5 65t-21 41h-56zM653 744q-4 -20 -9.5 -43.5l-11 -47t-9 -44t-3.5 -34.5v-292q0 -32 -23.5 -61t-57 -50.5t-69.5 -34 t-61 -12.5q-53 0 -109.5 12.5t-112.5 35.5q38 -61 92 -89.5t114 -28.5q64 0 126 30t137 92q9 8 20 15t20 7q5 0 7.5 -3.5t2.5 -7.5q0 -5 -4.5 -11t-10 -12t-11.5 -11.5t-9 -9.5q-33 -38 -65.5 -71.5t-67.5 -58.5t-76 -39.5t-92 -14.5q-59 0 -99 25t-69 63t-51 84t-46 88 q-2 4 -5 11t-3 12q0 2 3.5 5.5t10.5 3.5q8 0 32 -8q20 -7 49 -17.5t63 -20.5t70 -17t71 -7q31 0 62.5 11.5t56.5 29t41 37t16 35.5l-32 251q-6 45 -18 73.5t-44 28.5h-74q-2 -6 -4 -24.5t-2 -43.5v-248q1 -2 1 -7v-9q0 -9 -2 -16t-7 -7q-4 0 -12.5 6.5t-16.5 13.5 q-32 30 -62 46t-57 24t-50 9.5t-41 1.5q-14 0 -33 -4t-37.5 -8.5t-33 -8t-18.5 -3.5q1 29 13.5 56t36.5 39q0 71 15 115.5t34 67.5h-47q-18 0 -23 3t-5 15q0 7 3.5 15t8.5 16l24 47h564zM106 802q44 53 84.5 112.5t78.5 109t73 82t67 32.5q12 0 33.5 -3t46 -11.5t50.5 -23.5 t46.5 -38.5t34 -58t13.5 -80.5q0 -20 -8.5 -38.5t-22 -32t-30.5 -21.5t-34 -8q-21 0 -42 7.5t-37 22t-26 35.5t-10 48q0 2 1.5 6.5t5.5 4.5t11 -5t17 -10.5t22 -10.5t27 -5q17 0 28.5 6t18.5 15.5t10 21t3 22.5q0 13 -9.5 25t-24.5 21t-33.5 14.5t-35.5 5.5q-31 0 -65 -19 t-68.5 -48t-67 -62t-60 -62t-48.5 -48t-32 -19q-5 0 -11 3t-6 10z" />
<glyph unicode="&#xf360;&#xf74;" horiz-adv-x="700" d="M647 744q-4 -20 -8.5 -43.5t-8.5 -47t-7 -44t-3 -34.5v-292q0 -32 -23.5 -61t-56.5 -50.5t-69 -34t-61 -12.5q-53 0 -109.5 12.5t-112.5 35.5q38 -61 92 -89.5t114 -28.5q64 0 126 30t137 92q9 8 20 15t20 7q5 0 7.5 -3.5t2.5 -7.5q0 -5 -4.5 -11t-10 -12t-11.5 -11.5 t-9 -9.5l-21 -24l-74 -142q12 3 26 3q31 0 56.5 -12.5t44 -34t28.5 -50t10 -59.5q0 -39 -16.5 -72.5t-42.5 -58.5t-58.5 -39t-65.5 -14q-39 0 -74 16.5t-69.5 44.5t-70 64t-76.5 74t-88 76t-105 70q-8 5 -14 11t-6 14q0 5 4.5 8t8.5 3q16 0 34 -7q43 -19 89.5 -47.5t94 -60 t94 -63t90 -56.5t82 -41t70.5 -16q29 0 50 14t21 52q0 17 -10.5 32t-27 26t-37 17.5t-40.5 6.5q-12 0 -24 -5t-22.5 -11t-19.5 -11t-17 -5q-5 0 -5.5 11.5t-0.5 20.5q0 11 5.5 26.5t17.5 31.5l49 94q-40 -32 -85.5 -51.5t-105.5 -19.5q-59 0 -99 25t-69 63t-51 84t-46 88 q-2 4 -5 11t-3 12q0 2 3.5 5.5t10.5 3.5q8 0 32 -8q20 -7 49 -17.5t63 -20.5t70 -17t71 -7q31 0 62.5 11.5t56.5 29t41 37t16 35.5l-33 251q-6 45 -18 73.5t-44 28.5h-86q-8 -90 -9.5 -158t-2 -114t-1 -69t-5.5 -23q-4 0 -10.5 7t-14.5 14q-32 30 -60 46t-52.5 24t-46 9.5 t-39.5 1.5q-14 0 -30 -2.5t-31.5 -5.5t-28.5 -6.5t-22 -5.5q0 37 11 58t35 33q0 35 6 65t15 54.5t19.5 42.5t19.5 29h-46q-17 0 -30.5 6.5t-13.5 11.5q0 4 4.5 15t10.5 23t12 23.5t9 16.5h556zM255 648q-18 0 -39.5 -17.5t-40 -43.5t-30.5 -56t-12 -54q15 2 22 2.5t25 0.5 q11 0 24 -2t31 -11t41.5 -26.5t55.5 -48.5q-5 58 -13 122.5t-20 133.5h-44z" />
<glyph unicode="&#xf360;&#xf7a;" horiz-adv-x="700" d="M248 648q-18 0 -39.5 -16.5t-39.5 -41t-30 -53t-12 -52.5q15 2 25 2.5t28 0.5q11 0 26.5 -2t36.5 -11t47 -26.5t58 -48.5q-1 30 -3.5 68t-7 74t-12.5 65t-21 41h-56zM653 744q-4 -20 -9.5 -43.5l-11 -47t-9 -44t-3.5 -34.5v-292q0 -32 -23.5 -61t-57 -50.5t-69.5 -34 t-61 -12.5q-53 0 -109.5 12.5t-112.5 35.5q38 -61 92 -89.5t114 -28.5q64 0 126 30t137 92q9 8 20 15t20 7q5 0 7.5 -3.5t2.5 -7.5q0 -5 -4.5 -11t-10 -12t-11.5 -11.5t-9 -9.5q-33 -38 -65.5 -71.5t-67.5 -58.5t-76 -39.5t-92 -14.5q-59 0 -99 25t-69 63t-51 84t-46 88 q-2 4 -5 11t-3 12q0 2 3.5 5.5t10.5 3.5q8 0 32 -8q20 -7 49 -17.5t63 -20.5t70 -17t71 -7q31 0 62.5 11.5t56.5 29t41 37t16 35.5l-32 251q-6 45 -18 73.5t-44 28.5h-74q-2 -6 -4 -24.5t-2 -43.5v-248q1 -2 1 -7v-9q0 -9 -2 -16t-7 -7q-4 0 -12.5 6.5t-16.5 13.5 q-32 30 -62 46t-57 24t-50 9.5t-41 1.5q-14 0 -33 -4t-37.5 -8.5t-33 -8t-18.5 -3.5q1 29 13.5 56t36.5 39q0 71 15 115.5t34 67.5h-47q-18 0 -23 3t-5 15q0 7 3.5 15t8.5 16l24 47h564zM583 793q0 -13 -11 -13t-33 13.5t-52 34t-66.5 45t-75.5 47.5q-30 18 -68 36.5 t-75.5 33.5t-71.5 24.5t-56 9.5h-17t-20 -2q0 13 7.5 30t18 32t22 25.5t19.5 10.5q40 0 83 -14.5t86 -38t84.5 -54t79 -63t69 -64.5t54.5 -59l18 -21q5 -5 5 -13z" />
<glyph unicode="&#xf360;&#xf7c;" horiz-adv-x="700" d="M248 648q-18 0 -39.5 -16.5t-39.5 -41t-30 -53t-12 -52.5q15 2 25 2.5t28 0.5q11 0 26.5 -2t36.5 -11t47 -26.5t58 -48.5q-1 30 -3.5 68t-7 74t-12.5 65t-21 41h-56zM653 744q-4 -20 -9.5 -43.5l-11 -47t-9 -44t-3.5 -34.5v-292q0 -32 -23.5 -61t-57 -50.5t-69.5 -34 t-61 -12.5q-53 0 -109.5 12.5t-112.5 35.5q38 -61 92 -89.5t114 -28.5q64 0 126 30t137 92q9 8 20 15t20 7q5 0 7.5 -3.5t2.5 -7.5q0 -5 -4.5 -11t-10 -12t-11.5 -11.5t-9 -9.5q-33 -38 -65.5 -71.5t-67.5 -58.5t-76 -39.5t-92 -14.5q-59 0 -99 25t-69 63t-51 84t-46 88 q-2 4 -5 11t-3 12q0 2 3.5 5.5t10.5 3.5q8 0 32 -8q20 -7 49 -17.5t63 -20.5t70 -17t71 -7q31 0 62.5 11.5t56.5 29t41 37t16 35.5l-32 251q-6 45 -18 73.5t-44 28.5h-74q-2 -6 -4 -24.5t-2 -43.5v-248q1 -2 1 -7v-9q0 -9 -2 -16t-7 -7q-4 0 -12.5 6.5t-16.5 13.5 q-32 30 -62 46t-57 24t-50 9.5t-41 1.5q-14 0 -33 -4t-37.5 -8.5t-33 -8t-18.5 -3.5q1 29 13.5 56t36.5 39q0 71 15 115.5t34 67.5h-47q-18 0 -23 3t-5 15q0 7 3.5 15t8.5 16l24 47h564zM26 947h-17t-20 -2q0 13 7 30t17 32t21 25.5t19 10.5q33 0 77.5 -17t87.5 -46.5 t78 -68t49 -81.5l3 8q9 39 20 76t34.5 65.5t65 46t111.5 17.5q34 0 59 1t46 6t42.5 16t48.5 31q13 0 13 -6q0 -20 -24.5 -45t-60.5 -47t-76.5 -36.5t-73.5 -14.5q-38 0 -70.5 -14t-56.5 -36t-38 -49t-14 -52q0 -8 -9.5 -13t-14.5 -5q-10 0 -21 22q-16 33 -51 59.5t-78 46 t-89 30t-85 10.5z" />
<glyph unicode="&#xf42;&#xfb2;" horiz-adv-x="680" d="M182 215q50 0 105.5 -14.5t107 -38.5t93 -55t63.5 -64l-40 521q-1 16 -3.5 31t-6.5 27t-9 19t-11 7h-98q-1 -11 -1.5 -26t-0.5 -29v-26v-18v-289q0 -11 -3 -15.5t-6 -4.5q-4 0 -10.5 6.5t-13.5 14.5q-62 70 -108 101t-94 31q-26 0 -55.5 -3t-65.5 -11q0 4 2.5 18t9 31 t17.5 32.5t28 23.5q0 7 -0.5 10t-1 5.5t-0.5 6v11.5q0 11 1.5 28.5t6 36.5t13 36.5t21.5 29.5h-45q-18 0 -23 3t-5 15q0 7 3.5 15t8.5 16l24 47h551l-11 -44t-11.5 -47.5t-9.5 -44t-4 -33.5v-611l-62 37q-41 25 -76.5 45t-76 33.5t-92 21t-124.5 7.5q-11 0 -27 -1t-33 -2.5 t-33 -4t-26 -5.5q0 26 10.5 48t28.5 38t42 25t51 9zM219 648q-11 -2 -26 -15.5t-29.5 -35t-24.5 -49t-10 -57.5q32 0 58 -9t49.5 -27.5t46.5 -46.5t50 -67q-3 30 -6 54t-6 46.5t-6 46.5t-6 54q-3 33 -9 53.5t-13 31.5t-13 15l-9 6h-46z" />
<glyph unicode="&#xf366;&#xf72;" horiz-adv-x="680" d="M182 215q50 0 105.5 -14.5t107 -38.5t93 -55t63.5 -64l-40 521q-1 16 -3.5 31t-6.5 27t-9 19t-11 7h-98q-1 -11 -1.5 -26t-0.5 -29v-26v-18v-289q0 -11 -3 -15.5t-6 -4.5q-4 0 -10.5 6.5t-13.5 14.5q-62 70 -108 101t-94 31q-26 0 -55.5 -3t-65.5 -11q0 4 2.5 18t9 31 t17.5 32.5t28 23.5q0 7 -0.5 10t-1 5.5t-0.5 6v11.5q0 11 1.5 28.5t6 36.5t13 36.5t21.5 29.5h-45q-18 0 -23 3t-5 15q0 7 3.5 15t8.5 16l24 47h551l-11 -44t-11.5 -47.5t-9.5 -44t-4 -33.5v-611l-62 37q-41 25 -76.5 45t-76 33.5t-92 21t-124.5 7.5q-11 0 -27 -1t-33 -2.5 t-33 -4t-26 -5.5q0 26 10.5 48t28.5 38t42 25t51 9zM219 648q-11 -2 -26 -15.5t-29.5 -35t-24.5 -49t-10 -57.5q32 0 58 -9t49.5 -27.5t46.5 -46.5t50 -67q-3 30 -6 54t-6 46.5t-6 46.5t-6 54q-3 33 -9 53.5t-13 31.5t-13 15l-9 6h-46zM246 1166q41 0 87 -38t93.5 -95 t93.5 -122.5t88 -120.5q0 -7 -6.5 -9.5t-11.5 -2.5q-11 0 -34 21.5t-54.5 54t-69 70.5t-79 70.5t-84 54t-83.5 21.5q-10 0 -22.5 -4t-23 -11.5t-18 -18t-7.5 -23.5q0 -11 3.5 -23t12 -22.5t22.5 -17.5t35 -7q19 0 33 6t23.5 12.5t15.5 12.5t9 6q4 0 5.5 -3.5t1.5 -5.5 q0 -27 -10.5 -49t-27.5 -38t-38.5 -25t-42.5 -9q-20 0 -39.5 9t-34.5 23.5t-24.5 33.5t-9.5 39q0 52 24 92t56.5 66t65.5 39.5t51 13.5z" />
<glyph unicode="&#xf366;&#xf80;" horiz-adv-x="680" d="M182 215q50 0 105.5 -14.5t107 -38.5t93 -55t63.5 -64l-40 521q-1 16 -3.5 31t-6.5 27t-9 19t-11 7h-98q-1 -11 -1.5 -26t-0.5 -29v-26v-18v-289q0 -11 -3 -15.5t-6 -4.5q-4 0 -10.5 6.5t-13.5 14.5q-62 70 -108 101t-94 31q-26 0 -55.5 -3t-65.5 -11q0 4 2.5 18t9 31 t17.5 32.5t28 23.5q0 7 -0.5 10t-1 5.5t-0.5 6v11.5q0 11 1.5 28.5t6 36.5t13 36.5t21.5 29.5h-45q-18 0 -23 3t-5 15q0 7 3.5 15t8.5 16l24 47h551l-11 -44t-11.5 -47.5t-9.5 -44t-4 -33.5v-611l-62 37q-41 25 -76.5 45t-76 33.5t-92 21t-124.5 7.5q-11 0 -27 -1t-33 -2.5 t-33 -4t-26 -5.5q0 26 10.5 48t28.5 38t42 25t51 9zM219 648q-11 -2 -26 -15.5t-29.5 -35t-24.5 -49t-10 -57.5q32 0 58 -9t49.5 -27.5t46.5 -46.5t50 -67q-3 30 -6 54t-6 46.5t-6 46.5t-6 54q-3 33 -9 53.5t-13 31.5t-13 15l-9 6h-46zM85 802q44 53 84.5 112.5t78.5 109 t73 82t67 32.5q12 0 33.5 -3t46 -11.5t50.5 -23.5t46.5 -38.5t34 -58t13.5 -80.5q0 -20 -8.5 -38.5t-22 -32t-30.5 -21.5t-34 -8q-21 0 -42 7.5t-37 22t-26 35.5t-10 48q0 2 1.5 6.5t5.5 4.5t11 -5t17 -10.5t22 -10.5t27 -5q17 0 28.5 6t18.5 15.5t10 21t3 22.5 q0 13 -9.5 25t-24.5 21t-33.5 14.5t-35.5 5.5q-31 0 -65 -19t-68.5 -48t-67 -62t-60 -62t-48.5 -48t-32 -19q-5 0 -11 3t-6 10z" />
<glyph unicode="&#xf366;&#xf74;" horiz-adv-x="680" d="M681 -184q0 -39 -13.5 -71.5t-36.5 -55.5t-52.5 -36t-62.5 -13q-29 0 -59.5 18.5t-63.5 48t-69 67t-75.5 76t-83 74.5t-92.5 63q-8 5 -14 11t-6 14q0 5 4.5 8t8.5 3q16 0 34 -7q43 -19 85.5 -47.5t83 -60.5t80 -63.5t76.5 -57t71 -41.5t66 -16q29 0 50 14t21 52 q0 17 -10.5 30.5t-27 23.5t-37 15t-40.5 5q-21 0 -39 -8q-3 -1 -9 -5t-12.5 -8t-13 -7.5t-9.5 -3.5q-5 0 -5.5 11.5t-0.5 20.5q0 12 6.5 29.5t20.5 33.5t35.5 27.5t50.5 11.5q31 0 56.5 -12.5t44 -34t28.5 -50t10 -59.5zM621 746q-5 -18 -8 -41.5t-5.5 -46.5t-4.5 -44.5 t-4 -36.5v-613l-62 37q-41 25 -76.5 45t-76 33.5t-92 21t-124.5 7.5q-11 0 -27 -1t-33 -2.5t-33 -4t-26 -5.5q0 26 10.5 48t28.5 38t42 25t51 9q51 0 107.5 -15t108 -40t92.5 -56.5t62 -64.5v38q0 40 -6.5 107t-15.5 144.5t-19 159t-18 151.5h-106q-5 -23 -8.5 -42t-3.5 -31 v-164.5t-0.5 -99.5t-2 -49.5t-3.5 -13.5q-4 0 -11 6.5t-14 14.5q-63 68 -113 92t-86 24h-15.5t-30.5 -1t-39 -3.5t-40 -6.5q0 13 3 28t9 29t15.5 24.5t23.5 13.5q0 30 5.5 60t13.5 54.5t16 41.5t13 22h-38q-18 0 -23 3t-5 15q0 4 4.5 17t10.5 27.5t12 27.5t9 18h533z M213 636q-16 -4 -32.5 -22.5t-30.5 -43t-23 -51.5t-9 -48q9 1 19 2t23 1q21 0 42 -5t41.5 -17.5t41 -35.5t41.5 -59l-24 174q-5 36 -7.5 57t-4 31.5t-3 14t-4.5 5.5h-34z" />
<glyph unicode="&#xf366;&#xf7a;" horiz-adv-x="680" d="M182 215q50 0 105.5 -14.5t107 -38.5t93 -55t63.5 -64l-40 521q-1 16 -3.5 31t-6.5 27t-9 19t-11 7h-98q-1 -11 -1.5 -26t-0.5 -29v-26v-18v-289q0 -11 -3 -15.5t-6 -4.5q-4 0 -10.5 6.5t-13.5 14.5q-62 70 -108 101t-94 31q-26 0 -55.5 -3t-65.5 -11q0 4 2.5 18t9 31 t17.5 32.5t28 23.5q0 7 -0.5 10t-1 5.5t-0.5 6v11.5q0 11 1.5 28.5t6 36.5t13 36.5t21.5 29.5h-45q-18 0 -23 3t-5 15q0 7 3.5 15t8.5 16l24 47h551l-11 -44t-11.5 -47.5t-9.5 -44t-4 -33.5v-611l-62 37q-41 25 -76.5 45t-76 33.5t-92 21t-124.5 7.5q-11 0 -27 -1t-33 -2.5 t-33 -4t-26 -5.5q0 26 10.5 48t28.5 38t42 25t51 9zM219 648q-11 -2 -26 -15.5t-29.5 -35t-24.5 -49t-10 -57.5q32 0 58 -9t49.5 -27.5t46.5 -46.5t50 -67q-3 30 -6 54t-6 46.5t-6 46.5t-6 54q-3 33 -9 53.5t-13 31.5t-13 15l-9 6h-46zM613 793q0 -13 -11 -13t-33 13.5 t-52 34t-66.5 45t-75.5 47.5q-30 18 -68 36.5t-75.5 33.5t-71.5 24.5t-56 9.5h-17t-20 -2q0 13 7.5 30t18 32t22 25.5t19.5 10.5q40 0 83 -14.5t86 -38t84.5 -54t79 -63t69 -64.5t54.5 -59l18 -21q5 -5 5 -13z" />
<glyph unicode="&#xf366;&#xf7c;" horiz-adv-x="680" d="M182 215q50 0 105.5 -14.5t107 -38.5t93 -55t63.5 -64l-40 521q-1 16 -3.5 31t-6.5 27t-9 19t-11 7h-98q-1 -11 -1.5 -26t-0.5 -29v-26v-18v-289q0 -11 -3 -15.5t-6 -4.5q-4 0 -10.5 6.5t-13.5 14.5q-62 70 -108 101t-94 31q-26 0 -55.5 -3t-65.5 -11q0 4 2.5 18t9 31 t17.5 32.5t28 23.5q0 7 -0.5 10t-1 5.5t-0.5 6v11.5q0 11 1.5 28.5t6 36.5t13 36.5t21.5 29.5h-45q-18 0 -23 3t-5 15q0 7 3.5 15t8.5 16l24 47h551l-11 -44t-11.5 -47.5t-9.5 -44t-4 -33.5v-611l-62 37q-41 25 -76.5 45t-76 33.5t-92 21t-124.5 7.5q-11 0 -27 -1t-33 -2.5 t-33 -4t-26 -5.5q0 26 10.5 48t28.5 38t42 25t51 9zM219 648q-11 -2 -26 -15.5t-29.5 -35t-24.5 -49t-10 -57.5q32 0 58 -9t49.5 -27.5t46.5 -46.5t50 -67q-3 30 -6 54t-6 46.5t-6 46.5t-6 54q-3 33 -9 53.5t-13 31.5t-13 15l-9 6h-46zM22 947h-17t-20 -2q0 13 7 30t17 32 t21 25.5t19 10.5q33 0 77.5 -17t87.5 -46.5t78 -68t49 -81.5l3 8q9 39 20 76t34.5 65.5t65 46t111.5 17.5q34 0 59 1t46 6t42.5 16t48.5 31q13 0 13 -6q0 -20 -24.5 -45t-60.5 -47t-76.5 -36.5t-73.5 -14.5q-38 0 -70.5 -14t-56.5 -36t-38 -49t-14 -52q0 -8 -9.5 -13 t-14.5 -5q-10 0 -21 22q-16 33 -51 59.5t-78 46t-89 30t-85 10.5z" />
<glyph unicode="&#xf42;&#xfb2;&#xfad;" horiz-adv-x="680" d="M636 744l-11 -44t-11.5 -47.5t-9.5 -44t-4 -33.5v-800q-19 12 -45 26t-56 26.5t-62.5 20.5t-64.5 8q29 56 68.5 101.5t77.5 87.5q-37 22 -70.5 40t-72.5 30t-88 18.5t-118 6.5q-11 0 -27 -1t-33 -2.5t-33 -4t-26 -5.5q0 26 10.5 48t28.5 38t42 25t51 9q48 0 101 -13.5 t102 -36t90.5 -51.5t65.5 -60l-30 478q-1 16 -3.5 31t-6.5 27t-9 19t-11 7h-98q-1 -11 -1.5 -26t-0.5 -29v-26v-18v-279q0 -11 -3 -15.5t-6 -4.5q-4 0 -10.5 6.5t-13.5 14.5q-62 70 -108 101t-94 31q-26 0 -55.5 -3t-65.5 -11q0 4 2.5 18t9 31t17.5 32.5t28 23.5 q0 7 -0.5 10t-1 5.5t-0.5 6v11.5q0 9 1.5 25t6 33.5t13 34t21.5 28.5h-45q-18 0 -23 3t-5 15q0 7 3.5 15t8.5 16l24 47h551zM219 648q-11 -2 -26 -14.5t-29.5 -32.5t-24.5 -46t-10 -54q32 0 58 -8.5t49.5 -26.5t46.5 -46t50 -67q-3 30 -6 52t-6 42.5t-6 42.5t-6 52 q-3 33 -9 53.5t-13 31.5t-13 15l-9 6h-46zM455 -84q15 0 29 -5.5t27 -14.5t24.5 -20t19.5 -21l-10 152q-28 -23 -49 -45t-41 -46z" />
<glyph unicode="&#xf42;&#xfb3;" horiz-adv-x="680" d="M219 648q-11 -2 -26 -15.5t-29.5 -35t-24.5 -49t-10 -57.5q65 0 112.5 -27t91.5 -89q-3 30 -6 48.5t-6 35t-6 35t-6 48.5q-3 33 -9 53.5t-13 31.5t-13 15l-9 6h-46zM636 744l-11 -44t-11.5 -47.5t-9.5 -44t-4 -33.5v-335h46l-11 -44t-11.5 -47.5t-9.5 -44t-4 -33.5v-330 q0 -10 -7 -15.5t-16 -5.5q-5 0 -13 6t-12 10q-21 21 -44.5 42.5t-54 38.5t-70 28t-92.5 11q-42 0 -67.5 -4t-33.5 -8q0 21 5.5 40.5t17.5 34.5t31 24t45 9q17 13 31 36.5t14 53.5q0 13 -3.5 30.5t-15 33.5t-33 27t-58.5 11q-30 0 -53 -7t-39 -17.5t-24 -22.5t-8 -23 q0 -22 6.5 -36t15 -27t15 -27.5t6.5 -36.5q0 -15 -7 -34t-16.5 -35.5t-20 -27.5t-17.5 -11q-6 0 -8 2.5t-2 4.5t1 5.5t1 5.5q0 24 -6.5 44t-14 40t-13.5 41t-6 47q0 42 12.5 80t35.5 67t56 46.5t74 17.5h181l-23 -48q17 -11 26.5 -40t9.5 -71q0 -15 -2 -31.5t-9 -33 t-19.5 -33t-34.5 -32.5q33 -5 63.5 -20t57 -36.5t49.5 -47.5t41 -53l-24 230q-4 38 -8.5 61.5t-10.5 36.5t-13 17.5t-16 4.5l45 96h17l-41 324q-2 16 -4.5 31t-6.5 27t-8.5 19t-10.5 7h-98q-1 -11 -1.5 -26t-0.5 -29v-26v-18v-259q0 -11 -3 -15.5t-6 -4.5q-4 0 -10.5 6.5 t-13.5 14.5q-27 32 -53 52t-51 31t-49.5 15t-48.5 4q-26 0 -55.5 -3t-65.5 -11q0 4 2.5 18t9 31t17.5 32.5t28 23.5q0 7 -0.5 10t-1 5.5t-0.5 6v11.5q0 11 1.5 28.5t6 36.5t13 36.5t21.5 29.5h-45q-18 0 -23 3t-5 15q0 7 3.5 15t8.5 16l24 47h551z" />
<glyph unicode="&#xf36d;&#xf72;" horiz-adv-x="680" d="M219 648q-11 -2 -26 -15.5t-29.5 -35t-24.5 -49t-10 -57.5q65 0 112.5 -27t91.5 -89q-3 30 -6 48.5t-6 35t-6 35t-6 48.5q-3 33 -9 53.5t-13 31.5t-13 15l-9 6h-46zM636 744l-11 -44t-11.5 -47.5t-9.5 -44t-4 -33.5v-335h46l-11 -44t-11.5 -47.5t-9.5 -44t-4 -33.5v-330 q0 -10 -7 -15.5t-16 -5.5q-5 0 -13 6t-12 10q-21 21 -44.5 42.5t-54 38.5t-70 28t-92.5 11q-42 0 -67.5 -4t-33.5 -8q0 21 5.5 40.5t17.5 34.5t31 24t45 9q17 13 31 36.5t14 53.5q0 13 -3.5 30.5t-15 33.5t-33 27t-58.5 11q-30 0 -53 -7t-39 -17.5t-24 -22.5t-8 -23 q0 -22 6.5 -36t15 -27t15 -27.5t6.5 -36.5q0 -15 -7 -34t-16.5 -35.5t-20 -27.5t-17.5 -11q-6 0 -8 2.5t-2 4.5t1 5.5t1 5.5q0 24 -6.5 44t-14 40t-13.5 41t-6 47q0 42 12.5 80t35.5 67t56 46.5t74 17.5h181l-23 -48q17 -11 26.5 -40t9.5 -71q0 -15 -2 -31.5t-9 -33 t-19.5 -33t-34.5 -32.5q33 -5 63.5 -20t57 -36.5t49.5 -47.5t41 -53l-24 230q-4 38 -8.5 61.5t-10.5 36.5t-13 17.5t-16 4.5l45 96h17l-41 324q-2 16 -4.5 31t-6.5 27t-8.5 19t-10.5 7h-98q-1 -11 -1.5 -26t-0.5 -29v-26v-18v-259q0 -11 -3 -15.5t-6 -4.5q-4 0 -10.5 6.5 t-13.5 14.5q-27 32 -53 52t-51 31t-49.5 15t-48.5 4q-26 0 -55.5 -3t-65.5 -11q0 4 2.5 18t9 31t17.5 32.5t28 23.5q0 7 -0.5 10t-1 5.5t-0.5 6v11.5q0 11 1.5 28.5t6 36.5t13 36.5t21.5 29.5h-45q-18 0 -23 3t-5 15q0 7 3.5 15t8.5 16l24 47h551zM257 1166q41 0 87 -38 t93.5 -95t93.5 -122.5t88 -120.5q0 -7 -6.5 -9.5t-11.5 -2.5q-11 0 -34 21.5t-54.5 54t-69 70.5t-79 70.5t-84 54t-83.5 21.5q-10 0 -22.5 -4t-23 -11.5t-18 -18t-7.5 -23.5q0 -11 3.5 -23t12 -22.5t22.5 -17.5t35 -7q19 0 33 6t23.5 12.5t15.5 12.5t9 6q4 0 5.5 -3.5 t1.5 -5.5q0 -27 -10.5 -49t-27.5 -38t-38.5 -25t-42.5 -9q-20 0 -39.5 9t-34.5 23.5t-24.5 33.5t-9.5 39q0 52 24 92t56.5 66t65.5 39.5t51 13.5z" />
<glyph unicode="&#xf36d;&#xf80;" horiz-adv-x="680" d="M219 648q-11 -2 -26 -15.5t-29.5 -35t-24.5 -49t-10 -57.5q65 0 112.5 -27t91.5 -89q-3 30 -6 48.5t-6 35t-6 35t-6 48.5q-3 33 -9 53.5t-13 31.5t-13 15l-9 6h-46zM636 744l-11 -44t-11.5 -47.5t-9.5 -44t-4 -33.5v-335h46l-11 -44t-11.5 -47.5t-9.5 -44t-4 -33.5v-330 q0 -10 -7 -15.5t-16 -5.5q-5 0 -13 6t-12 10q-21 21 -44.5 42.5t-54 38.5t-70 28t-92.5 11q-42 0 -67.5 -4t-33.5 -8q0 21 5.5 40.5t17.5 34.5t31 24t45 9q17 13 31 36.5t14 53.5q0 13 -3.5 30.5t-15 33.5t-33 27t-58.5 11q-30 0 -53 -7t-39 -17.5t-24 -22.5t-8 -23 q0 -22 6.5 -36t15 -27t15 -27.5t6.5 -36.5q0 -15 -7 -34t-16.5 -35.5t-20 -27.5t-17.5 -11q-6 0 -8 2.5t-2 4.5t1 5.5t1 5.5q0 24 -6.5 44t-14 40t-13.5 41t-6 47q0 42 12.5 80t35.5 67t56 46.5t74 17.5h181l-23 -48q17 -11 26.5 -40t9.5 -71q0 -15 -2 -31.5t-9 -33 t-19.5 -33t-34.5 -32.5q33 -5 63.5 -20t57 -36.5t49.5 -47.5t41 -53l-24 230q-4 38 -8.5 61.5t-10.5 36.5t-13 17.5t-16 4.5l45 96h17l-41 324q-2 16 -4.5 31t-6.5 27t-8.5 19t-10.5 7h-98q-1 -11 -1.5 -26t-0.5 -29v-26v-18v-259q0 -11 -3 -15.5t-6 -4.5q-4 0 -10.5 6.5 t-13.5 14.5q-27 32 -53 52t-51 31t-49.5 15t-48.5 4q-26 0 -55.5 -3t-65.5 -11q0 4 2.5 18t9 31t17.5 32.5t28 23.5q0 7 -0.5 10t-1 5.5t-0.5 6v11.5q0 11 1.5 28.5t6 36.5t13 36.5t21.5 29.5h-45q-18 0 -23 3t-5 15q0 7 3.5 15t8.5 16l24 47h551zM72 802q44 53 84.5 112.5 t78.5 109t73 82t67 32.5q12 0 33.5 -3t46 -11.5t50.5 -23.5t46.5 -38.5t34 -58t13.5 -80.5q0 -20 -8.5 -38.5t-22 -32t-30.5 -21.5t-34 -8q-21 0 -42 7.5t-37 22t-26 35.5t-10 48q0 2 1.5 6.5t5.5 4.5t11 -5t17 -10.5t22 -10.5t27 -5q17 0 28.5 6t18.5 15.5t10 21t3 22.5 q0 13 -9.5 25t-24.5 21t-33.5 14.5t-35.5 5.5q-31 0 -65 -19t-68.5 -48t-67 -62t-60 -62t-48.5 -48t-32 -19q-5 0 -11 3t-6 10z" />
<glyph unicode="&#xf36d;&#xf74;" horiz-adv-x="680" d="M636 744l-11 -44t-11.5 -47.5t-9.5 -44t-4 -33.5v-264h46q-5 -20 -11 -41.5t-11.5 -42.5t-9.5 -39t-4 -31v-268q0 -10 -7 -16t-16 -6q-5 0 -13 6.5t-12 10.5q-20 17 -40 33t-47 28t-64 19.5t-90 7.5q-42 0 -67.5 -4t-33.5 -8q0 21 5.5 40.5t17.5 34.5t31 24t45 9 q18 18 30.5 42t12.5 47q0 29 -24 43.5t-84 14.5t-92 -14t-32 -36t6.5 -34.5t15 -23.5t15 -24t6.5 -35q0 -15 -7 -34t-16.5 -35.5t-20 -27.5t-17.5 -11q-6 0 -8 2.5t-2 4.5t1 5.5t1 5.5q0 24 -6.5 42.5t-14 36.5t-13.5 37.5t-6 45.5q0 27 12.5 60t35.5 62t56 49t74 20h181 l-23 -48q15 -23 23 -40t8 -42q0 -32 -13 -61.5t-49 -52.5q66 -10 113.5 -45t79.5 -80l-19 178q-2 19 -6.5 36t-10.5 30t-14 21t-17 8l42 96h15l-37 249q-2 16 -5 31.5t-6.5 28t-8 20.5t-10.5 8h-102q-2 -23 -2 -50v-39v-209q0 -11 -3 -15.5t-6 -4.5q-4 0 -14.5 6.5 t-17.5 14.5q-18 18 -41 30t-48.5 19t-52 10t-50.5 3q-26 0 -55 -2.5t-65 -10.5q0 4 2.5 18t8.5 30.5t17 32t28 23.5q0 7 -0.5 10.5t-1 6.5t-0.5 7v12q0 11 1.5 25t6 28.5t13 28.5t21.5 26h-45q-18 0 -23 3t-5 15q0 7 3.5 15t8.5 16l24 47h549zM724 -298q0 -39 -16.5 -72.5 t-42.5 -57.5t-58.5 -38t-65.5 -14q-39 0 -70.5 18.5t-61 48.5t-59.5 68t-66 77t-82 76t-106 65q-20 8 -20 25q0 5 4.5 8t8.5 3q16 0 34 -7q43 -19 87 -48t87 -61.5t84.5 -65t81 -58.5t75 -42.5t67.5 -16.5q28 0 49.5 13t21.5 51q0 17 -10.5 32.5t-27 27.5t-37 19t-40.5 7 q-17 0 -30.5 -5.5t-24 -12.5t-17.5 -12.5t-11 -5.5q-5 0 -5.5 11.5t-0.5 20.5q0 12 6.5 29.5t20.5 34t35.5 28.5t50.5 12q31 0 56.5 -13t44 -35t28.5 -50.5t10 -59.5zM219 648q-11 -2 -26 -13.5t-29 -30.5t-23.5 -43t-9.5 -50q32 0 62.5 -8.5t57 -22.5t48 -31t36.5 -35 q0 29 -3 62.5t-10 65.5t-17.5 60t-26.5 46h-59z" />
<glyph unicode="&#xf36d;&#xf7a;" horiz-adv-x="680" d="M219 648q-11 -2 -26 -15.5t-29.5 -35t-24.5 -49t-10 -57.5q65 0 112.5 -27t91.5 -89q-3 30 -6 48.5t-6 35t-6 35t-6 48.5q-3 33 -9 53.5t-13 31.5t-13 15l-9 6h-46zM636 744l-11 -44t-11.5 -47.5t-9.5 -44t-4 -33.5v-335h46l-11 -44t-11.5 -47.5t-9.5 -44t-4 -33.5v-330 q0 -10 -7 -15.5t-16 -5.5q-5 0 -13 6t-12 10q-21 21 -44.5 42.5t-54 38.5t-70 28t-92.5 11q-42 0 -67.5 -4t-33.5 -8q0 21 5.5 40.5t17.5 34.5t31 24t45 9q17 13 31 36.5t14 53.5q0 13 -3.5 30.5t-15 33.5t-33 27t-58.5 11q-30 0 -53 -7t-39 -17.5t-24 -22.5t-8 -23 q0 -22 6.5 -36t15 -27t15 -27.5t6.5 -36.5q0 -15 -7 -34t-16.5 -35.5t-20 -27.5t-17.5 -11q-6 0 -8 2.5t-2 4.5t1 5.5t1 5.5q0 24 -6.5 44t-14 40t-13.5 41t-6 47q0 42 12.5 80t35.5 67t56 46.5t74 17.5h181l-23 -48q17 -11 26.5 -40t9.5 -71q0 -15 -2 -31.5t-9 -33 t-19.5 -33t-34.5 -32.5q33 -5 63.5 -20t57 -36.5t49.5 -47.5t41 -53l-24 230q-4 38 -8.5 61.5t-10.5 36.5t-13 17.5t-16 4.5l45 96h17l-41 324q-2 16 -4.5 31t-6.5 27t-8.5 19t-10.5 7h-98q-1 -11 -1.5 -26t-0.5 -29v-26v-18v-259q0 -11 -3 -15.5t-6 -4.5q-4 0 -10.5 6.5 t-13.5 14.5q-27 32 -53 52t-51 31t-49.5 15t-48.5 4q-26 0 -55.5 -3t-65.5 -11q0 4 2.5 18t9 31t17.5 32.5t28 23.5q0 7 -0.5 10t-1 5.5t-0.5 6v11.5q0 11 1.5 28.5t6 36.5t13 36.5t21.5 29.5h-45q-18 0 -23 3t-5 15q0 7 3.5 15t8.5 16l24 47h551zM613 793q0 -13 -11 -13 t-33 13.5t-52 34t-66.5 45t-75.5 47.5q-30 18 -68 36.5t-75.5 33.5t-71.5 24.5t-56 9.5h-17t-20 -2q0 13 7.5 30t18 32t22 25.5t19.5 10.5q40 0 83 -14.5t86 -38t84.5 -54t79 -63t69 -64.5t54.5 -59l18 -21q5 -5 5 -13z" />
<glyph unicode="&#xf36d;&#xf7c;" horiz-adv-x="680" d="M219 648q-11 -2 -26 -15.5t-29.5 -35t-24.5 -49t-10 -57.5q65 0 112.5 -27t91.5 -89q-3 30 -6 48.5t-6 35t-6 35t-6 48.5q-3 33 -9 53.5t-13 31.5t-13 15l-9 6h-46zM636 744l-11 -44t-11.5 -47.5t-9.5 -44t-4 -33.5v-335h46l-11 -44t-11.5 -47.5t-9.5 -44t-4 -33.5v-330 q0 -10 -7 -15.5t-16 -5.5q-5 0 -13 6t-12 10q-21 21 -44.5 42.5t-54 38.5t-70 28t-92.5 11q-42 0 -67.5 -4t-33.5 -8q0 21 5.5 40.5t17.5 34.5t31 24t45 9q17 13 31 36.5t14 53.5q0 13 -3.5 30.5t-15 33.5t-33 27t-58.5 11q-30 0 -53 -7t-39 -17.5t-24 -22.5t-8 -23 q0 -22 6.5 -36t15 -27t15 -27.5t6.5 -36.5q0 -15 -7 -34t-16.5 -35.5t-20 -27.5t-17.5 -11q-6 0 -8 2.5t-2 4.5t1 5.5t1 5.5q0 24 -6.5 44t-14 40t-13.5 41t-6 47q0 42 12.5 80t35.5 67t56 46.5t74 17.5h181l-23 -48q17 -11 26.5 -40t9.5 -71q0 -15 -2 -31.5t-9 -33 t-19.5 -33t-34.5 -32.5q33 -5 63.5 -20t57 -36.5t49.5 -47.5t41 -53l-24 230q-4 38 -8.5 61.5t-10.5 36.5t-13 17.5t-16 4.5l45 96h17l-41 324q-2 16 -4.5 31t-6.5 27t-8.5 19t-10.5 7h-98q-1 -11 -1.5 -26t-0.5 -29v-26v-18v-259q0 -11 -3 -15.5t-6 -4.5q-4 0 -10.5 6.5 t-13.5 14.5q-27 32 -53 52t-51 31t-49.5 15t-48.5 4q-26 0 -55.5 -3t-65.5 -11q0 4 2.5 18t9 31t17.5 32.5t28 23.5q0 7 -0.5 10t-1 5.5t-0.5 6v11.5q0 11 1.5 28.5t6 36.5t13 36.5t21.5 29.5h-45q-18 0 -23 3t-5 15q0 7 3.5 15t8.5 16l24 47h551zM-6 947h-17t-20 -2 q0 13 7 30t17 32t21 25.5t19 10.5q33 0 77.5 -17t87.5 -46.5t78 -68t49 -81.5l3 8q9 39 20 76t34.5 65.5t65 46t111.5 17.5q34 0 59 1t46 6t42.5 16t48.5 31q13 0 13 -6q0 -20 -24.5 -45t-60.5 -47t-76.5 -36.5t-73.5 -14.5q-38 0 -70.5 -14t-56.5 -36t-38 -49t-14 -52 q0 -8 -9.5 -13t-14.5 -5q-10 0 -21 22q-16 33 -51 59.5t-78 46t-89 30t-85 10.5z" />
<glyph unicode="&#xf42;&#xfad;" horiz-adv-x="680" d="M636 744l-11 -44t-11.5 -47.5t-9.5 -44t-4 -33.5v-800q-19 12 -45 26t-56 26.5t-62.5 20.5t-64.5 8q35 64 80.5 116t88.5 100l-30 492q-1 16 -3.5 31t-6.5 27t-9 19t-11 7h-98q-1 -11 -1.5 -26t-0.5 -29v-26v-18v-329q0 -11 -3 -15.5t-6 -4.5q-4 0 -10.5 6.5t-13.5 14.5 q-62 70 -108 106t-94 36q-26 0 -55.5 -3t-65.5 -11q0 4 2.5 18t9 31t17.5 32.5t28 23.5q0 7 -0.5 10t-1 5.5t-0.5 6v11.5q0 19 1.5 42t6 45.5t13 42t21.5 31.5h-45q-18 0 -23 3t-5 15q0 7 3.5 15t8.5 16l24 47h551zM455 -84q15 0 29 -5.5t27 -14.5t24.5 -20t19.5 -21 l-10 152q-28 -23 -49 -45t-41 -46zM219 648q-11 -2 -26 -17.5t-29.5 -40.5t-24.5 -58.5t-10 -70.5q32 0 58 -8.5t49.5 -26.5t46.5 -46t50 -67q-6 61 -12.5 114.5t-11.5 114.5q-3 33 -9 53.5t-13 31.5t-13 15l-9 6h-46z" />
<glyph unicode="&#xf62;&#xf92;" d="M556 744l-33 -72q-11 -24 -64 -24h-129v-94h286q-5 -20 -11 -47t-11.5 -54.5t-9.5 -51t-4 -36.5v-708q0 -17 -19 -17q-5 0 -11 4t-7 13l-52 717q-1 16 -3.5 31t-6.5 27t-9 19t-11 7h-98q-1 -11 -1.5 -26t-0.5 -29v-26v-18v-279q0 -11 -3 -15.5t-6 -4.5q-4 0 -10.5 6.5 t-13.5 14.5q-62 70 -108 101t-94 31q-26 0 -55.5 -3t-65.5 -11q0 4 2.5 18t9 31t17.5 32.5t28 23.5q0 7 -0.5 10t-1 5.5t-0.5 6v11.5q0 7 1.5 22.5t6 33.5t13 35.5t21.5 29.5h-45q-18 0 -23 3t-5 15q0 7 3.5 15t8.5 16l24 47h209v20q0 35 -19.5 53.5t-42.5 20.5h-123 q-18 0 -23 3t-5 15q0 4 4.5 15t10.5 23t12 23.5t9 16.5h459zM199 458q-11 -2 -26 -15.5t-29.5 -34t-24.5 -46t-10 -51.5q32 0 58 -7t49.5 -23.5t46.5 -42.5t50 -65q-6 54 -11 97.5t-13 81.5q-4 19 -10 38t-12.5 34t-12 24.5t-9.5 9.5h-46z" />
<glyph unicode="&#xf374;&#xf72;" d="M556 744l-33 -72q-11 -24 -64 -24h-129v-94h286q-5 -20 -11 -47t-11.5 -54.5t-9.5 -51t-4 -36.5v-708q0 -17 -19 -17q-5 0 -11 4t-7 13l-52 717q-1 16 -3.5 31t-6.5 27t-9 19t-11 7h-98q-1 -11 -1.5 -26t-0.5 -29v-26v-18v-279q0 -11 -3 -15.5t-6 -4.5q-4 0 -10.5 6.5 t-13.5 14.5q-62 70 -108 101t-94 31q-26 0 -55.5 -3t-65.5 -11q0 4 2.5 18t9 31t17.5 32.5t28 23.5q0 7 -0.5 10t-1 5.5t-0.5 6v11.5q0 7 1.5 22.5t6 33.5t13 35.5t21.5 29.5h-45q-18 0 -23 3t-5 15q0 7 3.5 15t8.5 16l24 47h209v20q0 35 -19.5 53.5t-42.5 20.5h-123 q-18 0 -23 3t-5 15q0 4 4.5 15t10.5 23t12 23.5t9 16.5h459zM199 458q-11 -2 -26 -15.5t-29.5 -34t-24.5 -46t-10 -51.5q32 0 58 -7t49.5 -23.5t46.5 -42.5t50 -65q-6 54 -11 97.5t-13 81.5q-4 19 -10 38t-12.5 34t-12 24.5t-9.5 9.5h-46zM247 1166q41 0 87 -38t93.5 -95 t93.5 -122.5t88 -120.5q0 -7 -6.5 -9.5t-11.5 -2.5q-11 0 -34 21.5t-54.5 54t-69 70.5t-79 70.5t-84 54t-83.5 21.5q-10 0 -22.5 -4t-23 -11.5t-18 -18t-7.5 -23.5q0 -11 3.5 -23t12 -22.5t22.5 -17.5t35 -7q19 0 33 6t23.5 12.5t15.5 12.5t9 6q4 0 5.5 -3.5t1.5 -5.5 q0 -27 -10.5 -49t-27.5 -38t-38.5 -25t-42.5 -9q-20 0 -39.5 9t-34.5 23.5t-24.5 33.5t-9.5 39q0 52 24 92t56.5 66t65.5 39.5t51 13.5z" />
<glyph unicode="&#xf374;&#xf80;" d="M556 744l-33 -72q-11 -24 -64 -24h-129v-94h286q-5 -20 -11 -47t-11.5 -54.5t-9.5 -51t-4 -36.5v-708q0 -17 -19 -17q-5 0 -11 4t-7 13l-52 717q-1 16 -3.5 31t-6.5 27t-9 19t-11 7h-98q-1 -11 -1.5 -26t-0.5 -29v-26v-18v-279q0 -11 -3 -15.5t-6 -4.5q-4 0 -10.5 6.5 t-13.5 14.5q-62 70 -108 101t-94 31q-26 0 -55.5 -3t-65.5 -11q0 4 2.5 18t9 31t17.5 32.5t28 23.5q0 7 -0.5 10t-1 5.5t-0.5 6v11.5q0 7 1.5 22.5t6 33.5t13 35.5t21.5 29.5h-45q-18 0 -23 3t-5 15q0 7 3.5 15t8.5 16l24 47h209v20q0 35 -19.5 53.5t-42.5 20.5h-123 q-18 0 -23 3t-5 15q0 4 4.5 15t10.5 23t12 23.5t9 16.5h459zM199 458q-11 -2 -26 -15.5t-29.5 -34t-24.5 -46t-10 -51.5q32 0 58 -7t49.5 -23.5t46.5 -42.5t50 -65q-6 54 -11 97.5t-13 81.5q-4 19 -10 38t-12.5 34t-12 24.5t-9.5 9.5h-46zM47 802q44 53 84.5 112.5t78.5 109 t73 82t67 32.5q12 0 33.5 -3t46 -11.5t50.5 -23.5t46.5 -38.5t34 -58t13.5 -80.5q0 -20 -8.5 -38.5t-22 -32t-30.5 -21.5t-34 -8q-21 0 -42 7.5t-37 22t-26 35.5t-10 48q0 2 1.5 6.5t5.5 4.5t11 -5t17 -10.5t22 -10.5t27 -5q17 0 28.5 6t18.5 15.5t10 21t3 22.5 q0 13 -9.5 25t-24.5 21t-33.5 14.5t-35.5 5.5q-31 0 -65 -19t-68.5 -48t-67 -62t-60 -62t-48.5 -48t-32 -19q-5 0 -11 3t-6 10z" />
<glyph unicode="&#xf374;&#xf74;" d="M556 744l-33 -72q-11 -24 -64 -24h-129v-94h286l-11 -44t-11.5 -47.5t-9.5 -44t-4 -33.5v-469q51 -11 81 -54.5t30 -99.5q0 -39 -16.5 -72.5t-42.5 -58.5t-58.5 -39t-65.5 -14q-46 0 -87.5 29.5t-80.5 76.5t-76.5 105t-75.5 115t-78.5 106.5t-84.5 79.5q-9 6 -14.5 11.5 t-5.5 13.5q0 5 4.5 8t8.5 3q16 0 34 -7q43 -19 87 -60t87.5 -91t87.5 -103t87.5 -97t86 -72t84.5 -28q29 0 50 14t21 52q0 17 -10.5 32t-27 26t-37 17.5t-40.5 6.5q-16 0 -28.5 -5t-22.5 -11t-17.5 -11t-14.5 -5q-5 0 -5.5 11.5t-0.5 20.5q0 12 5.5 28t17.5 31.5t30.5 27 t44.5 14.5l-46 457q-2 16 -4.5 31t-6 27t-8.5 19t-11 7h-98q-1 -11 -1.5 -26t-0.5 -29v-26v-18v-259q0 -11 -3 -15.5t-6 -4.5q-4 0 -10.5 6.5t-13.5 14.5q-62 70 -108 101t-94 31q-26 0 -55.5 -3t-65.5 -11q0 4 2.5 18t9 31t17.5 32.5t28 23.5q-1 7 -1.5 14t-0.5 15 q0 24 8.5 50t33.5 55h-45q-18 0 -23 3t-5 15q0 7 3.5 15t8.5 16l24 47h209v20q0 35 -19.5 53.5t-42.5 20.5h-123q-18 0 -23 3t-5 15q0 4 4.5 15t10.5 23t12 23.5t9 16.5h459zM199 458q-11 -2 -26 -15t-29 -31.5t-24 -40t-10 -40.5q32 0 57.5 -7t49 -23.5t46.5 -42.5t50 -65 q-3 27 -5.5 48t-5.5 39.5t-6 35.5t-7 36t-10 38t-12.5 34t-12 24.5t-9.5 9.5h-46z" />
<glyph unicode="&#xf374;&#xf7a;" d="M556 744l-33 -72q-11 -24 -64 -24h-129v-94h286q-5 -20 -11 -47t-11.5 -54.5t-9.5 -51t-4 -36.5v-708q0 -17 -19 -17q-5 0 -11 4t-7 13l-52 717q-1 16 -3.5 31t-6.5 27t-9 19t-11 7h-98q-1 -11 -1.5 -26t-0.5 -29v-26v-18v-279q0 -11 -3 -15.5t-6 -4.5q-4 0 -10.5 6.5 t-13.5 14.5q-62 70 -108 101t-94 31q-26 0 -55.5 -3t-65.5 -11q0 4 2.5 18t9 31t17.5 32.5t28 23.5q0 7 -0.5 10t-1 5.5t-0.5 6v11.5q0 7 1.5 22.5t6 33.5t13 35.5t21.5 29.5h-45q-18 0 -23 3t-5 15q0 7 3.5 15t8.5 16l24 47h209v20q0 35 -19.5 53.5t-42.5 20.5h-123 q-18 0 -23 3t-5 15q0 4 4.5 15t10.5 23t12 23.5t9 16.5h459zM199 458q-11 -2 -26 -15.5t-29.5 -34t-24.5 -46t-10 -51.5q32 0 58 -7t49.5 -23.5t46.5 -42.5t50 -65q-6 54 -11 97.5t-13 81.5q-4 19 -10 38t-12.5 34t-12 24.5t-9.5 9.5h-46zM603 793q0 -13 -11 -13t-33 13.5 t-52 34t-66.5 45t-75.5 47.5q-30 18 -68 36.5t-75.5 33.5t-71.5 24.5t-56 9.5h-17t-20 -2q0 13 7.5 30t18 32t22 25.5t19.5 10.5q40 0 83 -14.5t86 -38t84.5 -54t79 -63t69 -64.5t54.5 -59l18 -21q5 -5 5 -13z" />
<glyph unicode="&#xf374;&#xf7c;" d="M556 744l-33 -72q-11 -24 -64 -24h-129v-94h286q-5 -20 -11 -47t-11.5 -54.5t-9.5 -51t-4 -36.5v-708q0 -17 -19 -17q-5 0 -11 4t-7 13l-52 717q-1 16 -3.5 31t-6.5 27t-9 19t-11 7h-98q-1 -11 -1.5 -26t-0.5 -29v-26v-18v-279q0 -11 -3 -15.5t-6 -4.5q-4 0 -10.5 6.5 t-13.5 14.5q-62 70 -108 101t-94 31q-26 0 -55.5 -3t-65.5 -11q0 4 2.5 18t9 31t17.5 32.5t28 23.5q0 7 -0.5 10t-1 5.5t-0.5 6v11.5q0 7 1.5 22.5t6 33.5t13 35.5t21.5 29.5h-45q-18 0 -23 3t-5 15q0 7 3.5 15t8.5 16l24 47h209v20q0 35 -19.5 53.5t-42.5 20.5h-123 q-18 0 -23 3t-5 15q0 4 4.5 15t10.5 23t12 23.5t9 16.5h459zM199 458q-11 -2 -26 -15.5t-29.5 -34t-24.5 -46t-10 -51.5q32 0 58 -7t49.5 -23.5t46.5 -42.5t50 -65q-6 54 -11 97.5t-13 81.5q-4 19 -10 38t-12.5 34t-12 24.5t-9.5 9.5h-46zM-20 947h-17t-20 -2q0 13 7 30 t17 32t21 25.5t19 10.5q33 0 77.5 -17t87.5 -46.5t78 -68t49 -81.5l3 8q9 39 20 76t34.5 65.5t65 46t111.5 17.5q34 0 59 1t46 6t42.5 16t48.5 31q13 0 13 -6q0 -20 -24.5 -45t-60.5 -47t-76.5 -36.5t-73.5 -14.5q-38 0 -70.5 -14t-56.5 -36t-38 -49t-14 -52q0 -8 -9.5 -13 t-14.5 -5q-10 0 -21 22q-16 33 -51 59.5t-78 46t-89 30t-85 10.5z" />
<glyph unicode="&#xf62;&#xf92;&#xfb1;" d="M556 744l-33 -72q-9 -11 -23 -17.5t-41 -6.5h-129v-94h283q-5 -20 -10.5 -44t-10.5 -47.5t-8.5 -44t-3.5 -33.5v-283q0 -32 -24 -60.5t-57.5 -49.5t-69.5 -33.5t-60 -12.5q-53 0 -109.5 12.5t-112.5 35.5q38 -61 92 -89.5t114 -28.5q64 0 126 30t137 92q9 8 20 15t20 7 q5 0 7.5 -3.5t2.5 -7.5q0 -5 -4.5 -11t-10 -12t-11.5 -11.5t-9 -9.5q-33 -38 -65.5 -71.5t-67.5 -58.5t-76 -39.5t-92 -14.5q-59 0 -99 25t-69 63t-51 84t-46 88q-2 4 -5 11t-3 12q0 2 3.5 5.5t10.5 3.5q8 0 32 -8q20 -7 49 -17.5t63 -20.5t70 -17t71 -7q31 0 62.5 11.5 t56.5 29t41 37t16 35.5l-26 258q-2 16 -4.5 31t-6 27t-8.5 19t-11 7h-113q-1 -11 -1.5 -26t-0.5 -29v-26v-18v-259q0 -11 -3 -15.5t-6 -4.5q-4 0 -10.5 6.5t-13.5 14.5q-31 35 -57.5 57t-50.5 34t-47 16.5t-47 4.5q-26 0 -55.5 -3t-65.5 -11q0 4 2.5 18t9 31t17.5 32.5 t28 23.5q0 7 -0.5 10t-1 5.5t-0.5 6v11.5q0 7 1.5 22.5t6 33.5t13 35.5t21.5 29.5h-45q-18 0 -23 3t-5 15q0 7 3.5 15t8.5 16l24 47h209v20q0 35 -19.5 53.5t-42.5 20.5h-123q-18 0 -23 3t-5 15q0 4 4.5 15t10.5 23t12 23.5t9 16.5h459zM199 458q-11 -2 -26 -15.5t-29.5 -34 t-24.5 -46t-10 -51.5q32 0 58 -6t49 -19.5t46.5 -36.5t50.5 -56q-3 26 -4.5 47t-2.5 40t-3 36t-5 36t-7.5 38t-9.5 34t-9.5 24.5t-8.5 9.5h-64z" />
<glyph unicode="&#xf37a;&#xf72;" d="M556 744l-33 -72q-9 -11 -23 -17.5t-41 -6.5h-129v-94h283q-5 -20 -10.5 -44t-10.5 -47.5t-8.5 -44t-3.5 -33.5v-283q0 -32 -24 -60.5t-57.5 -49.5t-69.5 -33.5t-60 -12.5q-53 0 -109.5 12.5t-112.5 35.5q38 -61 92 -89.5t114 -28.5q64 0 126 30t137 92q9 8 20 15t20 7 q5 0 7.5 -3.5t2.5 -7.5q0 -5 -4.5 -11t-10 -12t-11.5 -11.5t-9 -9.5q-33 -38 -65.5 -71.5t-67.5 -58.5t-76 -39.5t-92 -14.5q-59 0 -99 25t-69 63t-51 84t-46 88q-2 4 -5 11t-3 12q0 2 3.5 5.5t10.5 3.5q8 0 32 -8q20 -7 49 -17.5t63 -20.5t70 -17t71 -7q31 0 62.5 11.5 t56.5 29t41 37t16 35.5l-26 258q-2 16 -4.5 31t-6 27t-8.5 19t-11 7h-113q-1 -11 -1.5 -26t-0.5 -29v-26v-18v-259q0 -11 -3 -15.5t-6 -4.5q-4 0 -10.5 6.5t-13.5 14.5q-31 35 -57.5 57t-50.5 34t-47 16.5t-47 4.5q-26 0 -55.5 -3t-65.5 -11q0 4 2.5 18t9 31t17.5 32.5 t28 23.5q0 7 -0.5 10t-1 5.5t-0.5 6v11.5q0 7 1.5 22.5t6 33.5t13 35.5t21.5 29.5h-45q-18 0 -23 3t-5 15q0 7 3.5 15t8.5 16l24 47h209v20q0 35 -19.5 53.5t-42.5 20.5h-123q-18 0 -23 3t-5 15q0 4 4.5 15t10.5 23t12 23.5t9 16.5h459zM199 458q-11 -2 -26 -15.5t-29.5 -34 t-24.5 -46t-10 -51.5q32 0 58 -6t49 -19.5t46.5 -36.5t50.5 -56q-3 26 -4.5 47t-2.5 40t-3 36t-5 36t-7.5 38t-9.5 34t-9.5 24.5t-8.5 9.5h-64zM221 1166q41 0 87 -38t93.5 -95t93.5 -122.5t88 -120.5q0 -7 -6.5 -9.5t-11.5 -2.5q-11 0 -34 21.5t-54.5 54t-69 70.5t-79 70.5 t-84 54t-83.5 21.5q-10 0 -22.5 -4t-23 -11.5t-18 -18t-7.5 -23.5q0 -11 3.5 -23t12 -22.5t22.5 -17.5t35 -7q19 0 33 6t23.5 12.5t15.5 12.5t9 6q4 0 5.5 -3.5t1.5 -5.5q0 -27 -10.5 -49t-27.5 -38t-38.5 -25t-42.5 -9q-20 0 -39.5 9t-34.5 23.5t-24.5 33.5t-9.5 39 q0 52 24 92t56.5 66t65.5 39.5t51 13.5z" />
<glyph unicode="&#xf37a;&#xf80;" d="M556 744l-33 -72q-9 -11 -23 -17.5t-41 -6.5h-129v-94h283q-5 -20 -10.5 -44t-10.5 -47.5t-8.5 -44t-3.5 -33.5v-283q0 -32 -24 -60.5t-57.5 -49.5t-69.5 -33.5t-60 -12.5q-53 0 -109.5 12.5t-112.5 35.5q38 -61 92 -89.5t114 -28.5q64 0 126 30t137 92q9 8 20 15t20 7 q5 0 7.5 -3.5t2.5 -7.5q0 -5 -4.5 -11t-10 -12t-11.5 -11.5t-9 -9.5q-33 -38 -65.5 -71.5t-67.5 -58.5t-76 -39.5t-92 -14.5q-59 0 -99 25t-69 63t-51 84t-46 88q-2 4 -5 11t-3 12q0 2 3.5 5.5t10.5 3.5q8 0 32 -8q20 -7 49 -17.5t63 -20.5t70 -17t71 -7q31 0 62.5 11.5 t56.5 29t41 37t16 35.5l-26 258q-2 16 -4.5 31t-6 27t-8.5 19t-11 7h-113q-1 -11 -1.5 -26t-0.5 -29v-26v-18v-259q0 -11 -3 -15.5t-6 -4.5q-4 0 -10.5 6.5t-13.5 14.5q-31 35 -57.5 57t-50.5 34t-47 16.5t-47 4.5q-26 0 -55.5 -3t-65.5 -11q0 4 2.5 18t9 31t17.5 32.5 t28 23.5q0 7 -0.5 10t-1 5.5t-0.5 6v11.5q0 7 1.5 22.5t6 33.5t13 35.5t21.5 29.5h-45q-18 0 -23 3t-5 15q0 7 3.5 15t8.5 16l24 47h209v20q0 35 -19.5 53.5t-42.5 20.5h-123q-18 0 -23 3t-5 15q0 4 4.5 15t10.5 23t12 23.5t9 16.5h459zM199 458q-11 -2 -26 -15.5t-29.5 -34 t-24.5 -46t-10 -51.5q32 0 58 -6t49 -19.5t46.5 -36.5t50.5 -56q-3 26 -4.5 47t-2.5 40t-3 36t-5 36t-7.5 38t-9.5 34t-9.5 24.5t-8.5 9.5h-64zM71 802q44 53 84.5 112.5t78.5 109t73 82t67 32.5q12 0 33.5 -3t46 -11.5t50.5 -23.5t46.5 -38.5t34 -58t13.5 -80.5 q0 -20 -8.5 -38.5t-22 -32t-30.5 -21.5t-34 -8q-21 0 -42 7.5t-37 22t-26 35.5t-10 48q0 2 1.5 6.5t5.5 4.5t11 -5t17 -10.5t22 -10.5t27 -5q17 0 28.5 6t18.5 15.5t10 21t3 22.5q0 13 -9.5 25t-24.5 21t-33.5 14.5t-35.5 5.5q-31 0 -65 -19t-68.5 -48t-67 -62t-60 -62 t-48.5 -48t-32 -19q-5 0 -11 3t-6 10z" />
<glyph unicode="&#xf37a;&#xf74;" d="M556 744l-33 -72q-9 -11 -23 -17.5t-41 -6.5h-129v-94h286l-11 -44t-11.5 -47.5t-9.5 -44t-4 -33.5v-244q0 -32 -24 -61t-57.5 -50.5t-69.5 -34t-61 -12.5q-53 0 -109.5 12.5t-112.5 35.5q38 -61 92 -89.5t114 -28.5q64 0 126 30t137 92q9 8 20 15t20 7q5 0 7.5 -3.5 t2.5 -7.5q0 -5 -4.5 -11t-10 -12t-11.5 -11.5t-9 -9.5l-21 -24l-74 -142q12 3 26 3q31 0 56.5 -12.5t44 -34t28.5 -50t10 -59.5q0 -39 -16.5 -72.5t-42.5 -58.5t-58.5 -39t-65.5 -14q-39 0 -74 16.5t-69.5 44.5t-70 64t-76.5 74t-88 76t-105 70q-8 5 -14 11t-6 14q0 5 4.5 8 t8.5 3q16 0 34 -7q43 -19 89.5 -47.5t94 -60t94 -63t90 -56.5t82 -41t70.5 -16q29 0 50 14t21 52q0 17 -10.5 32t-27 26t-37 17.5t-40.5 6.5q-12 0 -24 -5t-22.5 -11t-19.5 -11t-17 -5q-5 0 -5.5 11.5t-0.5 20.5q0 11 5.5 26.5t17.5 31.5l49 94q-40 -32 -85.5 -51.5 t-105.5 -19.5q-59 0 -99 25t-69 63t-51 84t-46 88q-2 4 -5 11t-3 12q0 2 3.5 5.5t10.5 3.5q8 0 32 -8q20 -7 49 -17.5t63 -20.5t70 -17t71 -7q30 0 60.5 11.5t55 28.5t40.5 36t17 35l-32 223q-1 16 -3.5 31t-6.5 27t-9 19t-11 7h-103q-1 -11 -1.5 -26t-0.5 -29v-26v-18v-234 q0 -11 -3 -15.5t-6 -4.5q-4 0 -10.5 6.5t-13.5 14.5q-31 35 -57.5 54.5t-50.5 29t-47 11.5t-47 2q-26 0 -55.5 -3t-65.5 -11q0 4 2.5 18t9 31t17.5 32.5t28 23.5q0 7 -0.5 10t-1 5.5t-0.5 6v11.5q0 7 1.5 21t6 30t13 32t21.5 28h-45q-18 0 -23 3t-5 15q0 7 3.5 15t8.5 16 l24 47h209v20q0 35 -19.5 53.5t-42.5 20.5h-123q-18 0 -23 3t-5 15q0 4 4.5 15t10.5 23t12 23.5t9 16.5h459zM199 458q-11 -2 -26 -13.5t-29.5 -30.5t-24.5 -43t-10 -50q32 0 58 -3.5t49 -14.5t46.5 -31.5t50.5 -53.5q-3 26 -5.5 43.5t-5 31t-5.5 27t-7 32.5t-9.5 38t-11 34 t-10.5 24.5t-9 9.5h-51z" />
<glyph unicode="&#xf37a;&#xf7a;" d="M556 744l-33 -72q-9 -11 -23 -17.5t-41 -6.5h-129v-94h283q-5 -20 -10.5 -44t-10.5 -47.5t-8.5 -44t-3.5 -33.5v-283q0 -32 -24 -60.5t-57.5 -49.5t-69.5 -33.5t-60 -12.5q-53 0 -109.5 12.5t-112.5 35.5q38 -61 92 -89.5t114 -28.5q64 0 126 30t137 92q9 8 20 15t20 7 q5 0 7.5 -3.5t2.5 -7.5q0 -5 -4.5 -11t-10 -12t-11.5 -11.5t-9 -9.5q-33 -38 -65.5 -71.5t-67.5 -58.5t-76 -39.5t-92 -14.5q-59 0 -99 25t-69 63t-51 84t-46 88q-2 4 -5 11t-3 12q0 2 3.5 5.5t10.5 3.5q8 0 32 -8q20 -7 49 -17.5t63 -20.5t70 -17t71 -7q31 0 62.5 11.5 t56.5 29t41 37t16 35.5l-26 258q-2 16 -4.5 31t-6 27t-8.5 19t-11 7h-113q-1 -11 -1.5 -26t-0.5 -29v-26v-18v-259q0 -11 -3 -15.5t-6 -4.5q-4 0 -10.5 6.5t-13.5 14.5q-31 35 -57.5 57t-50.5 34t-47 16.5t-47 4.5q-26 0 -55.5 -3t-65.5 -11q0 4 2.5 18t9 31t17.5 32.5 t28 23.5q0 7 -0.5 10t-1 5.5t-0.5 6v11.5q0 7 1.5 22.5t6 33.5t13 35.5t21.5 29.5h-45q-18 0 -23 3t-5 15q0 7 3.5 15t8.5 16l24 47h209v20q0 35 -19.5 53.5t-42.5 20.5h-123q-18 0 -23 3t-5 15q0 4 4.5 15t10.5 23t12 23.5t9 16.5h459zM199 458q-11 -2 -26 -15.5t-29.5 -34 t-24.5 -46t-10 -51.5q32 0 58 -6t49 -19.5t46.5 -36.5t50.5 -56q-3 26 -4.5 47t-2.5 40t-3 36t-5 36t-7.5 38t-9.5 34t-9.5 24.5t-8.5 9.5h-64zM603 793q0 -13 -11 -13t-33 13.5t-52 34t-66.5 45t-75.5 47.5q-30 18 -68 36.5t-75.5 33.5t-71.5 24.5t-56 9.5h-17t-20 -2 q0 13 7.5 30t18 32t22 25.5t19.5 10.5q40 0 83 -14.5t86 -38t84.5 -54t79 -63t69 -64.5t54.5 -59l18 -21q5 -5 5 -13z" />
<glyph unicode="&#xf37a;&#xf7c;" d="M556 744l-33 -72q-9 -11 -23 -17.5t-41 -6.5h-129v-94h283q-5 -20 -10.5 -44t-10.5 -47.5t-8.5 -44t-3.5 -33.5v-283q0 -32 -24 -60.5t-57.5 -49.5t-69.5 -33.5t-60 -12.5q-53 0 -109.5 12.5t-112.5 35.5q38 -61 92 -89.5t114 -28.5q64 0 126 30t137 92q9 8 20 15t20 7 q5 0 7.5 -3.5t2.5 -7.5q0 -5 -4.5 -11t-10 -12t-11.5 -11.5t-9 -9.5q-33 -38 -65.5 -71.5t-67.5 -58.5t-76 -39.5t-92 -14.5q-59 0 -99 25t-69 63t-51 84t-46 88q-2 4 -5 11t-3 12q0 2 3.5 5.5t10.5 3.5q8 0 32 -8q20 -7 49 -17.5t63 -20.5t70 -17t71 -7q31 0 62.5 11.5 t56.5 29t41 37t16 35.5l-26 258q-2 16 -4.5 31t-6 27t-8.5 19t-11 7h-113q-1 -11 -1.5 -26t-0.5 -29v-26v-18v-259q0 -11 -3 -15.5t-6 -4.5q-4 0 -10.5 6.5t-13.5 14.5q-31 35 -57.5 57t-50.5 34t-47 16.5t-47 4.5q-26 0 -55.5 -3t-65.5 -11q0 4 2.5 18t9 31t17.5 32.5 t28 23.5q0 7 -0.5 10t-1 5.5t-0.5 6v11.5q0 7 1.5 22.5t6 33.5t13 35.5t21.5 29.5h-45q-18 0 -23 3t-5 15q0 7 3.5 15t8.5 16l24 47h209v20q0 35 -19.5 53.5t-42.5 20.5h-123q-18 0 -23 3t-5 15q0 4 4.5 15t10.5 23t12 23.5t9 16.5h459zM199 458q-11 -2 -26 -15.5t-29.5 -34 t-24.5 -46t-10 -51.5q32 0 58 -6t49 -19.5t46.5 -36.5t50.5 -56q-3 26 -4.5 47t-2.5 40t-3 36t-5 36t-7.5 38t-9.5 34t-9.5 24.5t-8.5 9.5h-64zM-13 947h-17t-20 -2q0 13 7 30t17 32t21 25.5t19 10.5q33 0 77.5 -17t87.5 -46.5t78 -68t49 -81.5l3 8q9 39 20 76t34.5 65.5 t65 46t111.5 17.5q34 0 59 1t46 6t42.5 16t48.5 31q13 0 13 -6q0 -20 -24.5 -45t-60.5 -47t-76.5 -36.5t-73.5 -14.5q-38 0 -70.5 -14t-56.5 -36t-38 -49t-14 -52q0 -8 -9.5 -13t-14.5 -5q-10 0 -21 22q-16 33 -51 59.5t-78 46t-89 30t-85 10.5z" />
<glyph unicode="&#xf63;&#xf92;" horiz-adv-x="680" d="M388 744l-22 -32q17 -11 27.5 -32.5t10.5 -59.5q0 -31 -12.5 -59.5t-53.5 -60.5q33 -5 64 -20t58 -37t50.5 -48t41.5 -53l-27 221q-3 28 -6.5 45t-7 26t-7.5 12t-9 3q-3 0 -6.5 -0.5t-8.5 -0.5l45 96h114q-10 -40 -24.5 -74t-14.5 -60v-310h32q-3 -20 -8 -44t-10.5 -47.5 t-9.5 -44t-4 -33.5v-475q0 -6 -4 -11t-13 -5q-19 0 -21 16l-18 208q-4 39 -9 102t-17 154q-3 22 -4.5 37.5t-5 26t-10.5 15.5t-20 5h-56q-7 -20 -9.5 -41t-2.5 -33v-257q0 -3 -2 -8t-13 -5q-8 0 -14 4t-11 9q-24 22 -53 41t-59.5 33t-61 22t-57.5 8q-7 0 -17.5 -1t-22 -2.5 t-21.5 -3.5t-16 -3q0 28 12 54t31 41q0 45 18.5 79.5t40.5 62.5h-33q-18 0 -23 3t-5 15q0 4 4.5 15t10.5 23t12 23.5t9 16.5h393q-20 19 -43 38t-52.5 34t-66 24t-83.5 9q-42 0 -67.5 -4t-33.5 -8q0 21 5.5 40.5t17.5 34.5t31 24t45 9q17 13 31 31.5t14 48.5q0 13 -2.5 25 t-14 21.5t-35.5 15t-68 5.5q-57 0 -88.5 -19.5t-31.5 -41.5t6.5 -34.5t15 -23.5t15 -24t6.5 -35q0 -15 -7 -34t-16.5 -35.5t-20 -27.5t-17.5 -11q-10 0 -10 3q0 2 1 7.5t1 7.5q0 24 -6.5 42.5t-14 36.5t-13.5 37.5t-6 45.5q0 42 12 78.5t34.5 64t54.5 43.5t73 16h190z M254 204q-16 -12 -33.5 -26.5t-32 -31.5t-24 -38t-9.5 -46q25 0 53 -10t55.5 -25.5t52 -35.5t43.5 -41l-10 83q-4 30 -7 58t-7.5 50.5t-11.5 38.5t-18 24h-51z" />
<glyph unicode="&#xf380;&#xf72;" horiz-adv-x="680" d="M388 744l-22 -32q17 -11 27.5 -32.5t10.5 -59.5q0 -31 -12.5 -59.5t-53.5 -60.5q33 -5 64 -20t58 -37t50.5 -48t41.5 -53l-27 221q-3 28 -6.5 45t-7 26t-7.5 12t-9 3q-3 0 -6.5 -0.5t-8.5 -0.5l45 96h114q-10 -40 -24.5 -74t-14.5 -60v-310h32q-3 -20 -8 -44t-10.5 -47.5 t-9.5 -44t-4 -33.5v-475q0 -6 -4 -11t-13 -5q-19 0 -21 16l-18 208q-4 39 -9 102t-17 154q-3 22 -4.5 37.5t-5 26t-10.5 15.5t-20 5h-56q-7 -20 -9.5 -41t-2.5 -33v-257q0 -3 -2 -8t-13 -5q-8 0 -14 4t-11 9q-24 22 -53 41t-59.5 33t-61 22t-57.5 8q-7 0 -17.5 -1t-22 -2.5 t-21.5 -3.5t-16 -3q0 28 12 54t31 41q0 45 18.5 79.5t40.5 62.5h-33q-18 0 -23 3t-5 15q0 4 4.5 15t10.5 23t12 23.5t9 16.5h393q-20 19 -43 38t-52.5 34t-66 24t-83.5 9q-42 0 -67.5 -4t-33.5 -8q0 21 5.5 40.5t17.5 34.5t31 24t45 9q17 13 31 31.5t14 48.5q0 13 -2.5 25 t-14 21.5t-35.5 15t-68 5.5q-57 0 -88.5 -19.5t-31.5 -41.5t6.5 -34.5t15 -23.5t15 -24t6.5 -35q0 -15 -7 -34t-16.5 -35.5t-20 -27.5t-17.5 -11q-10 0 -10 3q0 2 1 7.5t1 7.5q0 24 -6.5 42.5t-14 36.5t-13.5 37.5t-6 45.5q0 42 12 78.5t34.5 64t54.5 43.5t73 16h190z M254 204q-16 -12 -33.5 -26.5t-32 -31.5t-24 -38t-9.5 -46q25 0 53 -10t55.5 -25.5t52 -35.5t43.5 -41l-10 83q-4 30 -7 58t-7.5 50.5t-11.5 38.5t-18 24h-51zM254 1166q41 0 87 -38t93.5 -95t93.5 -122.5t88 -120.5q0 -7 -6.5 -9.5t-11.5 -2.5q-11 0 -34 21.5t-54.5 54 t-69 70.5t-79 70.5t-84 54t-83.5 21.5q-10 0 -22.5 -4t-23 -11.5t-18 -18t-7.5 -23.5q0 -11 3.5 -23t12 -22.5t22.5 -17.5t35 -7q19 0 33 6t23.5 12.5t15.5 12.5t9 6q4 0 5.5 -3.5t1.5 -5.5q0 -27 -10.5 -49t-27.5 -38t-38.5 -25t-42.5 -9q-20 0 -39.5 9t-34.5 23.5 t-24.5 33.5t-9.5 39q0 52 24 92t56.5 66t65.5 39.5t51 13.5z" />
<glyph unicode="&#xf380;&#xf80;" horiz-adv-x="680" d="M388 744l-22 -32q17 -11 27.5 -32.5t10.5 -59.5q0 -31 -12.5 -59.5t-53.5 -60.5q33 -5 64 -20t58 -37t50.5 -48t41.5 -53l-27 221q-3 28 -6.5 45t-7 26t-7.5 12t-9 3q-3 0 -6.5 -0.5t-8.5 -0.5l45 96h114q-10 -40 -24.5 -74t-14.5 -60v-310h32q-3 -20 -8 -44t-10.5 -47.5 t-9.5 -44t-4 -33.5v-475q0 -6 -4 -11t-13 -5q-19 0 -21 16l-18 208q-4 39 -9 102t-17 154q-3 22 -4.5 37.5t-5 26t-10.5 15.5t-20 5h-56q-7 -20 -9.5 -41t-2.5 -33v-257q0 -3 -2 -8t-13 -5q-8 0 -14 4t-11 9q-24 22 -53 41t-59.5 33t-61 22t-57.5 8q-7 0 -17.5 -1t-22 -2.5 t-21.5 -3.5t-16 -3q0 28 12 54t31 41q0 45 18.5 79.5t40.5 62.5h-33q-18 0 -23 3t-5 15q0 4 4.5 15t10.5 23t12 23.5t9 16.5h393q-20 19 -43 38t-52.5 34t-66 24t-83.5 9q-42 0 -67.5 -4t-33.5 -8q0 21 5.5 40.5t17.5 34.5t31 24t45 9q17 13 31 31.5t14 48.5q0 13 -2.5 25 t-14 21.5t-35.5 15t-68 5.5q-57 0 -88.5 -19.5t-31.5 -41.5t6.5 -34.5t15 -23.5t15 -24t6.5 -35q0 -15 -7 -34t-16.5 -35.5t-20 -27.5t-17.5 -11q-10 0 -10 3q0 2 1 7.5t1 7.5q0 24 -6.5 42.5t-14 36.5t-13.5 37.5t-6 45.5q0 42 12 78.5t34.5 64t54.5 43.5t73 16h190z M254 204q-16 -12 -33.5 -26.5t-32 -31.5t-24 -38t-9.5 -46q25 0 53 -10t55.5 -25.5t52 -35.5t43.5 -41l-10 83q-4 30 -7 58t-7.5 50.5t-11.5 38.5t-18 24h-51zM99 802q44 53 84.5 112.5t78.5 109t73 82t67 32.5q12 0 33.5 -3t46 -11.5t50.5 -23.5t46.5 -38.5t34 -58 t13.5 -80.5q0 -20 -8.5 -38.5t-22 -32t-30.5 -21.5t-34 -8q-21 0 -42 7.5t-37 22t-26 35.5t-10 48q0 2 1.5 6.5t5.5 4.5t11 -5t17 -10.5t22 -10.5t27 -5q17 0 28.5 6t18.5 15.5t10 21t3 22.5q0 13 -9.5 25t-24.5 21t-33.5 14.5t-35.5 5.5q-31 0 -65 -19t-68.5 -48t-67 -62 t-60 -62t-48.5 -48t-32 -19q-5 0 -11 3t-6 10z" />
<glyph unicode="&#xf380;&#xf74;" horiz-adv-x="680" d="M388 744l-22 -32q17 -11 27.5 -32.5t10.5 -59.5q0 -31 -12.5 -59.5t-53.5 -60.5q33 -5 64 -20t58 -37t50.5 -48t41.5 -53l-27 221q-3 28 -6.5 45t-7 26t-7.5 12t-9 3q-3 0 -6.5 -0.5t-8.5 -0.5l45 96h114q-5 -20 -11.5 -43.5t-12.5 -46t-10.5 -42t-4.5 -32.5v-280h32 q-3 -20 -8 -44t-10.5 -47.5t-9.5 -44t-4 -33.5v-372q16 -3 32.5 -12t30.5 -24t23 -37t9 -52q0 -38 -16.5 -73t-44.5 -61.5t-63.5 -42.5t-74.5 -16q-62 0 -102 34.5t-73.5 92t-69 132t-88.5 154.5q-4 6 -13 15t-18.5 18t-16.5 17t-7 11q0 2 3.5 8t9.5 6q11 0 36.5 -12.5 t52.5 -48.5q39 -52 81 -113t86.5 -113.5t91 -87.5t96.5 -35q6 0 16.5 2.5t20.5 8t17.5 14.5t7.5 23q0 15 -4.5 31.5t-13.5 30t-23 22.5t-33 9q-14 0 -34.5 -7.5t-32.5 -12.5q-6 13 -6 29q0 25 19.5 50t56.5 36q-3 53 -7 116.5t-10 126t-13.5 117t-16.5 89.5h-99 q-5 -20 -8 -38t-3 -30v-244q0 -3 -2 -8t-13 -5q-8 0 -14 4t-11 9q-49 44 -100 72t-105 28q-7 0 -17.5 -1t-22 -2.5t-21.5 -3.5t-16 -3q0 28 15.5 58.5t44.5 40.5q0 37 5 66t27 57h-23q-18 0 -23 3t-5 15q0 4 4.5 15t10.5 23t12 23.5t9 16.5h378q-20 19 -43 38t-52.5 34 t-66 24t-83.5 9q-42 0 -67.5 -4t-33.5 -8q0 21 5.5 40.5t17.5 34.5t31 24t45 9q17 13 31 31.5t14 48.5q0 13 -2.5 25t-14 21.5t-35.5 15t-68 5.5q-57 0 -88.5 -19.5t-31.5 -41.5t6.5 -34.5t15 -23.5t15 -24t6.5 -35q0 -15 -7 -33t-16.5 -33t-20 -25t-17.5 -10q-10 0 -10 3 q0 2 1 4t1 4q0 24 -6.5 42.5t-14 36.5t-13.5 37.5t-6 45.5q0 42 12 78.5t34.5 64t54.5 43.5t73 16h190zM244 204q-16 -12 -27 -28.5t-17.5 -33t-9 -33t-2.5 -28.5q18 0 39 -11.5t43.5 -29t45.5 -39t43 -41.5l-10 69q-3 22 -6 45.5t-7 47t-8.5 44.5t-10.5 38h-73z" />
<glyph unicode="&#xf380;&#xf7a;" horiz-adv-x="680" d="M388 744l-22 -32q17 -11 27.5 -32.5t10.5 -59.5q0 -31 -12.5 -59.5t-53.5 -60.5q33 -5 64 -20t58 -37t50.5 -48t41.5 -53l-27 221q-3 28 -6.5 45t-7 26t-7.5 12t-9 3q-3 0 -6.5 -0.5t-8.5 -0.5l45 96h114q-10 -40 -24.5 -74t-14.5 -60v-310h32q-3 -20 -8 -44t-10.5 -47.5 t-9.5 -44t-4 -33.5v-475q0 -6 -4 -11t-13 -5q-19 0 -21 16l-18 208q-4 39 -9 102t-17 154q-3 22 -4.5 37.5t-5 26t-10.5 15.5t-20 5h-56q-7 -20 -9.5 -41t-2.5 -33v-257q0 -3 -2 -8t-13 -5q-8 0 -14 4t-11 9q-24 22 -53 41t-59.5 33t-61 22t-57.5 8q-7 0 -17.5 -1t-22 -2.5 t-21.5 -3.5t-16 -3q0 28 12 54t31 41q0 45 18.5 79.5t40.5 62.5h-33q-18 0 -23 3t-5 15q0 4 4.5 15t10.5 23t12 23.5t9 16.5h393q-20 19 -43 38t-52.5 34t-66 24t-83.5 9q-42 0 -67.5 -4t-33.5 -8q0 21 5.5 40.5t17.5 34.5t31 24t45 9q17 13 31 31.5t14 48.5q0 13 -2.5 25 t-14 21.5t-35.5 15t-68 5.5q-57 0 -88.5 -19.5t-31.5 -41.5t6.5 -34.5t15 -23.5t15 -24t6.5 -35q0 -15 -7 -34t-16.5 -35.5t-20 -27.5t-17.5 -11q-10 0 -10 3q0 2 1 7.5t1 7.5q0 24 -6.5 42.5t-14 36.5t-13.5 37.5t-6 45.5q0 42 12 78.5t34.5 64t54.5 43.5t73 16h190z M254 204q-16 -12 -33.5 -26.5t-32 -31.5t-24 -38t-9.5 -46q25 0 53 -10t55.5 -25.5t52 -35.5t43.5 -41l-10 83q-4 30 -7 58t-7.5 50.5t-11.5 38.5t-18 24h-51zM613 793q0 -13 -11 -13t-33 13.5t-52 34t-66.5 45t-75.5 47.5q-30 18 -68 36.5t-75.5 33.5t-71.5 24.5t-56 9.5 h-17t-20 -2q0 13 7.5 30t18 32t22 25.5t19.5 10.5q40 0 83 -14.5t86 -38t84.5 -54t79 -63t69 -64.5t54.5 -59l18 -21q5 -5 5 -13z" />
<glyph unicode="&#xf380;&#xf7c;" horiz-adv-x="680" d="M388 744l-22 -32q17 -11 27.5 -32.5t10.5 -59.5q0 -31 -12.5 -59.5t-53.5 -60.5q33 -5 64 -20t58 -37t50.5 -48t41.5 -53l-27 221q-3 28 -6.5 45t-7 26t-7.5 12t-9 3q-3 0 -6.5 -0.5t-8.5 -0.5l45 96h114q-10 -40 -24.5 -74t-14.5 -60v-310h32q-3 -20 -8 -44t-10.5 -47.5 t-9.5 -44t-4 -33.5v-475q0 -6 -4 -11t-13 -5q-19 0 -21 16l-18 208q-4 39 -9 102t-17 154q-3 22 -4.5 37.5t-5 26t-10.5 15.5t-20 5h-56q-7 -20 -9.5 -41t-2.5 -33v-257q0 -3 -2 -8t-13 -5q-8 0 -14 4t-11 9q-24 22 -53 41t-59.5 33t-61 22t-57.5 8q-7 0 -17.5 -1t-22 -2.5 t-21.5 -3.5t-16 -3q0 28 12 54t31 41q0 45 18.5 79.5t40.5 62.5h-33q-18 0 -23 3t-5 15q0 4 4.5 15t10.5 23t12 23.5t9 16.5h393q-20 19 -43 38t-52.5 34t-66 24t-83.5 9q-42 0 -67.5 -4t-33.5 -8q0 21 5.5 40.5t17.5 34.5t31 24t45 9q17 13 31 31.5t14 48.5q0 13 -2.5 25 t-14 21.5t-35.5 15t-68 5.5q-57 0 -88.5 -19.5t-31.5 -41.5t6.5 -34.5t15 -23.5t15 -24t6.5 -35q0 -15 -7 -34t-16.5 -35.5t-20 -27.5t-17.5 -11q-10 0 -10 3q0 2 1 7.5t1 7.5q0 24 -6.5 42.5t-14 36.5t-13.5 37.5t-6 45.5q0 42 12 78.5t34.5 64t54.5 43.5t73 16h190z M254 204q-16 -12 -33.5 -26.5t-32 -31.5t-24 -38t-9.5 -46q25 0 53 -10t55.5 -25.5t52 -35.5t43.5 -41l-10 83q-4 30 -7 58t-7.5 50.5t-11.5 38.5t-18 24h-51zM0 947h-17t-20 -2q0 13 7 30t17 32t21 25.5t19 10.5q33 0 77.5 -17t87.5 -46.5t78 -68t49 -81.5l3 8q9 39 20 76 t34.5 65.5t65 46t111.5 17.5q34 0 59 1t46 6t42.5 16t48.5 31q13 0 13 -6q0 -20 -24.5 -45t-60.5 -47t-76.5 -36.5t-73.5 -14.5q-38 0 -70.5 -14t-56.5 -36t-38 -49t-14 -52q0 -8 -9.5 -13t-14.5 -5q-10 0 -21 22q-16 33 -51 59.5t-78 46t-89 30t-85 10.5z" />
<glyph unicode="&#xf66;&#xf92;" horiz-adv-x="680" d="M396 744l-33 -72q-6 -13 -13.5 -18.5t-34.5 -5.5q39 -41 64.5 -69.5t49.5 -57.5t51 -63.5t69 -86.5l-21 183q-4 35 -7 54t-7 28t-9.5 10.5t-14.5 1.5l35 96h111l-11 -44t-11.5 -47.5t-9.5 -44t-4 -33.5v-275h36q-3 -20 -8 -44t-10.5 -47.5t-9.5 -44t-4 -33.5v-475 q0 -6 -4 -11t-13 -5q-19 0 -21 16l-20 218q-4 39 -8 97.5t-16 148.5q-3 22 -4.5 37.5t-5 26t-10.5 15.5t-20 5h-56q-7 -20 -9.5 -38t-2.5 -30v-263q0 -3 -2 -8t-13 -5q-8 0 -14 4t-11 9q-24 22 -53 40t-59.5 31.5t-61 21t-57.5 7.5q-7 0 -17.5 -1t-22 -2.5t-21.5 -3.5 t-16 -3q0 28 12 54t31 41q0 45 18.5 81.5t40.5 64.5h-33q-18 0 -23 3t-5 15q0 4 4.5 15t10.5 23t12 23.5t9 16.5h391q-20 20 -48.5 49t-61 61t-67 63.5t-65.5 57.5t-56 43t-39 19q-13 -5 -27 -14.5t-25 -20.5t-18.5 -23.5t-7.5 -23.5q35 0 62.5 -10.5t48.5 -27.5t35.5 -37.5 t23.5 -40.5t13.5 -36.5t4.5 -25.5q0 -3 -2 -8t-7 -5q-4 0 -10.5 3t-11.5 9q-7 8 -24.5 22.5t-43 28.5t-58.5 24.5t-71 10.5q-21 0 -40.5 -3t-42.5 -9q0 3 1.5 17.5t8 32t19.5 34t36 24.5q0 24 15.5 57t46.5 62l16 15h-56q-18 0 -23 3t-5 15q0 4 4.5 15t10.5 23t12 23.5 t9 16.5h305zM258 204q-16 -12 -33.5 -26.5t-32 -32t-24 -39t-9.5 -48.5q25 0 53 -10t55.5 -25.5t52.5 -35.5t43 -40l-9 81q-4 30 -7.5 59t-8 52.5t-11.5 40.5t-18 24h-51z" />
<glyph unicode="&#xf386;&#xf72;" horiz-adv-x="680" d="M396 744l-33 -72q-6 -13 -13.5 -18.5t-34.5 -5.5q39 -41 64.5 -69.5t49.5 -57.5t51 -63.5t69 -86.5l-21 183q-4 35 -7 54t-7 28t-9.5 10.5t-14.5 1.5l35 96h111l-11 -44t-11.5 -47.5t-9.5 -44t-4 -33.5v-275h36q-3 -20 -8 -44t-10.5 -47.5t-9.5 -44t-4 -33.5v-475 q0 -6 -4 -11t-13 -5q-19 0 -21 16l-20 218q-4 39 -8 97.5t-16 148.5q-3 22 -4.5 37.5t-5 26t-10.5 15.5t-20 5h-56q-7 -20 -9.5 -38t-2.5 -30v-263q0 -3 -2 -8t-13 -5q-8 0 -14 4t-11 9q-24 22 -53 40t-59.5 31.5t-61 21t-57.5 7.5q-7 0 -17.5 -1t-22 -2.5t-21.5 -3.5 t-16 -3q0 28 12 54t31 41q0 45 18.5 81.5t40.5 64.5h-33q-18 0 -23 3t-5 15q0 4 4.5 15t10.5 23t12 23.5t9 16.5h391q-20 20 -48.5 49t-61 61t-67 63.5t-65.5 57.5t-56 43t-39 19q-13 -5 -27 -14.5t-25 -20.5t-18.5 -23.5t-7.5 -23.5q35 0 62.5 -10.5t48.5 -27.5t35.5 -37.5 t23.5 -40.5t13.5 -36.5t4.5 -25.5q0 -3 -2 -8t-7 -5q-4 0 -10.5 3t-11.5 9q-7 8 -24.5 22.5t-43 28.5t-58.5 24.5t-71 10.5q-21 0 -40.5 -3t-42.5 -9q0 3 1.5 17.5t8 32t19.5 34t36 24.5q0 24 15.5 57t46.5 62l16 15h-56q-18 0 -23 3t-5 15q0 4 4.5 15t10.5 23t12 23.5 t9 16.5h305zM258 204q-16 -12 -33.5 -26.5t-32 -32t-24 -39t-9.5 -48.5q25 0 53 -10t55.5 -25.5t52.5 -35.5t43 -40l-9 81q-4 30 -7.5 59t-8 52.5t-11.5 40.5t-18 24h-51zM257 1166q41 0 87 -38t93.5 -95t93.5 -122.5t88 -120.5q0 -7 -6.5 -9.5t-11.5 -2.5q-11 0 -34 21.5 t-54.5 54t-69 70.5t-79 70.5t-84 54t-83.5 21.5q-10 0 -22.5 -4t-23 -11.5t-18 -18t-7.5 -23.5q0 -11 3.5 -23t12 -22.5t22.5 -17.5t35 -7q19 0 33 6t23.5 12.5t15.5 12.5t9 6q4 0 5.5 -3.5t1.5 -5.5q0 -27 -10.5 -49t-27.5 -38t-38.5 -25t-42.5 -9q-20 0 -39.5 9 t-34.5 23.5t-24.5 33.5t-9.5 39q0 52 24 92t56.5 66t65.5 39.5t51 13.5z" />
<glyph unicode="&#xf386;&#xf80;" horiz-adv-x="680" d="M396 744l-33 -72q-6 -13 -13.5 -18.5t-34.5 -5.5q39 -41 64.5 -69.5t49.5 -57.5t51 -63.5t69 -86.5l-21 183q-4 35 -7 54t-7 28t-9.5 10.5t-14.5 1.5l35 96h111l-11 -44t-11.5 -47.5t-9.5 -44t-4 -33.5v-275h36q-3 -20 -8 -44t-10.5 -47.5t-9.5 -44t-4 -33.5v-475 q0 -6 -4 -11t-13 -5q-19 0 -21 16l-20 218q-4 39 -8 97.5t-16 148.5q-3 22 -4.5 37.5t-5 26t-10.5 15.5t-20 5h-56q-7 -20 -9.5 -38t-2.5 -30v-263q0 -3 -2 -8t-13 -5q-8 0 -14 4t-11 9q-24 22 -53 40t-59.5 31.5t-61 21t-57.5 7.5q-7 0 -17.5 -1t-22 -2.5t-21.5 -3.5 t-16 -3q0 28 12 54t31 41q0 45 18.5 81.5t40.5 64.5h-33q-18 0 -23 3t-5 15q0 4 4.5 15t10.5 23t12 23.5t9 16.5h391q-20 20 -48.5 49t-61 61t-67 63.5t-65.5 57.5t-56 43t-39 19q-13 -5 -27 -14.5t-25 -20.5t-18.5 -23.5t-7.5 -23.5q35 0 62.5 -10.5t48.5 -27.5t35.5 -37.5 t23.5 -40.5t13.5 -36.5t4.5 -25.5q0 -3 -2 -8t-7 -5q-4 0 -10.5 3t-11.5 9q-7 8 -24.5 22.5t-43 28.5t-58.5 24.5t-71 10.5q-21 0 -40.5 -3t-42.5 -9q0 3 1.5 17.5t8 32t19.5 34t36 24.5q0 24 15.5 57t46.5 62l16 15h-56q-18 0 -23 3t-5 15q0 4 4.5 15t10.5 23t12 23.5 t9 16.5h305zM258 204q-16 -12 -33.5 -26.5t-32 -32t-24 -39t-9.5 -48.5q25 0 53 -10t55.5 -25.5t52.5 -35.5t43 -40l-9 81q-4 30 -7.5 59t-8 52.5t-11.5 40.5t-18 24h-51zM102 802q44 53 84.5 112.5t78.5 109t73 82t67 32.5q12 0 33.5 -3t46 -11.5t50.5 -23.5t46.5 -38.5 t34 -58t13.5 -80.5q0 -20 -8.5 -38.5t-22 -32t-30.5 -21.5t-34 -8q-21 0 -42 7.5t-37 22t-26 35.5t-10 48q0 2 1.5 6.5t5.5 4.5t11 -5t17 -10.5t22 -10.5t27 -5q17 0 28.5 6t18.5 15.5t10 21t3 22.5q0 13 -9.5 25t-24.5 21t-33.5 14.5t-35.5 5.5q-31 0 -65 -19t-68.5 -48 t-67 -62t-60 -62t-48.5 -48t-32 -19q-5 0 -11 3t-6 10z" />
<glyph unicode="&#xf386;&#xf74;" horiz-adv-x="680" d="M398 744l-33 -72q-6 -13 -13.5 -18.5t-34.5 -5.5q36 -33 65 -65t56 -65t53 -67.5t55 -72.5l-17 150q-9 76 -14 111t-23 35l35 70h115q-5 -20 -12 -44t-13 -47.5t-10.5 -44t-4.5 -33.5v-275h30q-3 -20 -8 -45t-10.5 -49.5t-9.5 -46t-4 -34.5v-366q16 -3 32.5 -12t30.5 -24 t23 -37t9 -52q0 -38 -16.5 -73t-44.5 -61.5t-63.5 -42.5t-74.5 -16q-62 0 -102 34.5t-73.5 92t-69 132t-88.5 154.5q-4 6 -13 15t-18.5 18t-16.5 17t-7 11q0 2 3.5 8t9.5 6q11 0 36.5 -12.5t52.5 -48.5q26 -34 55 -73.5t59 -78.5t61 -74.5t61.5 -62.5t60.5 -43.5t58 -16.5 q6 0 16.5 2.5t20.5 8t17.5 14.5t7.5 23q0 15 -4.5 31.5t-13.5 30t-23 22.5t-33 9q-14 0 -34.5 -7.5t-32.5 -12.5q-6 13 -6 29q0 25 19.5 50t56.5 36q-3 53 -7.5 116.5t-10.5 126t-13.5 117t-16.5 89.5h-98q-5 -20 -8 -38t-3 -30v-244q0 -3 -2 -8t-13 -5q-8 0 -14 4t-11 9 q-49 44 -100 72t-105 28q-7 0 -17.5 -1t-22 -2.5t-21.5 -3.5t-16 -3q0 28 15.5 58.5t44.5 40.5q0 37 5.5 66t27.5 57h-24q-18 0 -23 3t-5 15q0 4 4.5 15t10.5 23t12 23.5t9 16.5h394q-27 25 -61 56.5t-69.5 64t-70.5 63.5t-65 55t-52 39t-31 15q-13 -5 -25.5 -14.5 t-22 -20.5t-15 -23.5t-5.5 -23.5q53 0 87.5 -21t54.5 -49.5t28.5 -56.5t8.5 -41q0 -3 -2 -8t-7 -5q-4 0 -10.5 3t-11.5 9q-7 8 -23 21t-40 25t-55.5 21t-69.5 9q-21 0 -40.5 -3t-42.5 -9q0 3 1.5 17.5t8 32t19.5 34t36 24.5q0 24 10.5 57t41.5 62l16 15h-28q-18 0 -23 3 t-5 15q0 4 4.5 15t10.5 23t12 23.5t9 16.5h277zM244 204q-16 -12 -27.5 -28.5t-18.5 -33.5t-10 -33t-3 -28q18 0 39 -11.5t43.5 -29t45.5 -39t43 -41.5l-8 77q-5 42 -14 83.5t-23 83.5h-67z" />
<glyph unicode="&#xf386;&#xf7a;" horiz-adv-x="680" d="M396 744l-33 -72q-6 -13 -13.5 -18.5t-34.5 -5.5q39 -41 64.5 -69.5t49.5 -57.5t51 -63.5t69 -86.5l-21 183q-4 35 -7 54t-7 28t-9.5 10.5t-14.5 1.5l35 96h111l-11 -44t-11.5 -47.5t-9.5 -44t-4 -33.5v-275h36q-3 -20 -8 -44t-10.5 -47.5t-9.5 -44t-4 -33.5v-475 q0 -6 -4 -11t-13 -5q-19 0 -21 16l-20 218q-4 39 -8 97.5t-16 148.5q-3 22 -4.5 37.5t-5 26t-10.5 15.5t-20 5h-56q-7 -20 -9.5 -38t-2.5 -30v-263q0 -3 -2 -8t-13 -5q-8 0 -14 4t-11 9q-24 22 -53 40t-59.5 31.5t-61 21t-57.5 7.5q-7 0 -17.5 -1t-22 -2.5t-21.5 -3.5 t-16 -3q0 28 12 54t31 41q0 45 18.5 81.5t40.5 64.5h-33q-18 0 -23 3t-5 15q0 4 4.5 15t10.5 23t12 23.5t9 16.5h391q-20 20 -48.5 49t-61 61t-67 63.5t-65.5 57.5t-56 43t-39 19q-13 -5 -27 -14.5t-25 -20.5t-18.5 -23.5t-7.5 -23.5q35 0 62.5 -10.5t48.5 -27.5t35.5 -37.5 t23.5 -40.5t13.5 -36.5t4.5 -25.5q0 -3 -2 -8t-7 -5q-4 0 -10.5 3t-11.5 9q-7 8 -24.5 22.5t-43 28.5t-58.5 24.5t-71 10.5q-21 0 -40.5 -3t-42.5 -9q0 3 1.5 17.5t8 32t19.5 34t36 24.5q0 24 15.5 57t46.5 62l16 15h-56q-18 0 -23 3t-5 15q0 4 4.5 15t10.5 23t12 23.5 t9 16.5h305zM258 204q-16 -12 -33.5 -26.5t-32 -32t-24 -39t-9.5 -48.5q25 0 53 -10t55.5 -25.5t52.5 -35.5t43 -40l-9 81q-4 30 -7.5 59t-8 52.5t-11.5 40.5t-18 24h-51zM605 793q0 -13 -11 -13t-33 13.5t-52 34t-66.5 45t-75.5 47.5q-30 18 -68 36.5t-75.5 33.5 t-71.5 24.5t-56 9.5h-17t-20 -2q0 13 7.5 30t18 32t22 25.5t19.5 10.5q40 0 83 -14.5t86 -38t84.5 -54t79 -63t69 -64.5t54.5 -59l18 -21q5 -5 5 -13z" />
<glyph unicode="&#xf386;&#xf7c;" horiz-adv-x="680" d="M396 744l-33 -72q-6 -13 -13.5 -18.5t-34.5 -5.5q39 -41 64.5 -69.5t49.5 -57.5t51 -63.5t69 -86.5l-21 183q-4 35 -7 54t-7 28t-9.5 10.5t-14.5 1.5l35 96h111l-11 -44t-11.5 -47.5t-9.5 -44t-4 -33.5v-275h36q-3 -20 -8 -44t-10.5 -47.5t-9.5 -44t-4 -33.5v-475 q0 -6 -4 -11t-13 -5q-19 0 -21 16l-20 218q-4 39 -8 97.5t-16 148.5q-3 22 -4.5 37.5t-5 26t-10.5 15.5t-20 5h-56q-7 -20 -9.5 -38t-2.5 -30v-263q0 -3 -2 -8t-13 -5q-8 0 -14 4t-11 9q-24 22 -53 40t-59.5 31.5t-61 21t-57.5 7.5q-7 0 -17.5 -1t-22 -2.5t-21.5 -3.5 t-16 -3q0 28 12 54t31 41q0 45 18.5 81.5t40.5 64.5h-33q-18 0 -23 3t-5 15q0 4 4.5 15t10.5 23t12 23.5t9 16.5h391q-20 20 -48.5 49t-61 61t-67 63.5t-65.5 57.5t-56 43t-39 19q-13 -5 -27 -14.5t-25 -20.5t-18.5 -23.5t-7.5 -23.5q35 0 62.5 -10.5t48.5 -27.5t35.5 -37.5 t23.5 -40.5t13.5 -36.5t4.5 -25.5q0 -3 -2 -8t-7 -5q-4 0 -10.5 3t-11.5 9q-7 8 -24.5 22.5t-43 28.5t-58.5 24.5t-71 10.5q-21 0 -40.5 -3t-42.5 -9q0 3 1.5 17.5t8 32t19.5 34t36 24.5q0 24 15.5 57t46.5 62l16 15h-56q-18 0 -23 3t-5 15q0 4 4.5 15t10.5 23t12 23.5 t9 16.5h305zM258 204q-16 -12 -33.5 -26.5t-32 -32t-24 -39t-9.5 -48.5q25 0 53 -10t55.5 -25.5t52.5 -35.5t43 -40l-9 81q-4 30 -7.5 59t-8 52.5t-11.5 40.5t-18 24h-51zM-1 947h-17t-20 -2q0 13 7 30t17 32t21 25.5t19 10.5q33 0 77.5 -17t87.5 -46.5t78 -68t49 -81.5l3 8 q9 39 20 76t34.5 65.5t65 46t111.5 17.5q34 0 59 1t46 6t42.5 16t48.5 31q13 0 13 -6q0 -20 -24.5 -45t-60.5 -47t-76.5 -36.5t-73.5 -14.5q-38 0 -70.5 -14t-56.5 -36t-38 -49t-14 -52q0 -8 -9.5 -13t-14.5 -5q-10 0 -21 22q-16 33 -51 59.5t-78 46t-89 30t-85 10.5z" />
<glyph unicode="&#xf66;&#xf92;&#xfb1;" horiz-adv-x="680" d="M398 744l-36 -72q-17 -24 -50 -24h-11q35 -20 68.5 -50.5t65 -64t61 -68.5t56.5 -64q-9 71 -16.5 118.5t-15.5 76t-17.5 40.5t-22.5 12l45 96h111l-11 -44t-11.5 -47.5t-9.5 -44t-4 -33.5v-255h35l-11 -44t-11.5 -47.5t-9 -44t-3.5 -33.5v-207q0 -32 -22 -60.5t-53.5 -50 t-66 -34t-59.5 -12.5q-53 0 -117.5 12.5t-120.5 35.5q19 -30 45 -52.5t55.5 -37t60.5 -21.5t61 -7q64 0 126 30t137 92q9 8 20 15t20 7q5 0 7.5 -3.5t2.5 -7.5q0 -5 -4.5 -11t-10 -12t-11.5 -11.5t-9 -9.5q-33 -38 -65.5 -71.5t-67.5 -58.5t-76 -39.5t-92 -14.5 q-59 0 -101.5 24.5t-74.5 63t-56.5 84t-48.5 87.5q-2 4 -5 11t-3 12q0 2 5 5t12 3q8 0 29 -7q20 -7 51.5 -17.5t68.5 -20t75.5 -16.5t73.5 -7q25 0 49.5 7.5t46 20t38.5 27.5t27 30q0 13 -3 51t-8 83.5t-12 90t-14 70.5h-108q-5 -20 -8 -38t-3 -30v-234q0 -3 -2 -8t-13 -5 q-8 0 -14 4t-11 9q-24 22 -53 37.5t-59.5 26t-61 15.5t-57.5 5q-7 0 -17.5 -1t-22 -2.5t-21.5 -3.5t-16 -3q0 14 3.5 30.5t11 31.5t18.5 27t26 17q0 7 1 22t4 32.5t9.5 35.5t17.5 32h-23q-18 0 -23 3t-5 15q0 4 4.5 15t10.5 23t12 23.5t9 16.5h435q-32 33 -71 68.5t-84 71 t-96 69t-107 63.5q-26 -10 -43 -33t-17 -44q29 0 54 -9.5t46 -24.5t37 -33.5t27 -36.5t17 -33.5t6 -24.5q0 -3 -2 -8t-7 -5q-4 0 -10.5 3t-11.5 9q-7 8 -24 19.5t-41.5 22t-55.5 17.5t-66 7q-21 0 -40.5 -3t-42.5 -9q0 3 1.5 17.5t8 32t19.5 34t36 24.5q0 12 1 26.5t5 30.5 t12.5 31.5t23.5 30.5l16 15h-41q-18 0 -23 3t-5 15q0 4 4.5 15t10.5 23t12 23.5t9 16.5h286zM217 224q-32 -25 -49.5 -57.5t-17.5 -64.5q18 0 43 -9.5t53 -25t54.5 -35t47.5 -39.5l-9 75q-4 30 -8.5 58.5t-11 50t-15 34.5t-20.5 13h-67z" />
<glyph unicode="&#xf38c;&#xf72;" horiz-adv-x="680" d="M398 744l-36 -72q-17 -24 -50 -24h-11q35 -20 68.5 -50.5t65 -64t61 -68.5t56.5 -64q-9 71 -16.5 118.5t-15.5 76t-17.5 40.5t-22.5 12l45 96h111l-11 -44t-11.5 -47.5t-9.5 -44t-4 -33.5v-255h35l-11 -44t-11.5 -47.5t-9 -44t-3.5 -33.5v-207q0 -32 -22 -60.5t-53.5 -50 t-66 -34t-59.5 -12.5q-53 0 -117.5 12.5t-120.5 35.5q19 -30 45 -52.5t55.5 -37t60.5 -21.5t61 -7q64 0 126 30t137 92q9 8 20 15t20 7q5 0 7.5 -3.5t2.5 -7.5q0 -5 -4.5 -11t-10 -12t-11.5 -11.5t-9 -9.5q-33 -38 -65.5 -71.5t-67.5 -58.5t-76 -39.5t-92 -14.5 q-59 0 -101.5 24.5t-74.5 63t-56.5 84t-48.5 87.5q-2 4 -5 11t-3 12q0 2 5 5t12 3q8 0 29 -7q20 -7 51.5 -17.5t68.5 -20t75.5 -16.5t73.5 -7q25 0 49.5 7.5t46 20t38.5 27.5t27 30q0 13 -3 51t-8 83.5t-12 90t-14 70.5h-108q-5 -20 -8 -38t-3 -30v-234q0 -3 -2 -8t-13 -5 q-8 0 -14 4t-11 9q-24 22 -53 37.5t-59.5 26t-61 15.5t-57.5 5q-7 0 -17.5 -1t-22 -2.5t-21.5 -3.5t-16 -3q0 14 3.5 30.5t11 31.5t18.5 27t26 17q0 7 1 22t4 32.5t9.5 35.5t17.5 32h-23q-18 0 -23 3t-5 15q0 4 4.5 15t10.5 23t12 23.5t9 16.5h435q-32 33 -71 68.5t-84 71 t-96 69t-107 63.5q-26 -10 -43 -33t-17 -44q29 0 54 -9.5t46 -24.5t37 -33.5t27 -36.5t17 -33.5t6 -24.5q0 -3 -2 -8t-7 -5q-4 0 -10.5 3t-11.5 9q-7 8 -24 19.5t-41.5 22t-55.5 17.5t-66 7q-21 0 -40.5 -3t-42.5 -9q0 3 1.5 17.5t8 32t19.5 34t36 24.5q0 12 1 26.5t5 30.5 t12.5 31.5t23.5 30.5l16 15h-41q-18 0 -23 3t-5 15q0 4 4.5 15t10.5 23t12 23.5t9 16.5h286zM217 224q-32 -25 -49.5 -57.5t-17.5 -64.5q18 0 43 -9.5t53 -25t54.5 -35t47.5 -39.5l-9 75q-4 30 -8.5 58.5t-11 50t-15 34.5t-20.5 13h-67zM249 1166q41 0 87 -38t93.5 -95 t93.5 -122.5t88 -120.5q0 -7 -6.5 -9.5t-11.5 -2.5q-11 0 -34 21.5t-54.5 54t-69 70.5t-79 70.5t-84 54t-83.5 21.5q-10 0 -22.5 -4t-23 -11.5t-18 -18t-7.5 -23.5q0 -11 3.5 -23t12 -22.5t22.5 -17.5t35 -7q19 0 33 6t23.5 12.5t15.5 12.5t9 6q4 0 5.5 -3.5t1.5 -5.5 q0 -27 -10.5 -49t-27.5 -38t-38.5 -25t-42.5 -9q-20 0 -39.5 9t-34.5 23.5t-24.5 33.5t-9.5 39q0 52 24 92t56.5 66t65.5 39.5t51 13.5z" />
<glyph unicode="&#xf38c;&#xf80;" horiz-adv-x="680" d="M398 744l-36 -72q-17 -24 -50 -24h-11q35 -20 68.5 -50.5t65 -64t61 -68.5t56.5 -64q-9 71 -16.5 118.5t-15.5 76t-17.5 40.5t-22.5 12l45 96h111l-11 -44t-11.5 -47.5t-9.5 -44t-4 -33.5v-255h35l-11 -44t-11.5 -47.5t-9 -44t-3.5 -33.5v-207q0 -32 -22 -60.5t-53.5 -50 t-66 -34t-59.5 -12.5q-53 0 -117.5 12.5t-120.5 35.5q19 -30 45 -52.5t55.5 -37t60.5 -21.5t61 -7q64 0 126 30t137 92q9 8 20 15t20 7q5 0 7.5 -3.5t2.5 -7.5q0 -5 -4.5 -11t-10 -12t-11.5 -11.5t-9 -9.5q-33 -38 -65.5 -71.5t-67.5 -58.5t-76 -39.5t-92 -14.5 q-59 0 -101.5 24.5t-74.5 63t-56.5 84t-48.5 87.5q-2 4 -5 11t-3 12q0 2 5 5t12 3q8 0 29 -7q20 -7 51.5 -17.5t68.5 -20t75.5 -16.5t73.5 -7q25 0 49.5 7.5t46 20t38.5 27.5t27 30q0 13 -3 51t-8 83.5t-12 90t-14 70.5h-108q-5 -20 -8 -38t-3 -30v-234q0 -3 -2 -8t-13 -5 q-8 0 -14 4t-11 9q-24 22 -53 37.5t-59.5 26t-61 15.5t-57.5 5q-7 0 -17.5 -1t-22 -2.5t-21.5 -3.5t-16 -3q0 14 3.5 30.5t11 31.5t18.5 27t26 17q0 7 1 22t4 32.5t9.5 35.5t17.5 32h-23q-18 0 -23 3t-5 15q0 4 4.5 15t10.5 23t12 23.5t9 16.5h435q-32 33 -71 68.5t-84 71 t-96 69t-107 63.5q-26 -10 -43 -33t-17 -44q29 0 54 -9.5t46 -24.5t37 -33.5t27 -36.5t17 -33.5t6 -24.5q0 -3 -2 -8t-7 -5q-4 0 -10.5 3t-11.5 9q-7 8 -24 19.5t-41.5 22t-55.5 17.5t-66 7q-21 0 -40.5 -3t-42.5 -9q0 3 1.5 17.5t8 32t19.5 34t36 24.5q0 12 1 26.5t5 30.5 t12.5 31.5t23.5 30.5l16 15h-41q-18 0 -23 3t-5 15q0 4 4.5 15t10.5 23t12 23.5t9 16.5h286zM217 224q-32 -25 -49.5 -57.5t-17.5 -64.5q18 0 43 -9.5t53 -25t54.5 -35t47.5 -39.5l-9 75q-4 30 -8.5 58.5t-11 50t-15 34.5t-20.5 13h-67zM106 802q44 53 84.5 112.5t78.5 109 t73 82t67 32.5q12 0 33.5 -3t46 -11.5t50.5 -23.5t46.5 -38.5t34 -58t13.5 -80.5q0 -20 -8.5 -38.5t-22 -32t-30.5 -21.5t-34 -8q-21 0 -42 7.5t-37 22t-26 35.5t-10 48q0 2 1.5 6.5t5.5 4.5t11 -5t17 -10.5t22 -10.5t27 -5q17 0 28.5 6t18.5 15.5t10 21t3 22.5 q0 13 -9.5 25t-24.5 21t-33.5 14.5t-35.5 5.5q-31 0 -65 -19t-68.5 -48t-67 -62t-60 -62t-48.5 -48t-32 -19q-5 0 -11 3t-6 10z" />
<glyph unicode="&#xf38c;&#xf74;" horiz-adv-x="690" d="M409 744l-33 -72q-6 -13 -13.5 -18.5t-34.5 -5.5q32 -27 61 -52.5t56.5 -52.5t54 -57.5t54.5 -67.5l-15 116q-3 23 -6 45t-7.5 39.5t-10.5 28t-15 10.5l35 87h118q-5 -20 -12.5 -44t-14 -47.5t-11.5 -44t-5 -33.5v-235h35q-10 -40 -22.5 -80t-12.5 -66v-211 q0 -32 -22 -60.5t-53.5 -50t-66 -34t-59.5 -12.5q-53 0 -117.5 12.5t-120.5 35.5q19 -30 45 -52.5t55.5 -37t60.5 -21.5t61 -7q32 0 60.5 7.5t57 22.5t59.5 38t69 54q9 8 20 15t20 7q5 0 7.5 -3.5t2.5 -7.5q0 -5 -4.5 -11t-10 -12t-11.5 -11.5t-9 -9.5l-21 -24l-74 -142 q12 3 26 3q31 0 56.5 -12.5t44 -34t28.5 -50t10 -59.5q0 -39 -16.5 -73t-42.5 -59t-58.5 -39.5t-65.5 -14.5q-39 0 -73 17.5t-66 46t-65.5 65.5t-72 76.5t-84.5 78t-104 70.5q-8 5 -14 11t-6 14q0 5 4.5 8t8.5 3q16 0 34 -7q43 -19 88.5 -48t90.5 -61.5t89.5 -65.5t86 -59 t78.5 -42.5t69 -16.5q29 0 50 15t21 53q0 17 -10.5 32t-27 26t-37 17.5t-40.5 6.5q-12 0 -24 -5t-22.5 -11t-19.5 -11t-17 -5q-5 0 -5.5 11.5t-0.5 20.5q0 11 5.5 26.5t17.5 31.5l49 94q-20 -16 -38.5 -29t-39 -22.5t-43.5 -14.5t-53 -5q-59 0 -101.5 25t-74.5 63t-56.5 84 t-48.5 88q-2 4 -5 11t-3 12q0 2 3.5 5.5t10.5 3.5q8 0 32 -8q20 -7 51.5 -17.5t68.5 -20.5t75.5 -17t73.5 -7q25 0 49.5 7.5t46 20t38.5 27.5t27 30q0 1 -1.5 16.5t-3.5 40t-5 55t-6.5 60.5t-7.5 57.5t-8 46.5h-128q-5 -20 -8 -38t-3 -30v-221q0 -3 -2 -8t-13 -5q-8 0 -14 4 t-11 9q-24 22 -53 37.5t-59.5 26t-61 15.5t-57.5 5q-7 0 -17.5 -1t-22 -2.5t-21.5 -3.5t-16 -3q0 14 3.5 30.5t11 31.5t18.5 27t26 17q0 7 1 20t4 28t9.5 31t17.5 30h-23q-18 0 -23 3t-5 15q0 4 4.5 15t10.5 23t12 23.5t9 16.5h442q-25 27 -58 56t-68 57t-70.5 53.5 t-65.5 44.5t-52.5 30.5t-31.5 11.5q-25 -2 -46.5 -21.5t-22.5 -39.5q42 -1 75.5 -21t57 -45.5t36 -50t12.5 -34.5q0 -5 -4 -9.5t-11 -4.5q-8 0 -15.5 4.5t-12.5 10.5q-19 22 -38 33.5t-40.5 17t-47 6.5t-56.5 1q-21 0 -41 -5t-42 -7q0 3 1.5 17.5t8 32t19.5 34t36 24.5 q6 21 20 48t37 49l16 15h-68q-18 0 -23 3t-5 15q0 4 4.5 15t10.5 23t12 23.5t9 16.5h317zM212 244q-32 -25 -49.5 -51.5t-17.5 -57.5q18 0 43 -9.5t53 -25t54.5 -35t47.5 -39.5l-9 85q-7 61 -19 97t-36 36h-67z" />
<glyph unicode="&#xf38c;&#xf7a;" horiz-adv-x="680" d="M398 744l-36 -72q-17 -24 -50 -24h-11q35 -20 68.5 -50.5t65 -64t61 -68.5t56.5 -64q-9 71 -16.5 118.5t-15.5 76t-17.5 40.5t-22.5 12l45 96h111l-11 -44t-11.5 -47.5t-9.5 -44t-4 -33.5v-255h35l-11 -44t-11.5 -47.5t-9 -44t-3.5 -33.5v-207q0 -32 -22 -60.5t-53.5 -50 t-66 -34t-59.5 -12.5q-53 0 -117.5 12.5t-120.5 35.5q19 -30 45 -52.5t55.5 -37t60.5 -21.5t61 -7q64 0 126 30t137 92q9 8 20 15t20 7q5 0 7.5 -3.5t2.5 -7.5q0 -5 -4.5 -11t-10 -12t-11.5 -11.5t-9 -9.5q-33 -38 -65.5 -71.5t-67.5 -58.5t-76 -39.5t-92 -14.5 q-59 0 -101.5 24.5t-74.5 63t-56.5 84t-48.5 87.5q-2 4 -5 11t-3 12q0 2 5 5t12 3q8 0 29 -7q20 -7 51.5 -17.5t68.5 -20t75.5 -16.5t73.5 -7q25 0 49.5 7.5t46 20t38.5 27.5t27 30q0 13 -3 51t-8 83.5t-12 90t-14 70.5h-108q-5 -20 -8 -38t-3 -30v-234q0 -3 -2 -8t-13 -5 q-8 0 -14 4t-11 9q-24 22 -53 37.5t-59.5 26t-61 15.5t-57.5 5q-7 0 -17.5 -1t-22 -2.5t-21.5 -3.5t-16 -3q0 14 3.5 30.5t11 31.5t18.5 27t26 17q0 7 1 22t4 32.5t9.5 35.5t17.5 32h-23q-18 0 -23 3t-5 15q0 4 4.5 15t10.5 23t12 23.5t9 16.5h435q-32 33 -71 68.5t-84 71 t-96 69t-107 63.5q-26 -10 -43 -33t-17 -44q29 0 54 -9.5t46 -24.5t37 -33.5t27 -36.5t17 -33.5t6 -24.5q0 -3 -2 -8t-7 -5q-4 0 -10.5 3t-11.5 9q-7 8 -24 19.5t-41.5 22t-55.5 17.5t-66 7q-21 0 -40.5 -3t-42.5 -9q0 3 1.5 17.5t8 32t19.5 34t36 24.5q0 12 1 26.5t5 30.5 t12.5 31.5t23.5 30.5l16 15h-41q-18 0 -23 3t-5 15q0 4 4.5 15t10.5 23t12 23.5t9 16.5h286zM217 224q-32 -25 -49.5 -57.5t-17.5 -64.5q18 0 43 -9.5t53 -25t54.5 -35t47.5 -39.5l-9 75q-4 30 -8.5 58.5t-11 50t-15 34.5t-20.5 13h-67zM613 793q0 -13 -11 -13t-33 13.5 t-52 34t-66.5 45t-75.5 47.5q-30 18 -68 36.5t-75.5 33.5t-71.5 24.5t-56 9.5h-17t-20 -2q0 13 7.5 30t18 32t22 25.5t19.5 10.5q40 0 83 -14.5t86 -38t84.5 -54t79 -63t69 -64.5t54.5 -59l18 -21q5 -5 5 -13z" />
<glyph unicode="&#xf38c;&#xf7c;" horiz-adv-x="680" d="M398 744l-36 -72q-17 -24 -50 -24h-11q35 -20 68.5 -50.5t65 -64t61 -68.5t56.5 -64q-9 71 -16.5 118.5t-15.5 76t-17.5 40.5t-22.5 12l45 96h111l-11 -44t-11.5 -47.5t-9.5 -44t-4 -33.5v-255h35l-11 -44t-11.5 -47.5t-9 -44t-3.5 -33.5v-207q0 -32 -22 -60.5t-53.5 -50 t-66 -34t-59.5 -12.5q-53 0 -117.5 12.5t-120.5 35.5q19 -30 45 -52.5t55.5 -37t60.5 -21.5t61 -7q64 0 126 30t137 92q9 8 20 15t20 7q5 0 7.5 -3.5t2.5 -7.5q0 -5 -4.5 -11t-10 -12t-11.5 -11.5t-9 -9.5q-33 -38 -65.5 -71.5t-67.5 -58.5t-76 -39.5t-92 -14.5 q-59 0 -101.5 24.5t-74.5 63t-56.5 84t-48.5 87.5q-2 4 -5 11t-3 12q0 2 5 5t12 3q8 0 29 -7q20 -7 51.5 -17.5t68.5 -20t75.5 -16.5t73.5 -7q25 0 49.5 7.5t46 20t38.5 27.5t27 30q0 13 -3 51t-8 83.5t-12 90t-14 70.5h-108q-5 -20 -8 -38t-3 -30v-234q0 -3 -2 -8t-13 -5 q-8 0 -14 4t-11 9q-24 22 -53 37.5t-59.5 26t-61 15.5t-57.5 5q-7 0 -17.5 -1t-22 -2.5t-21.5 -3.5t-16 -3q0 14 3.5 30.5t11 31.5t18.5 27t26 17q0 7 1 22t4 32.5t9.5 35.5t17.5 32h-23q-18 0 -23 3t-5 15q0 4 4.5 15t10.5 23t12 23.5t9 16.5h435q-32 33 -71 68.5t-84 71 t-96 69t-107 63.5q-26 -10 -43 -33t-17 -44q29 0 54 -9.5t46 -24.5t37 -33.5t27 -36.5t17 -33.5t6 -24.5q0 -3 -2 -8t-7 -5q-4 0 -10.5 3t-11.5 9q-7 8 -24 19.5t-41.5 22t-55.5 17.5t-66 7q-21 0 -40.5 -3t-42.5 -9q0 3 1.5 17.5t8 32t19.5 34t36 24.5q0 12 1 26.5t5 30.5 t12.5 31.5t23.5 30.5l16 15h-41q-18 0 -23 3t-5 15q0 4 4.5 15t10.5 23t12 23.5t9 16.5h286zM217 224q-32 -25 -49.5 -57.5t-17.5 -64.5q18 0 43 -9.5t53 -25t54.5 -35t47.5 -39.5l-9 75q-4 30 -8.5 58.5t-11 50t-15 34.5t-20.5 13h-67zM-13 947h-17t-20 -2q0 13 7 30t17 32 t21 25.5t19 10.5q33 0 77.5 -17t87.5 -46.5t78 -68t49 -81.5l3 8q9 39 20 76t34.5 65.5t65 46t111.5 17.5q34 0 59 1t46 6t42.5 16t48.5 31q13 0 13 -6q0 -20 -24.5 -45t-60.5 -47t-76.5 -36.5t-73.5 -14.5q-38 0 -70.5 -14t-56.5 -36t-38 -49t-14 -52q0 -8 -9.5 -13 t-14.5 -5q-10 0 -21 22q-16 33 -51 59.5t-78 46t-89 30t-85 10.5z" />
<glyph unicode="&#xf66;&#xf92;&#xfb2;" horiz-adv-x="680" d="M395 744l-33 -72q-6 -13 -13.5 -18.5t-34.5 -5.5q65 -57 123.5 -124t108.5 -159l-17 163q-4 37 -6 62t-5 39.5t-9 20.5t-19 6l43 88h120q-5 -20 -14 -44t-18 -47.5t-15.5 -44t-6.5 -33.5v-275h32q-3 -20 -8 -44t-10.5 -47.5t-9.5 -44t-4 -33.5v-499l-62 38 q-41 25 -77.5 43t-78.5 30t-94 18t-124 7q-21 0 -48.5 -2t-47.5 -8q0 26 11.5 46t30.5 33.5t43 20t49 6.5q52 0 103 -11t97 -30.5t84.5 -45.5t64.5 -55l-4 56q0 6 -2 26.5t-4 49.5t-5 64.5t-6 71.5t-6.5 69.5t-6.5 60.5q-3 22 -4 37.5t-4.5 26t-10.5 15.5t-20 5h-56 q-5 -20 -8 -38t-3 -30v-241q0 -3 -2 -8t-13 -5q-8 0 -14 4t-11 9q-24 22 -53.5 40t-60 31t-61 20t-57.5 7q-7 0 -17.5 -1t-22 -2.5t-21.5 -3.5t-16 -3q0 28 15.5 58.5t44.5 40.5q0 22 1 38.5t4 30.5t9.5 26.5t17.5 26.5h-23q-18 0 -23 3t-5 15q0 4 4.5 15t10.5 23t12 23.5 t9 16.5h387q-16 20 -43 50t-58.5 63.5t-65 66.5t-63.5 60t-53.5 43.5t-35.5 16.5q-14 0 -28.5 -9t-26.5 -22.5t-19.5 -29t-7.5 -28.5q53 0 88 -21.5t55.5 -50.5t29.5 -57.5t9 -41.5q0 -3 -1.5 -6.5t-8.5 -3.5q-8 0 -13 3.5t-11 8.5q-33 28 -52 43.5t-36.5 22.5t-39.5 8.5 t-60 1.5q-21 0 -41 -5t-42 -7q0 3 1.5 17.5t8 32t19.5 34t36 24.5q6 25 10.5 41t10.5 29.5t16 26.5t29 31l6 6h-65q-18 0 -23 3t-5 15q0 4 4.5 15t10.5 23t12 23.5t9 16.5h314zM225 204q-32 -25 -44 -54t-12 -68q18 0 42 -10.5t50 -27t51.5 -36.5t46.5 -40l-8 90 q-3 31 -6.5 57.5t-9.5 46t-14.5 31t-21.5 11.5h-74z" />
<glyph unicode="&#xf392;&#xf72;" horiz-adv-x="680" d="M395 744l-33 -72q-6 -13 -13.5 -18.5t-34.5 -5.5q65 -57 123.5 -124t108.5 -159l-17 163q-4 37 -6 62t-5 39.5t-9 20.5t-19 6l43 88h120q-5 -20 -14 -44t-18 -47.5t-15.5 -44t-6.5 -33.5v-275h32q-3 -20 -8 -44t-10.5 -47.5t-9.5 -44t-4 -33.5v-499l-62 38 q-41 25 -77.5 43t-78.5 30t-94 18t-124 7q-21 0 -48.5 -2t-47.5 -8q0 26 11.5 46t30.5 33.5t43 20t49 6.5q52 0 103 -11t97 -30.5t84.5 -45.5t64.5 -55l-4 56q0 6 -2 26.5t-4 49.5t-5 64.5t-6 71.5t-6.5 69.5t-6.5 60.5q-3 22 -4 37.5t-4.5 26t-10.5 15.5t-20 5h-56 q-5 -20 -8 -38t-3 -30v-241q0 -3 -2 -8t-13 -5q-8 0 -14 4t-11 9q-24 22 -53.5 40t-60 31t-61 20t-57.5 7q-7 0 -17.5 -1t-22 -2.5t-21.5 -3.5t-16 -3q0 28 15.5 58.5t44.5 40.5q0 22 1 38.5t4 30.5t9.5 26.5t17.5 26.5h-23q-18 0 -23 3t-5 15q0 4 4.5 15t10.5 23t12 23.5 t9 16.5h387q-16 20 -43 50t-58.5 63.5t-65 66.5t-63.5 60t-53.5 43.5t-35.5 16.5q-14 0 -28.5 -9t-26.5 -22.5t-19.5 -29t-7.5 -28.5q53 0 88 -21.5t55.5 -50.5t29.5 -57.5t9 -41.5q0 -3 -1.5 -6.5t-8.5 -3.5q-8 0 -13 3.5t-11 8.5q-33 28 -52 43.5t-36.5 22.5t-39.5 8.5 t-60 1.5q-21 0 -41 -5t-42 -7q0 3 1.5 17.5t8 32t19.5 34t36 24.5q6 25 10.5 41t10.5 29.5t16 26.5t29 31l6 6h-65q-18 0 -23 3t-5 15q0 4 4.5 15t10.5 23t12 23.5t9 16.5h314zM225 204q-32 -25 -44 -54t-12 -68q18 0 42 -10.5t50 -27t51.5 -36.5t46.5 -40l-8 90 q-3 31 -6.5 57.5t-9.5 46t-14.5 31t-21.5 11.5h-74zM248 1166q41 0 87 -38t93.5 -95t93.5 -122.5t88 -120.5q0 -7 -6.5 -9.5t-11.5 -2.5q-11 0 -34 21.5t-54.5 54t-69 70.5t-79 70.5t-84 54t-83.5 21.5q-10 0 -22.5 -4t-23 -11.5t-18 -18t-7.5 -23.5q0 -11 3.5 -23t12 -22.5 t22.5 -17.5t35 -7q19 0 33 6t23.5 12.5t15.5 12.5t9 6q4 0 5.5 -3.5t1.5 -5.5q0 -27 -10.5 -49t-27.5 -38t-38.5 -25t-42.5 -9q-20 0 -39.5 9t-34.5 23.5t-24.5 33.5t-9.5 39q0 52 24 92t56.5 66t65.5 39.5t51 13.5z" />
<glyph unicode="&#xf392;&#xf80;" horiz-adv-x="680" d="M395 744l-33 -72q-6 -13 -13.5 -18.5t-34.5 -5.5q65 -57 123.5 -124t108.5 -159l-17 163q-4 37 -6 62t-5 39.5t-9 20.5t-19 6l43 88h120q-5 -20 -14 -44t-18 -47.5t-15.5 -44t-6.5 -33.5v-275h32q-3 -20 -8 -44t-10.5 -47.5t-9.5 -44t-4 -33.5v-499l-62 38 q-41 25 -77.5 43t-78.5 30t-94 18t-124 7q-21 0 -48.5 -2t-47.5 -8q0 26 11.5 46t30.5 33.5t43 20t49 6.5q52 0 103 -11t97 -30.5t84.5 -45.5t64.5 -55l-4 56q0 6 -2 26.5t-4 49.5t-5 64.5t-6 71.5t-6.5 69.5t-6.5 60.5q-3 22 -4 37.5t-4.5 26t-10.5 15.5t-20 5h-56 q-5 -20 -8 -38t-3 -30v-241q0 -3 -2 -8t-13 -5q-8 0 -14 4t-11 9q-24 22 -53.5 40t-60 31t-61 20t-57.5 7q-7 0 -17.5 -1t-22 -2.5t-21.5 -3.5t-16 -3q0 28 15.5 58.5t44.5 40.5q0 22 1 38.5t4 30.5t9.5 26.5t17.5 26.5h-23q-18 0 -23 3t-5 15q0 4 4.5 15t10.5 23t12 23.5 t9 16.5h387q-16 20 -43 50t-58.5 63.5t-65 66.5t-63.5 60t-53.5 43.5t-35.5 16.5q-14 0 -28.5 -9t-26.5 -22.5t-19.5 -29t-7.5 -28.5q53 0 88 -21.5t55.5 -50.5t29.5 -57.5t9 -41.5q0 -3 -1.5 -6.5t-8.5 -3.5q-8 0 -13 3.5t-11 8.5q-33 28 -52 43.5t-36.5 22.5t-39.5 8.5 t-60 1.5q-21 0 -41 -5t-42 -7q0 3 1.5 17.5t8 32t19.5 34t36 24.5q6 25 10.5 41t10.5 29.5t16 26.5t29 31l6 6h-65q-18 0 -23 3t-5 15q0 4 4.5 15t10.5 23t12 23.5t9 16.5h314zM225 204q-32 -25 -44 -54t-12 -68q18 0 42 -10.5t50 -27t51.5 -36.5t46.5 -40l-8 90 q-3 31 -6.5 57.5t-9.5 46t-14.5 31t-21.5 11.5h-74zM96 802q44 53 84.5 112.5t78.5 109t73 82t67 32.5q12 0 33.5 -3t46 -11.5t50.5 -23.5t46.5 -38.5t34 -58t13.5 -80.5q0 -20 -8.5 -38.5t-22 -32t-30.5 -21.5t-34 -8q-21 0 -42 7.5t-37 22t-26 35.5t-10 48q0 2 1.5 6.5 t5.5 4.5t11 -5t17 -10.5t22 -10.5t27 -5q17 0 28.5 6t18.5 15.5t10 21t3 22.5q0 13 -9.5 25t-24.5 21t-33.5 14.5t-35.5 5.5q-31 0 -65 -19t-68.5 -48t-67 -62t-60 -62t-48.5 -48t-32 -19q-5 0 -11 3t-6 10z" />
<glyph unicode="&#xf392;&#xf74;" horiz-adv-x="680" d="M399 744l-33 -72q-6 -13 -13.5 -18.5t-34.5 -5.5q32 -27 61 -52.5t56.5 -52.5t54 -57.5t54.5 -67.5l-15 116q-3 23 -6 45t-7.5 39.5t-10.5 28t-15 10.5l35 87h118q-5 -20 -12.5 -44t-14 -47.5t-11.5 -44t-5 -33.5v-235h35l-11 -44t-11.5 -47.5t-9 -44t-3.5 -33.5v-461 l-62 34q-42 23 -78.5 36.5t-75.5 20.5t-85 9t-107 3q-21 0 -48.5 -2t-47.5 -8q0 26 11.5 47t30.5 35.5t43 22t49 7.5q104 0 187 -35t135 -94q0 7 -2 40t-5 78.5t-7.5 96.5t-8.5 95q-2 14 -5 39t-9 49t-15.5 42t-24.5 18h-75q-5 -20 -8 -38t-3 -30v-214q0 -3 -2 -8t-13 -5 q-8 0 -13.5 4.5t-11.5 8.5q-24 16 -54.5 28t-62.5 19.5t-63.5 11.5t-58.5 4q-7 0 -17.5 -1t-22 -2.5t-21.5 -3.5t-16 -3q0 14 4 30.5t11.5 31.5t18.5 27t26 17q0 11 1.5 26.5t7 32t14.5 33.5t24 31h-31q-18 0 -23 3t-5 15q0 4 4.5 15t10.5 23t12 23.5t8 16.5h430 q-25 27 -58 56t-68 57t-70.5 53.5t-65.5 44.5t-52.5 30.5t-31.5 11.5q-25 -2 -47.5 -18t-23.5 -36q42 -1 75.5 -22t57.5 -48t37 -52.5t13 -35.5q0 -5 -4 -9.5t-11 -4.5q-8 0 -15.5 4.5t-12.5 10.5q-19 22 -38 34.5t-41 19.5t-48 9t-57 2q-21 0 -41 -5t-42 -7q0 3 1.5 17.5 t8 32t19.5 34t36 24.5q6 21 21 44.5t38 45.5l16 15h-68q-18 0 -23 3t-5 15q0 4 4.5 15t10.5 23t12 23.5t9 16.5h317zM680 -455q0 -39 -13 -72.5t-34.5 -58.5t-50.5 -39t-62 -14q-39 0 -71 15t-61.5 40.5t-60 58t-67 68t-82 70.5t-104.5 65q-20 8 -20 25q0 5 4.5 11t8.5 6 q7 0 15.5 -0.5t18.5 -4.5q65 -29 127 -73.5t120.5 -87t112 -73t100.5 -30.5q29 0 50 14t21 52q0 17 -10.5 32t-27 26t-37 17.5t-40.5 6.5q-16 0 -28 -5t-21 -11t-17 -11t-16 -5q-5 0 -6 11.5t-1 20.5q0 12 6.5 29.5t20.5 33.5t35.5 27.5t50.5 11.5q31 0 56.5 -12.5t44 -34 t28.5 -50t10 -59.5zM231 244q-16 -12 -32.5 -27t-29.5 -31t-21 -32.5t-8 -32.5q18 0 45 -10.5t56 -27t57.5 -36.5t49.5 -40l-7 81q-3 31 -8 59t-12.5 49.5t-17.5 34.5t-23 13h-49z" />
<glyph unicode="&#xf392;&#xf7a;" horiz-adv-x="680" d="M395 744l-33 -72q-6 -13 -13.5 -18.5t-34.5 -5.5q65 -57 123.5 -124t108.5 -159l-17 163q-4 37 -6 62t-5 39.5t-9 20.5t-19 6l43 88h120q-5 -20 -14 -44t-18 -47.5t-15.5 -44t-6.5 -33.5v-275h32q-3 -20 -8 -44t-10.5 -47.5t-9.5 -44t-4 -33.5v-499l-62 38 q-41 25 -77.5 43t-78.5 30t-94 18t-124 7q-21 0 -48.5 -2t-47.5 -8q0 26 11.5 46t30.5 33.5t43 20t49 6.5q52 0 103 -11t97 -30.5t84.5 -45.5t64.5 -55l-4 56q0 6 -2 26.5t-4 49.5t-5 64.5t-6 71.5t-6.5 69.5t-6.5 60.5q-3 22 -4 37.5t-4.5 26t-10.5 15.5t-20 5h-56 q-5 -20 -8 -38t-3 -30v-241q0 -3 -2 -8t-13 -5q-8 0 -14 4t-11 9q-24 22 -53.5 40t-60 31t-61 20t-57.5 7q-7 0 -17.5 -1t-22 -2.5t-21.5 -3.5t-16 -3q0 28 15.5 58.5t44.5 40.5q0 22 1 38.5t4 30.5t9.5 26.5t17.5 26.5h-23q-18 0 -23 3t-5 15q0 4 4.5 15t10.5 23t12 23.5 t9 16.5h387q-16 20 -43 50t-58.5 63.5t-65 66.5t-63.5 60t-53.5 43.5t-35.5 16.5q-14 0 -28.5 -9t-26.5 -22.5t-19.5 -29t-7.5 -28.5q53 0 88 -21.5t55.5 -50.5t29.5 -57.5t9 -41.5q0 -3 -1.5 -6.5t-8.5 -3.5q-8 0 -13 3.5t-11 8.5q-33 28 -52 43.5t-36.5 22.5t-39.5 8.5 t-60 1.5q-21 0 -41 -5t-42 -7q0 3 1.5 17.5t8 32t19.5 34t36 24.5q6 25 10.5 41t10.5 29.5t16 26.5t29 31l6 6h-65q-18 0 -23 3t-5 15q0 4 4.5 15t10.5 23t12 23.5t9 16.5h314zM225 204q-32 -25 -44 -54t-12 -68q18 0 42 -10.5t50 -27t51.5 -36.5t46.5 -40l-8 90 q-3 31 -6.5 57.5t-9.5 46t-14.5 31t-21.5 11.5h-74zM613 793q0 -13 -11 -13t-33 13.5t-52 34t-66.5 45t-75.5 47.5q-30 18 -68 36.5t-75.5 33.5t-71.5 24.5t-56 9.5h-17t-20 -2q0 13 7.5 30t18 32t22 25.5t19.5 10.5q40 0 83 -14.5t86 -38t84.5 -54t79 -63t69 -64.5 t54.5 -59l18 -21q5 -5 5 -13z" />
<glyph unicode="&#xf392;&#xf7c;" horiz-adv-x="680" d="M395 744l-33 -72q-6 -13 -13.5 -18.5t-34.5 -5.5q65 -57 123.5 -124t108.5 -159l-17 163q-4 37 -6 62t-5 39.5t-9 20.5t-19 6l43 88h120q-5 -20 -14 -44t-18 -47.5t-15.5 -44t-6.5 -33.5v-275h32q-3 -20 -8 -44t-10.5 -47.5t-9.5 -44t-4 -33.5v-499l-62 38 q-41 25 -77.5 43t-78.5 30t-94 18t-124 7q-21 0 -48.5 -2t-47.5 -8q0 26 11.5 46t30.5 33.5t43 20t49 6.5q52 0 103 -11t97 -30.5t84.5 -45.5t64.5 -55l-4 56q0 6 -2 26.5t-4 49.5t-5 64.5t-6 71.5t-6.5 69.5t-6.5 60.5q-3 22 -4 37.5t-4.5 26t-10.5 15.5t-20 5h-56 q-5 -20 -8 -38t-3 -30v-241q0 -3 -2 -8t-13 -5q-8 0 -14 4t-11 9q-24 22 -53.5 40t-60 31t-61 20t-57.5 7q-7 0 -17.5 -1t-22 -2.5t-21.5 -3.5t-16 -3q0 28 15.5 58.5t44.5 40.5q0 22 1 38.5t4 30.5t9.5 26.5t17.5 26.5h-23q-18 0 -23 3t-5 15q0 4 4.5 15t10.5 23t12 23.5 t9 16.5h387q-16 20 -43 50t-58.5 63.5t-65 66.5t-63.5 60t-53.5 43.5t-35.5 16.5q-14 0 -28.5 -9t-26.5 -22.5t-19.5 -29t-7.5 -28.5q53 0 88 -21.5t55.5 -50.5t29.5 -57.5t9 -41.5q0 -3 -1.5 -6.5t-8.5 -3.5q-8 0 -13 3.5t-11 8.5q-33 28 -52 43.5t-36.5 22.5t-39.5 8.5 t-60 1.5q-21 0 -41 -5t-42 -7q0 3 1.5 17.5t8 32t19.5 34t36 24.5q6 25 10.5 41t10.5 29.5t16 26.5t29 31l6 6h-65q-18 0 -23 3t-5 15q0 4 4.5 15t10.5 23t12 23.5t9 16.5h314zM225 204q-32 -25 -44 -54t-12 -68q18 0 42 -10.5t50 -27t51.5 -36.5t46.5 -40l-8 90 q-3 31 -6.5 57.5t-9.5 46t-14.5 31t-21.5 11.5h-74zM-6 947h-17t-20 -2q0 13 7 30t17 32t21 25.5t19 10.5q33 0 77.5 -17t87.5 -46.5t78 -68t49 -81.5l3 8q9 39 20 76t34.5 65.5t65 46t111.5 17.5q34 0 59 1t46 6t42.5 16t48.5 31q13 0 13 -6q0 -20 -24.5 -45t-60.5 -47 t-76.5 -36.5t-73.5 -14.5q-38 0 -70.5 -14t-56.5 -36t-38 -49t-14 -52q0 -8 -9.5 -13t-14.5 -5q-10 0 -21 22q-16 33 -51 59.5t-78 46t-89 30t-85 10.5z" />
<glyph unicode="&#xf43;&#xf71;" d="M613 744q-5 -20 -10.5 -44t-10.5 -47.5t-8.5 -44t-3.5 -33.5v-295l-33 -72q-11 -24 -66 -24h-137q-24 0 -51.5 -12t-51 -29.5t-38.5 -36t-15 -30.5q9 0 23.5 -4t30 -11t30 -16.5t24.5 -19.5q25 46 69.5 74t91.5 28q39 0 67 -13t46 -34t26.5 -47.5t8.5 -53.5q0 -25 -9 -48 t-22.5 -45t-30 -43.5t-32.5 -42.5h40v-17q0 -11 -5 -24t-12 -14q5 -8 11 -22t6 -25q0 -21 -10.5 -44.5t-31.5 -39.5q18 0 37.5 -12.5t38 -34t34 -51t26.5 -62.5q0 -5 -3.5 -9.5t-9.5 -4.5t-17 14q-16 20 -30 34t-31 23t-39 13t-55 4q-13 0 -32.5 -3.5t-43.5 -8.5q0 6 1 22.5 t8.5 33t23 29.5t44.5 13q15 10 25.5 22.5t10.5 24.5q0 21 -18.5 32t-61.5 11h-31q-32 0 -56 -11t-24 -32q0 -16 4 -28t8.5 -21l8.5 -17t4 -16q0 -12 -5 -28.5t-12 -32.5t-15.5 -27t-15.5 -11q-6 0 -8 3t-2 5t1 4t1 4q0 20 -6 38t-13 34t-13 29t-6 24q0 36 14.5 68.5t36.5 57 t47.5 39t46.5 14.5h76q10 16 21.5 31t21 31t16 33t6.5 38t-5.5 38.5t-18 31t-33 21t-50.5 7.5q-35 0 -54 -12t-30 -22q13 -12 26.5 -33.5t25 -43.5t18.5 -39t7 -21q0 -2 -1 -5t-9 -3t-14.5 4t-11.5 9q-16 19 -39.5 39t-51 37t-57 28t-56.5 11q-31 0 -49.5 -2.5t-38.5 -8.5 q4 27 10.5 44.5t14.5 28.5t16.5 17.5t17.5 11.5q0 22 13 53t42 60h-31q-22 0 -25.5 3.5t-3.5 15.5q0 5 4.5 16t10.5 23t12 22.5t9 15.5h361l-21 250q-2 22 -4 43t-7.5 37.5t-14.5 27t-25 10.5h-77q-9 -42 -11 -68v-247q0 -3 -1 -9.5t-7 -6.5q-12 0 -21 10q-19 22 -51 42 t-68 35.5t-72 24.5t-63 9q-7 0 -17.5 -1t-21.5 -3t-21.5 -4.5t-16.5 -4.5q0 14 4 30t11.5 30t18.5 25.5t26 16.5q0 37 9 65t39 56h-31q-18 0 -23 3t-5 15q0 4 4.5 15t10.5 23t12 23.5t9 16.5h516zM203 648q-32 -25 -57.5 -54t-25.5 -61q3 1 8.5 1h9.5q19 0 45 -12.5 t53 -31.5t51 -40.5t39 -39.5l-15 121l-7 52.5t-8 36.5t-13 21t-20 7h-60z" />
</font>
</defs>
</svg>
